<svg xmlns="http://www.w3.org/2000/svg" width="1120" height="470" viewBox="0 0 1120 470">
<rect width="1120" height="470" fill="#f5f7fa"/>
<g font-family="Arial,sans-serif" fill="#182937">
<text x="44" y="42" font-size="24" font-weight="bold">Windflow fan mounting corner — nominal axial stack</text>
<text x="44" y="70" font-size="15">Independent repair study • airflow +Y • original silicone retained • physical preload unqualified</text>
<g transform="translate(126,0)">
<path d="M0 113H750" stroke="#8295a5" stroke-width="2"/><path d="M737 106L750 113L737 120" fill="#8295a5"/>
<text x="332" y="102" font-size="15">Airflow +Y</text>
<rect x="0" y="152" width="32" height="114" rx="3" fill="#bec8cf"/>
<rect x="32" y="143" width="6" height="132" fill="#899ba8"/>
<rect x="38" y="152" width="292" height="114" fill="#d2b496"/>
<rect x="38" y="152" width="11" height="114" fill="#806654"/>
<rect x="319" y="152" width="11" height="114" fill="#806654"/>
<rect x="330" y="152" width="18" height="114" fill="#3ba6a4"/>
<rect x="348" y="136" width="87" height="146" fill="#526675"/>
<rect x="348" y="185" width="62" height="48" fill="#c8a755"/>
<rect x="38" y="190" width="310" height="38" fill="#c7d0d7"/>
<rect x="32" y="198" width="384" height="22" fill="#8798a4"/>
<path d="M-8 209H445" stroke="#f5f7fa" stroke-dasharray="7 5"/>
<path d="M38 294V305H348V294" stroke="#182937" fill="none"/>
<text x="115" y="327" font-size="15">K&amp;S8128 brass tube, cut 28.70 mm</text>
<text x="45" y="374" font-size="15">Fan and pads 27.00 mm</text>
<path d="M38 353V363H330V353" stroke="#182937" fill="none"/>
<text x="448" y="160" font-size="15">Head / flush insert stop Y = 29.01</text>
<text x="448" y="190" font-size="15">Insert length = 5.70 mm</text>
<text x="448" y="220" font-size="15">M3 × 35 screw, tip Y = 34.81</text>
<text x="448" y="250" font-size="15">Nominal blind-bottom clearance = 0.99 mm</text>
<text x="448" y="300" font-size="15">TPU free 2.00 → trial 1.70 mm</text>
<text x="448" y="329" font-size="15">15% nominal pad compression</text>
<text x="448" y="358" font-size="15">Fan rear face shifts to Y = 0.31</text>
<text x="-79" y="304" font-size="14">0.5 mm washer</text>
<path d="M-2 285L35 273" stroke="#182937"/>
</g>
<text x="44" y="433" font-size="14">Schematic only. Tube nominal OD3.96875 / ID3.2512 mm; nominal fan radial clearance0.165625 mm.</text>
</g></svg>
