ISO-10303-21;
HEADER;
FILE_DESCRIPTION(('KiCad electronic assembly'),'2;1');
FILE_NAME('windflow-encoder-board-only.step','2026-10-05T17:53:45',(
    'Pcbnew'),('Kicad'),'Open CASCADE STEP processor 7.9',
  'KiCad to STEP converter','Unknown');
FILE_SCHEMA(('AUTOMOTIVE_DESIGN { 1 0 10303 214 1 1 1 1 }'));
ENDSEC;
DATA;
#1 = APPLICATION_PROTOCOL_DEFINITION('international standard',
  'automotive_design',2000,#2);
#2 = APPLICATION_CONTEXT(
  'core data for automotive mechanical design processes');
#3 = SHAPE_DEFINITION_REPRESENTATION(#4,#10);
#4 = PRODUCT_DEFINITION_SHAPE('','',#5);
#5 = PRODUCT_DEFINITION('design','',#6,#9);
#6 = PRODUCT_DEFINITION_FORMATION('','',#7);
#7 = PRODUCT('windflow-encoder-board-only 1',
  'windflow-encoder-board-only 1','',(#8));
#8 = PRODUCT_CONTEXT('',#2,'mechanical');
#9 = PRODUCT_DEFINITION_CONTEXT('part definition',#2,'design');
#10 = SHAPE_REPRESENTATION('',(#11,#15),#19);
#11 = AXIS2_PLACEMENT_3D('',#12,#13,#14);
#12 = CARTESIAN_POINT('',(0.,0.,0.));
#13 = DIRECTION('',(0.,0.,1.));
#14 = DIRECTION('',(1.,0.,-0.));
#15 = AXIS2_PLACEMENT_3D('',#16,#17,#18);
#16 = CARTESIAN_POINT('',(0.,0.,0.));
#17 = DIRECTION('',(0.,0.,1.));
#18 = DIRECTION('',(1.,0.,-0.));
#19 = ( GEOMETRIC_REPRESENTATION_CONTEXT(3) 
GLOBAL_UNCERTAINTY_ASSIGNED_CONTEXT((#23)) GLOBAL_UNIT_ASSIGNED_CONTEXT(
(#20,#21,#22)) REPRESENTATION_CONTEXT('Context #1',
  '3D Context with UNIT and UNCERTAINTY') );
#20 = ( LENGTH_UNIT() NAMED_UNIT(*) SI_UNIT(.MILLI.,.METRE.) );
#21 = ( NAMED_UNIT(*) PLANE_ANGLE_UNIT() SI_UNIT($,.RADIAN.) );
#22 = ( NAMED_UNIT(*) SI_UNIT($,.STERADIAN.) SOLID_ANGLE_UNIT() );
#23 = UNCERTAINTY_MEASURE_WITH_UNIT(LENGTH_MEASURE(1.E-07),#20,
  'distance_accuracy_value','confusion accuracy');
#24 = PRODUCT_RELATED_PRODUCT_CATEGORY('part',$,(#7));
#25 = SHAPE_DEFINITION_REPRESENTATION(#26,#32);
#26 = PRODUCT_DEFINITION_SHAPE('','',#27);
#27 = PRODUCT_DEFINITION('design','',#28,#31);
#28 = PRODUCT_DEFINITION_FORMATION('','',#29);
#29 = PRODUCT('windflow-encoder_PCB','windflow-encoder_PCB','',(#30));
#30 = PRODUCT_CONTEXT('',#2,'mechanical');
#31 = PRODUCT_DEFINITION_CONTEXT('part definition',#2,'design');
#32 = ADVANCED_BREP_SHAPE_REPRESENTATION('',(#11,#33),#892);
#33 = MANIFOLD_SOLID_BREP('',#34);
#34 = CLOSED_SHELL('',(#35,#75,#106,#137,#347,#557,#569,#586,#603,#620,
    #642,#659,#676,#688,#705,#722,#744,#761,#778,#790,#807,#824,#841,
    #858,#875));
#35 = ADVANCED_FACE('',(#36),#70,.T.);
#36 = FACE_BOUND('',#37,.T.);
#37 = EDGE_LOOP('',(#38,#48,#56,#64));
#38 = ORIENTED_EDGE('',*,*,#39,.T.);
#39 = EDGE_CURVE('',#40,#42,#44,.T.);
#40 = VERTEX_POINT('',#41);
#41 = CARTESIAN_POINT('',(29.5,-24.,0.));
#42 = VERTEX_POINT('',#43);
#43 = CARTESIAN_POINT('',(29.5,-24.,1.51));
#44 = LINE('',#45,#46);
#45 = CARTESIAN_POINT('',(29.5,-24.,0.));
#46 = VECTOR('',#47,1.);
#47 = DIRECTION('',(0.,0.,1.));
#48 = ORIENTED_EDGE('',*,*,#49,.T.);
#49 = EDGE_CURVE('',#42,#50,#52,.T.);
#50 = VERTEX_POINT('',#51);
#51 = CARTESIAN_POINT('',(0.,-24.,1.51));
#52 = LINE('',#53,#54);
#53 = CARTESIAN_POINT('',(29.5,-24.,1.51));
#54 = VECTOR('',#55,1.);
#55 = DIRECTION('',(-1.,0.,0.));
#56 = ORIENTED_EDGE('',*,*,#57,.F.);
#57 = EDGE_CURVE('',#58,#50,#60,.T.);
#58 = VERTEX_POINT('',#59);
#59 = CARTESIAN_POINT('',(0.,-24.,0.));
#60 = LINE('',#61,#62);
#61 = CARTESIAN_POINT('',(0.,-24.,0.));
#62 = VECTOR('',#63,1.);
#63 = DIRECTION('',(0.,0.,1.));
#64 = ORIENTED_EDGE('',*,*,#65,.F.);
#65 = EDGE_CURVE('',#40,#58,#66,.T.);
#66 = LINE('',#67,#68);
#67 = CARTESIAN_POINT('',(29.5,-24.,0.));
#68 = VECTOR('',#69,1.);
#69 = DIRECTION('',(-1.,0.,0.));
#70 = PLANE('',#71);
#71 = AXIS2_PLACEMENT_3D('',#72,#73,#74);
#72 = CARTESIAN_POINT('',(29.5,-24.,0.));
#73 = DIRECTION('',(0.,-1.,0.));
#74 = DIRECTION('',(-1.,0.,0.));
#75 = ADVANCED_FACE('',(#76),#101,.T.);
#76 = FACE_BOUND('',#77,.T.);
#77 = EDGE_LOOP('',(#78,#88,#94,#95));
#78 = ORIENTED_EDGE('',*,*,#79,.T.);
#79 = EDGE_CURVE('',#80,#82,#84,.T.);
#80 = VERTEX_POINT('',#81);
#81 = CARTESIAN_POINT('',(29.5,-0.,0.));
#82 = VERTEX_POINT('',#83);
#83 = CARTESIAN_POINT('',(29.5,0.,1.51));
#84 = LINE('',#85,#86);
#85 = CARTESIAN_POINT('',(29.5,-0.,0.));
#86 = VECTOR('',#87,1.);
#87 = DIRECTION('',(0.,0.,1.));
#88 = ORIENTED_EDGE('',*,*,#89,.T.);
#89 = EDGE_CURVE('',#82,#42,#90,.T.);
#90 = LINE('',#91,#92);
#91 = CARTESIAN_POINT('',(29.5,0.,1.51));
#92 = VECTOR('',#93,1.);
#93 = DIRECTION('',(0.,-1.,0.));
#94 = ORIENTED_EDGE('',*,*,#39,.F.);
#95 = ORIENTED_EDGE('',*,*,#96,.F.);
#96 = EDGE_CURVE('',#80,#40,#97,.T.);
#97 = LINE('',#98,#99);
#98 = CARTESIAN_POINT('',(29.5,-0.,0.));
#99 = VECTOR('',#100,1.);
#100 = DIRECTION('',(0.,-1.,0.));
#101 = PLANE('',#102);
#102 = AXIS2_PLACEMENT_3D('',#103,#104,#105);
#103 = CARTESIAN_POINT('',(29.5,-0.,0.));
#104 = DIRECTION('',(1.,0.,-0.));
#105 = DIRECTION('',(0.,-1.,0.));
#106 = ADVANCED_FACE('',(#107),#132,.T.);
#107 = FACE_BOUND('',#108,.T.);
#108 = EDGE_LOOP('',(#109,#110,#118,#126));
#109 = ORIENTED_EDGE('',*,*,#57,.T.);
#110 = ORIENTED_EDGE('',*,*,#111,.T.);
#111 = EDGE_CURVE('',#50,#112,#114,.T.);
#112 = VERTEX_POINT('',#113);
#113 = CARTESIAN_POINT('',(0.,0.,1.51));
#114 = LINE('',#115,#116);
#115 = CARTESIAN_POINT('',(0.,-24.,1.51));
#116 = VECTOR('',#117,1.);
#117 = DIRECTION('',(0.,1.,0.));
#118 = ORIENTED_EDGE('',*,*,#119,.F.);
#119 = EDGE_CURVE('',#120,#112,#122,.T.);
#120 = VERTEX_POINT('',#121);
#121 = CARTESIAN_POINT('',(0.,-0.,0.));
#122 = LINE('',#123,#124);
#123 = CARTESIAN_POINT('',(0.,-0.,0.));
#124 = VECTOR('',#125,1.);
#125 = DIRECTION('',(0.,0.,1.));
#126 = ORIENTED_EDGE('',*,*,#127,.F.);
#127 = EDGE_CURVE('',#58,#120,#128,.T.);
#128 = LINE('',#129,#130);
#129 = CARTESIAN_POINT('',(0.,-24.,0.));
#130 = VECTOR('',#131,1.);
#131 = DIRECTION('',(0.,1.,0.));
#132 = PLANE('',#133);
#133 = AXIS2_PLACEMENT_3D('',#134,#135,#136);
#134 = CARTESIAN_POINT('',(0.,-24.,0.));
#135 = DIRECTION('',(-1.,0.,0.));
#136 = DIRECTION('',(0.,1.,0.));
#137 = ADVANCED_FACE('',(#138,#149,#160,#171,#182,#218,#229,#240,#276,
    #287,#298,#309,#320,#331),#342,.F.);
#138 = FACE_BOUND('',#139,.F.);
#139 = EDGE_LOOP('',(#140,#141,#142,#148));
#140 = ORIENTED_EDGE('',*,*,#65,.F.);
#141 = ORIENTED_EDGE('',*,*,#96,.F.);
#142 = ORIENTED_EDGE('',*,*,#143,.F.);
#143 = EDGE_CURVE('',#120,#80,#144,.T.);
#144 = LINE('',#145,#146);
#145 = CARTESIAN_POINT('',(0.,-0.,0.));
#146 = VECTOR('',#147,1.);
#147 = DIRECTION('',(1.,0.,0.));
#148 = ORIENTED_EDGE('',*,*,#127,.F.);
#149 = FACE_BOUND('',#150,.F.);
#150 = EDGE_LOOP('',(#151));
#151 = ORIENTED_EDGE('',*,*,#152,.T.);
#152 = EDGE_CURVE('',#153,#153,#155,.T.);
#153 = VERTEX_POINT('',#154);
#154 = CARTESIAN_POINT('',(6.,-20.05,0.));
#155 = CIRCLE('',#156,0.55);
#156 = AXIS2_PLACEMENT_3D('',#157,#158,#159);
#157 = CARTESIAN_POINT('',(6.,-19.5,0.));
#158 = DIRECTION('',(-0.,0.,-1.));
#159 = DIRECTION('',(-0.,-1.,0.));
#160 = FACE_BOUND('',#161,.F.);
#161 = EDGE_LOOP('',(#162));
#162 = ORIENTED_EDGE('',*,*,#163,.T.);
#163 = EDGE_CURVE('',#164,#164,#166,.T.);
#164 = VERTEX_POINT('',#165);
#165 = CARTESIAN_POINT('',(8.5,-20.05,0.));
#166 = CIRCLE('',#167,0.55);
#167 = AXIS2_PLACEMENT_3D('',#168,#169,#170);
#168 = CARTESIAN_POINT('',(8.5,-19.5,0.));
#169 = DIRECTION('',(-0.,0.,-1.));
#170 = DIRECTION('',(-0.,-1.,0.));
#171 = FACE_BOUND('',#172,.F.);
#172 = EDGE_LOOP('',(#173));
#173 = ORIENTED_EDGE('',*,*,#174,.T.);
#174 = EDGE_CURVE('',#175,#175,#177,.T.);
#175 = VERTEX_POINT('',#176);
#176 = CARTESIAN_POINT('',(11.,-20.05,0.));
#177 = CIRCLE('',#178,0.55);
#178 = AXIS2_PLACEMENT_3D('',#179,#180,#181);
#179 = CARTESIAN_POINT('',(11.,-19.5,0.));
#180 = DIRECTION('',(-0.,0.,-1.));
#181 = DIRECTION('',(-0.,-1.,0.));
#182 = FACE_BOUND('',#183,.F.);
#183 = EDGE_LOOP('',(#184,#195,#203,#212));
#184 = ORIENTED_EDGE('',*,*,#185,.T.);
#185 = EDGE_CURVE('',#186,#188,#190,.T.);
#186 = VERTEX_POINT('',#187);
#187 = CARTESIAN_POINT('',(1.7,-12.8,0.));
#188 = VERTEX_POINT('',#189);
#189 = CARTESIAN_POINT('',(1.7,-11.2,0.));
#190 = CIRCLE('',#191,0.8);
#191 = AXIS2_PLACEMENT_3D('',#192,#193,#194);
#192 = CARTESIAN_POINT('',(1.7,-12.,0.));
#193 = DIRECTION('',(-0.,0.,-1.));
#194 = DIRECTION('',(-1.110223024625E-15,1.,0.));
#195 = ORIENTED_EDGE('',*,*,#196,.T.);
#196 = EDGE_CURVE('',#188,#197,#199,.T.);
#197 = VERTEX_POINT('',#198);
#198 = CARTESIAN_POINT('',(2.5,-11.2,0.));
#199 = LINE('',#200,#201);
#200 = CARTESIAN_POINT('',(1.25,-11.2,0.));
#201 = VECTOR('',#202,1.);
#202 = DIRECTION('',(1.,0.,-0.));
#203 = ORIENTED_EDGE('',*,*,#204,.T.);
#204 = EDGE_CURVE('',#197,#205,#207,.T.);
#205 = VERTEX_POINT('',#206);
#206 = CARTESIAN_POINT('',(2.5,-12.8,0.));
#207 = CIRCLE('',#208,0.8);
#208 = AXIS2_PLACEMENT_3D('',#209,#210,#211);
#209 = CARTESIAN_POINT('',(2.5,-12.,0.));
#210 = DIRECTION('',(-0.,0.,-1.));
#211 = DIRECTION('',(1.110223024625E-15,-1.,-0.));
#212 = ORIENTED_EDGE('',*,*,#213,.T.);
#213 = EDGE_CURVE('',#205,#186,#214,.T.);
#214 = LINE('',#215,#216);
#215 = CARTESIAN_POINT('',(0.85,-12.8,0.));
#216 = VECTOR('',#217,1.);
#217 = DIRECTION('',(-1.,0.,0.));
#218 = FACE_BOUND('',#219,.F.);
#219 = EDGE_LOOP('',(#220));
#220 = ORIENTED_EDGE('',*,*,#221,.T.);
#221 = EDGE_CURVE('',#222,#222,#224,.T.);
#222 = VERTEX_POINT('',#223);
#223 = CARTESIAN_POINT('',(27.5,-21.7,0.));
#224 = CIRCLE('',#225,1.2);
#225 = AXIS2_PLACEMENT_3D('',#226,#227,#228);
#226 = CARTESIAN_POINT('',(27.5,-20.5,0.));
#227 = DIRECTION('',(-0.,0.,-1.));
#228 = DIRECTION('',(-0.,-1.,0.));
#229 = FACE_BOUND('',#230,.F.);
#230 = EDGE_LOOP('',(#231));
#231 = ORIENTED_EDGE('',*,*,#232,.T.);
#232 = EDGE_CURVE('',#233,#233,#235,.T.);
#233 = VERTEX_POINT('',#234);
#234 = CARTESIAN_POINT('',(21.5,-16.225,0.));
#235 = CIRCLE('',#236,0.475);
#236 = AXIS2_PLACEMENT_3D('',#237,#238,#239);
#237 = CARTESIAN_POINT('',(21.5,-15.75,0.));
#238 = DIRECTION('',(-0.,0.,-1.));
#239 = DIRECTION('',(-0.,-1.,0.));
#240 = FACE_BOUND('',#241,.F.);
#241 = EDGE_LOOP('',(#242,#253,#261,#270));
#242 = ORIENTED_EDGE('',*,*,#243,.T.);
#243 = EDGE_CURVE('',#244,#246,#248,.T.);
#244 = VERTEX_POINT('',#245);
#245 = CARTESIAN_POINT('',(14.5,-12.8,0.));
#246 = VERTEX_POINT('',#247);
#247 = CARTESIAN_POINT('',(14.5,-11.2,0.));
#248 = CIRCLE('',#249,0.8);
#249 = AXIS2_PLACEMENT_3D('',#250,#251,#252);
#250 = CARTESIAN_POINT('',(14.5,-12.,0.));
#251 = DIRECTION('',(-0.,0.,-1.));
#252 = DIRECTION('',(0.,1.,0.));
#253 = ORIENTED_EDGE('',*,*,#254,.T.);
#254 = EDGE_CURVE('',#246,#255,#257,.T.);
#255 = VERTEX_POINT('',#256);
#256 = CARTESIAN_POINT('',(15.3,-11.2,0.));
#257 = LINE('',#258,#259);
#258 = CARTESIAN_POINT('',(7.65,-11.2,0.));
#259 = VECTOR('',#260,1.);
#260 = DIRECTION('',(1.,0.,-0.));
#261 = ORIENTED_EDGE('',*,*,#262,.T.);
#262 = EDGE_CURVE('',#255,#263,#265,.T.);
#263 = VERTEX_POINT('',#264);
#264 = CARTESIAN_POINT('',(15.3,-12.8,0.));
#265 = CIRCLE('',#266,0.8);
#266 = AXIS2_PLACEMENT_3D('',#267,#268,#269);
#267 = CARTESIAN_POINT('',(15.3,-12.,0.));
#268 = DIRECTION('',(-0.,0.,-1.));
#269 = DIRECTION('',(-0.,-1.,0.));
#270 = ORIENTED_EDGE('',*,*,#271,.T.);
#271 = EDGE_CURVE('',#263,#244,#272,.T.);
#272 = LINE('',#273,#274);
#273 = CARTESIAN_POINT('',(7.25,-12.8,0.));
#274 = VECTOR('',#275,1.);
#275 = DIRECTION('',(-1.,0.,0.));
#276 = FACE_BOUND('',#277,.F.);
#277 = EDGE_LOOP('',(#278));
#278 = ORIENTED_EDGE('',*,*,#279,.T.);
#279 = EDGE_CURVE('',#280,#280,#282,.T.);
#280 = VERTEX_POINT('',#281);
#281 = CARTESIAN_POINT('',(21.5,-13.725,0.));
#282 = CIRCLE('',#283,0.475);
#283 = AXIS2_PLACEMENT_3D('',#284,#285,#286);
#284 = CARTESIAN_POINT('',(21.5,-13.25,0.));
#285 = DIRECTION('',(-0.,0.,-1.));
#286 = DIRECTION('',(-0.,-1.,0.));
#287 = FACE_BOUND('',#288,.F.);
#288 = EDGE_LOOP('',(#289));
#289 = ORIENTED_EDGE('',*,*,#290,.T.);
#290 = EDGE_CURVE('',#291,#291,#293,.T.);
#291 = VERTEX_POINT('',#292);
#292 = CARTESIAN_POINT('',(6.,-5.55,0.));
#293 = CIRCLE('',#294,0.55);
#294 = AXIS2_PLACEMENT_3D('',#295,#296,#297);
#295 = CARTESIAN_POINT('',(6.,-5.,0.));
#296 = DIRECTION('',(-0.,0.,-1.));
#297 = DIRECTION('',(-0.,-1.,0.));
#298 = FACE_BOUND('',#299,.F.);
#299 = EDGE_LOOP('',(#300));
#300 = ORIENTED_EDGE('',*,*,#301,.T.);
#301 = EDGE_CURVE('',#302,#302,#304,.T.);
#302 = VERTEX_POINT('',#303);
#303 = CARTESIAN_POINT('',(11.,-5.55,0.));
#304 = CIRCLE('',#305,0.55);
#305 = AXIS2_PLACEMENT_3D('',#306,#307,#308);
#306 = CARTESIAN_POINT('',(11.,-5.,0.));
#307 = DIRECTION('',(-0.,0.,-1.));
#308 = DIRECTION('',(-0.,-1.,0.));
#309 = FACE_BOUND('',#310,.F.);
#310 = EDGE_LOOP('',(#311));
#311 = ORIENTED_EDGE('',*,*,#312,.T.);
#312 = EDGE_CURVE('',#313,#313,#315,.T.);
#313 = VERTEX_POINT('',#314);
#314 = CARTESIAN_POINT('',(21.5,-11.225,0.));
#315 = CIRCLE('',#316,0.475);
#316 = AXIS2_PLACEMENT_3D('',#317,#318,#319);
#317 = CARTESIAN_POINT('',(21.5,-10.75,0.));
#318 = DIRECTION('',(-0.,0.,-1.));
#319 = DIRECTION('',(-0.,-1.,0.));
#320 = FACE_BOUND('',#321,.F.);
#321 = EDGE_LOOP('',(#322));
#322 = ORIENTED_EDGE('',*,*,#323,.T.);
#323 = EDGE_CURVE('',#324,#324,#326,.T.);
#324 = VERTEX_POINT('',#325);
#325 = CARTESIAN_POINT('',(21.5,-8.725,0.));
#326 = CIRCLE('',#327,0.475);
#327 = AXIS2_PLACEMENT_3D('',#328,#329,#330);
#328 = CARTESIAN_POINT('',(21.5,-8.25,0.));
#329 = DIRECTION('',(-0.,0.,-1.));
#330 = DIRECTION('',(-0.,-1.,0.));
#331 = FACE_BOUND('',#332,.F.);
#332 = EDGE_LOOP('',(#333));
#333 = ORIENTED_EDGE('',*,*,#334,.T.);
#334 = EDGE_CURVE('',#335,#335,#337,.T.);
#335 = VERTEX_POINT('',#336);
#336 = CARTESIAN_POINT('',(27.5,-4.7,0.));
#337 = CIRCLE('',#338,1.2);
#338 = AXIS2_PLACEMENT_3D('',#339,#340,#341);
#339 = CARTESIAN_POINT('',(27.5,-3.5,0.));
#340 = DIRECTION('',(-0.,0.,-1.));
#341 = DIRECTION('',(-0.,-1.,0.));
#342 = PLANE('',#343);
#343 = AXIS2_PLACEMENT_3D('',#344,#345,#346);
#344 = CARTESIAN_POINT('',(0.,0.,0.));
#345 = DIRECTION('',(0.,0.,1.));
#346 = DIRECTION('',(1.,0.,-0.));
#347 = ADVANCED_FACE('',(#348,#359,#370,#381,#392,#428,#439,#450,#486,
    #497,#508,#519,#530,#541),#552,.T.);
#348 = FACE_BOUND('',#349,.T.);
#349 = EDGE_LOOP('',(#350,#351,#352,#358));
#350 = ORIENTED_EDGE('',*,*,#49,.F.);
#351 = ORIENTED_EDGE('',*,*,#89,.F.);
#352 = ORIENTED_EDGE('',*,*,#353,.F.);
#353 = EDGE_CURVE('',#112,#82,#354,.T.);
#354 = LINE('',#355,#356);
#355 = CARTESIAN_POINT('',(0.,0.,1.51));
#356 = VECTOR('',#357,1.);
#357 = DIRECTION('',(1.,0.,0.));
#358 = ORIENTED_EDGE('',*,*,#111,.F.);
#359 = FACE_BOUND('',#360,.T.);
#360 = EDGE_LOOP('',(#361));
#361 = ORIENTED_EDGE('',*,*,#362,.T.);
#362 = EDGE_CURVE('',#363,#363,#365,.T.);
#363 = VERTEX_POINT('',#364);
#364 = CARTESIAN_POINT('',(6.,-20.05,1.51));
#365 = CIRCLE('',#366,0.55);
#366 = AXIS2_PLACEMENT_3D('',#367,#368,#369);
#367 = CARTESIAN_POINT('',(6.,-19.5,1.51));
#368 = DIRECTION('',(-0.,0.,-1.));
#369 = DIRECTION('',(-0.,-1.,0.));
#370 = FACE_BOUND('',#371,.T.);
#371 = EDGE_LOOP('',(#372));
#372 = ORIENTED_EDGE('',*,*,#373,.T.);
#373 = EDGE_CURVE('',#374,#374,#376,.T.);
#374 = VERTEX_POINT('',#375);
#375 = CARTESIAN_POINT('',(8.5,-20.05,1.51));
#376 = CIRCLE('',#377,0.55);
#377 = AXIS2_PLACEMENT_3D('',#378,#379,#380);
#378 = CARTESIAN_POINT('',(8.5,-19.5,1.51));
#379 = DIRECTION('',(-0.,0.,-1.));
#380 = DIRECTION('',(-0.,-1.,0.));
#381 = FACE_BOUND('',#382,.T.);
#382 = EDGE_LOOP('',(#383));
#383 = ORIENTED_EDGE('',*,*,#384,.T.);
#384 = EDGE_CURVE('',#385,#385,#387,.T.);
#385 = VERTEX_POINT('',#386);
#386 = CARTESIAN_POINT('',(11.,-20.05,1.51));
#387 = CIRCLE('',#388,0.55);
#388 = AXIS2_PLACEMENT_3D('',#389,#390,#391);
#389 = CARTESIAN_POINT('',(11.,-19.5,1.51));
#390 = DIRECTION('',(-0.,0.,-1.));
#391 = DIRECTION('',(-0.,-1.,0.));
#392 = FACE_BOUND('',#393,.T.);
#393 = EDGE_LOOP('',(#394,#405,#413,#422));
#394 = ORIENTED_EDGE('',*,*,#395,.T.);
#395 = EDGE_CURVE('',#396,#398,#400,.T.);
#396 = VERTEX_POINT('',#397);
#397 = CARTESIAN_POINT('',(1.7,-12.8,1.51));
#398 = VERTEX_POINT('',#399);
#399 = CARTESIAN_POINT('',(1.7,-11.2,1.51));
#400 = CIRCLE('',#401,0.8);
#401 = AXIS2_PLACEMENT_3D('',#402,#403,#404);
#402 = CARTESIAN_POINT('',(1.7,-12.,1.51));
#403 = DIRECTION('',(-0.,0.,-1.));
#404 = DIRECTION('',(-1.110223024625E-15,1.,0.));
#405 = ORIENTED_EDGE('',*,*,#406,.T.);
#406 = EDGE_CURVE('',#398,#407,#409,.T.);
#407 = VERTEX_POINT('',#408);
#408 = CARTESIAN_POINT('',(2.5,-11.2,1.51));
#409 = LINE('',#410,#411);
#410 = CARTESIAN_POINT('',(1.25,-11.2,1.51));
#411 = VECTOR('',#412,1.);
#412 = DIRECTION('',(1.,0.,-0.));
#413 = ORIENTED_EDGE('',*,*,#414,.T.);
#414 = EDGE_CURVE('',#407,#415,#417,.T.);
#415 = VERTEX_POINT('',#416);
#416 = CARTESIAN_POINT('',(2.5,-12.8,1.51));
#417 = CIRCLE('',#418,0.8);
#418 = AXIS2_PLACEMENT_3D('',#419,#420,#421);
#419 = CARTESIAN_POINT('',(2.5,-12.,1.51));
#420 = DIRECTION('',(-0.,0.,-1.));
#421 = DIRECTION('',(1.110223024625E-15,-1.,-0.));
#422 = ORIENTED_EDGE('',*,*,#423,.T.);
#423 = EDGE_CURVE('',#415,#396,#424,.T.);
#424 = LINE('',#425,#426);
#425 = CARTESIAN_POINT('',(0.85,-12.8,1.51));
#426 = VECTOR('',#427,1.);
#427 = DIRECTION('',(-1.,0.,0.));
#428 = FACE_BOUND('',#429,.T.);
#429 = EDGE_LOOP('',(#430));
#430 = ORIENTED_EDGE('',*,*,#431,.T.);
#431 = EDGE_CURVE('',#432,#432,#434,.T.);
#432 = VERTEX_POINT('',#433);
#433 = CARTESIAN_POINT('',(27.5,-21.7,1.51));
#434 = CIRCLE('',#435,1.2);
#435 = AXIS2_PLACEMENT_3D('',#436,#437,#438);
#436 = CARTESIAN_POINT('',(27.5,-20.5,1.51));
#437 = DIRECTION('',(-0.,0.,-1.));
#438 = DIRECTION('',(-0.,-1.,0.));
#439 = FACE_BOUND('',#440,.T.);
#440 = EDGE_LOOP('',(#441));
#441 = ORIENTED_EDGE('',*,*,#442,.T.);
#442 = EDGE_CURVE('',#443,#443,#445,.T.);
#443 = VERTEX_POINT('',#444);
#444 = CARTESIAN_POINT('',(21.5,-16.225,1.51));
#445 = CIRCLE('',#446,0.475);
#446 = AXIS2_PLACEMENT_3D('',#447,#448,#449);
#447 = CARTESIAN_POINT('',(21.5,-15.75,1.51));
#448 = DIRECTION('',(-0.,0.,-1.));
#449 = DIRECTION('',(-0.,-1.,0.));
#450 = FACE_BOUND('',#451,.T.);
#451 = EDGE_LOOP('',(#452,#463,#471,#480));
#452 = ORIENTED_EDGE('',*,*,#453,.T.);
#453 = EDGE_CURVE('',#454,#456,#458,.T.);
#454 = VERTEX_POINT('',#455);
#455 = CARTESIAN_POINT('',(14.5,-12.8,1.51));
#456 = VERTEX_POINT('',#457);
#457 = CARTESIAN_POINT('',(14.5,-11.2,1.51));
#458 = CIRCLE('',#459,0.8);
#459 = AXIS2_PLACEMENT_3D('',#460,#461,#462);
#460 = CARTESIAN_POINT('',(14.5,-12.,1.51));
#461 = DIRECTION('',(-0.,0.,-1.));
#462 = DIRECTION('',(0.,1.,0.));
#463 = ORIENTED_EDGE('',*,*,#464,.T.);
#464 = EDGE_CURVE('',#456,#465,#467,.T.);
#465 = VERTEX_POINT('',#466);
#466 = CARTESIAN_POINT('',(15.3,-11.2,1.51));
#467 = LINE('',#468,#469);
#468 = CARTESIAN_POINT('',(7.65,-11.2,1.51));
#469 = VECTOR('',#470,1.);
#470 = DIRECTION('',(1.,0.,-0.));
#471 = ORIENTED_EDGE('',*,*,#472,.T.);
#472 = EDGE_CURVE('',#465,#473,#475,.T.);
#473 = VERTEX_POINT('',#474);
#474 = CARTESIAN_POINT('',(15.3,-12.8,1.51));
#475 = CIRCLE('',#476,0.8);
#476 = AXIS2_PLACEMENT_3D('',#477,#478,#479);
#477 = CARTESIAN_POINT('',(15.3,-12.,1.51));
#478 = DIRECTION('',(-0.,0.,-1.));
#479 = DIRECTION('',(-0.,-1.,0.));
#480 = ORIENTED_EDGE('',*,*,#481,.T.);
#481 = EDGE_CURVE('',#473,#454,#482,.T.);
#482 = LINE('',#483,#484);
#483 = CARTESIAN_POINT('',(7.25,-12.8,1.51));
#484 = VECTOR('',#485,1.);
#485 = DIRECTION('',(-1.,0.,0.));
#486 = FACE_BOUND('',#487,.T.);
#487 = EDGE_LOOP('',(#488));
#488 = ORIENTED_EDGE('',*,*,#489,.T.);
#489 = EDGE_CURVE('',#490,#490,#492,.T.);
#490 = VERTEX_POINT('',#491);
#491 = CARTESIAN_POINT('',(21.5,-13.725,1.51));
#492 = CIRCLE('',#493,0.475);
#493 = AXIS2_PLACEMENT_3D('',#494,#495,#496);
#494 = CARTESIAN_POINT('',(21.5,-13.25,1.51));
#495 = DIRECTION('',(-0.,0.,-1.));
#496 = DIRECTION('',(-0.,-1.,0.));
#497 = FACE_BOUND('',#498,.T.);
#498 = EDGE_LOOP('',(#499));
#499 = ORIENTED_EDGE('',*,*,#500,.T.);
#500 = EDGE_CURVE('',#501,#501,#503,.T.);
#501 = VERTEX_POINT('',#502);
#502 = CARTESIAN_POINT('',(6.,-5.55,1.51));
#503 = CIRCLE('',#504,0.55);
#504 = AXIS2_PLACEMENT_3D('',#505,#506,#507);
#505 = CARTESIAN_POINT('',(6.,-5.,1.51));
#506 = DIRECTION('',(-0.,0.,-1.));
#507 = DIRECTION('',(-0.,-1.,0.));
#508 = FACE_BOUND('',#509,.T.);
#509 = EDGE_LOOP('',(#510));
#510 = ORIENTED_EDGE('',*,*,#511,.T.);
#511 = EDGE_CURVE('',#512,#512,#514,.T.);
#512 = VERTEX_POINT('',#513);
#513 = CARTESIAN_POINT('',(11.,-5.55,1.51));
#514 = CIRCLE('',#515,0.55);
#515 = AXIS2_PLACEMENT_3D('',#516,#517,#518);
#516 = CARTESIAN_POINT('',(11.,-5.,1.51));
#517 = DIRECTION('',(-0.,0.,-1.));
#518 = DIRECTION('',(-0.,-1.,0.));
#519 = FACE_BOUND('',#520,.T.);
#520 = EDGE_LOOP('',(#521));
#521 = ORIENTED_EDGE('',*,*,#522,.T.);
#522 = EDGE_CURVE('',#523,#523,#525,.T.);
#523 = VERTEX_POINT('',#524);
#524 = CARTESIAN_POINT('',(21.5,-11.225,1.51));
#525 = CIRCLE('',#526,0.475);
#526 = AXIS2_PLACEMENT_3D('',#527,#528,#529);
#527 = CARTESIAN_POINT('',(21.5,-10.75,1.51));
#528 = DIRECTION('',(-0.,0.,-1.));
#529 = DIRECTION('',(-0.,-1.,0.));
#530 = FACE_BOUND('',#531,.T.);
#531 = EDGE_LOOP('',(#532));
#532 = ORIENTED_EDGE('',*,*,#533,.T.);
#533 = EDGE_CURVE('',#534,#534,#536,.T.);
#534 = VERTEX_POINT('',#535);
#535 = CARTESIAN_POINT('',(21.5,-8.725,1.51));
#536 = CIRCLE('',#537,0.475);
#537 = AXIS2_PLACEMENT_3D('',#538,#539,#540);
#538 = CARTESIAN_POINT('',(21.5,-8.25,1.51));
#539 = DIRECTION('',(-0.,0.,-1.));
#540 = DIRECTION('',(-0.,-1.,0.));
#541 = FACE_BOUND('',#542,.T.);
#542 = EDGE_LOOP('',(#543));
#543 = ORIENTED_EDGE('',*,*,#544,.T.);
#544 = EDGE_CURVE('',#545,#545,#547,.T.);
#545 = VERTEX_POINT('',#546);
#546 = CARTESIAN_POINT('',(27.5,-4.7,1.51));
#547 = CIRCLE('',#548,1.2);
#548 = AXIS2_PLACEMENT_3D('',#549,#550,#551);
#549 = CARTESIAN_POINT('',(27.5,-3.5,1.51));
#550 = DIRECTION('',(-0.,0.,-1.));
#551 = DIRECTION('',(-0.,-1.,0.));
#552 = PLANE('',#553);
#553 = AXIS2_PLACEMENT_3D('',#554,#555,#556);
#554 = CARTESIAN_POINT('',(0.,0.,1.51));
#555 = DIRECTION('',(0.,0.,1.));
#556 = DIRECTION('',(1.,0.,-0.));
#557 = ADVANCED_FACE('',(#558),#564,.T.);
#558 = FACE_BOUND('',#559,.T.);
#559 = EDGE_LOOP('',(#560,#561,#562,#563));
#560 = ORIENTED_EDGE('',*,*,#119,.T.);
#561 = ORIENTED_EDGE('',*,*,#353,.T.);
#562 = ORIENTED_EDGE('',*,*,#79,.F.);
#563 = ORIENTED_EDGE('',*,*,#143,.F.);
#564 = PLANE('',#565);
#565 = AXIS2_PLACEMENT_3D('',#566,#567,#568);
#566 = CARTESIAN_POINT('',(0.,0.,0.));
#567 = DIRECTION('',(0.,1.,0.));
#568 = DIRECTION('',(1.,0.,0.));
#569 = ADVANCED_FACE('',(#570),#581,.F.);
#570 = FACE_BOUND('',#571,.T.);
#571 = EDGE_LOOP('',(#572,#573,#579,#580));
#572 = ORIENTED_EDGE('',*,*,#152,.T.);
#573 = ORIENTED_EDGE('',*,*,#574,.T.);
#574 = EDGE_CURVE('',#153,#363,#575,.T.);
#575 = LINE('',#576,#577);
#576 = CARTESIAN_POINT('',(6.,-20.05,-4.6E-02));
#577 = VECTOR('',#578,1.);
#578 = DIRECTION('',(0.,0.,1.));
#579 = ORIENTED_EDGE('',*,*,#362,.F.);
#580 = ORIENTED_EDGE('',*,*,#574,.F.);
#581 = CYLINDRICAL_SURFACE('',#582,0.55);
#582 = AXIS2_PLACEMENT_3D('',#583,#584,#585);
#583 = CARTESIAN_POINT('',(6.,-19.5,-4.6E-02));
#584 = DIRECTION('',(-0.,-0.,-1.));
#585 = DIRECTION('',(-0.,-1.,0.));
#586 = ADVANCED_FACE('',(#587),#598,.F.);
#587 = FACE_BOUND('',#588,.T.);
#588 = EDGE_LOOP('',(#589,#590,#596,#597));
#589 = ORIENTED_EDGE('',*,*,#163,.T.);
#590 = ORIENTED_EDGE('',*,*,#591,.T.);
#591 = EDGE_CURVE('',#164,#374,#592,.T.);
#592 = LINE('',#593,#594);
#593 = CARTESIAN_POINT('',(8.5,-20.05,-4.6E-02));
#594 = VECTOR('',#595,1.);
#595 = DIRECTION('',(0.,0.,1.));
#596 = ORIENTED_EDGE('',*,*,#373,.F.);
#597 = ORIENTED_EDGE('',*,*,#591,.F.);
#598 = CYLINDRICAL_SURFACE('',#599,0.55);
#599 = AXIS2_PLACEMENT_3D('',#600,#601,#602);
#600 = CARTESIAN_POINT('',(8.5,-19.5,-4.6E-02));
#601 = DIRECTION('',(-0.,-0.,-1.));
#602 = DIRECTION('',(-0.,-1.,0.));
#603 = ADVANCED_FACE('',(#604),#615,.F.);
#604 = FACE_BOUND('',#605,.T.);
#605 = EDGE_LOOP('',(#606,#607,#613,#614));
#606 = ORIENTED_EDGE('',*,*,#174,.T.);
#607 = ORIENTED_EDGE('',*,*,#608,.T.);
#608 = EDGE_CURVE('',#175,#385,#609,.T.);
#609 = LINE('',#610,#611);
#610 = CARTESIAN_POINT('',(11.,-20.05,-4.6E-02));
#611 = VECTOR('',#612,1.);
#612 = DIRECTION('',(0.,0.,1.));
#613 = ORIENTED_EDGE('',*,*,#384,.F.);
#614 = ORIENTED_EDGE('',*,*,#608,.F.);
#615 = CYLINDRICAL_SURFACE('',#616,0.55);
#616 = AXIS2_PLACEMENT_3D('',#617,#618,#619);
#617 = CARTESIAN_POINT('',(11.,-19.5,-4.6E-02));
#618 = DIRECTION('',(-0.,-0.,-1.));
#619 = DIRECTION('',(-0.,-1.,0.));
#620 = ADVANCED_FACE('',(#621),#637,.F.);
#621 = FACE_BOUND('',#622,.T.);
#622 = EDGE_LOOP('',(#623,#624,#630,#631));
#623 = ORIENTED_EDGE('',*,*,#185,.T.);
#624 = ORIENTED_EDGE('',*,*,#625,.T.);
#625 = EDGE_CURVE('',#188,#398,#626,.T.);
#626 = LINE('',#627,#628);
#627 = CARTESIAN_POINT('',(1.7,-11.2,-4.6E-02));
#628 = VECTOR('',#629,1.);
#629 = DIRECTION('',(0.,0.,1.));
#630 = ORIENTED_EDGE('',*,*,#395,.F.);
#631 = ORIENTED_EDGE('',*,*,#632,.F.);
#632 = EDGE_CURVE('',#186,#396,#633,.T.);
#633 = LINE('',#634,#635);
#634 = CARTESIAN_POINT('',(1.7,-12.8,-4.6E-02));
#635 = VECTOR('',#636,1.);
#636 = DIRECTION('',(0.,0.,1.));
#637 = CYLINDRICAL_SURFACE('',#638,0.8);
#638 = AXIS2_PLACEMENT_3D('',#639,#640,#641);
#639 = CARTESIAN_POINT('',(1.7,-12.,-4.6E-02));
#640 = DIRECTION('',(-0.,-0.,-1.));
#641 = DIRECTION('',(-1.110223024625E-15,1.,0.));
#642 = ADVANCED_FACE('',(#643),#654,.T.);
#643 = FACE_BOUND('',#644,.T.);
#644 = EDGE_LOOP('',(#645,#646,#647,#648));
#645 = ORIENTED_EDGE('',*,*,#213,.T.);
#646 = ORIENTED_EDGE('',*,*,#632,.T.);
#647 = ORIENTED_EDGE('',*,*,#423,.F.);
#648 = ORIENTED_EDGE('',*,*,#649,.F.);
#649 = EDGE_CURVE('',#205,#415,#650,.T.);
#650 = LINE('',#651,#652);
#651 = CARTESIAN_POINT('',(2.5,-12.8,-4.6E-02));
#652 = VECTOR('',#653,1.);
#653 = DIRECTION('',(0.,0.,1.));
#654 = PLANE('',#655);
#655 = AXIS2_PLACEMENT_3D('',#656,#657,#658);
#656 = CARTESIAN_POINT('',(1.7,-12.8,-4.6E-02));
#657 = DIRECTION('',(0.,1.,0.));
#658 = DIRECTION('',(1.,0.,0.));
#659 = ADVANCED_FACE('',(#660),#671,.F.);
#660 = FACE_BOUND('',#661,.T.);
#661 = EDGE_LOOP('',(#662,#663,#664,#665));
#662 = ORIENTED_EDGE('',*,*,#204,.T.);
#663 = ORIENTED_EDGE('',*,*,#649,.T.);
#664 = ORIENTED_EDGE('',*,*,#414,.F.);
#665 = ORIENTED_EDGE('',*,*,#666,.F.);
#666 = EDGE_CURVE('',#197,#407,#667,.T.);
#667 = LINE('',#668,#669);
#668 = CARTESIAN_POINT('',(2.5,-11.2,-4.6E-02));
#669 = VECTOR('',#670,1.);
#670 = DIRECTION('',(0.,0.,1.));
#671 = CYLINDRICAL_SURFACE('',#672,0.8);
#672 = AXIS2_PLACEMENT_3D('',#673,#674,#675);
#673 = CARTESIAN_POINT('',(2.5,-12.,-4.6E-02));
#674 = DIRECTION('',(-0.,0.,-1.));
#675 = DIRECTION('',(1.110223024625E-15,-1.,-0.));
#676 = ADVANCED_FACE('',(#677),#683,.T.);
#677 = FACE_BOUND('',#678,.T.);
#678 = EDGE_LOOP('',(#679,#680,#681,#682));
#679 = ORIENTED_EDGE('',*,*,#196,.T.);
#680 = ORIENTED_EDGE('',*,*,#666,.T.);
#681 = ORIENTED_EDGE('',*,*,#406,.F.);
#682 = ORIENTED_EDGE('',*,*,#625,.F.);
#683 = PLANE('',#684);
#684 = AXIS2_PLACEMENT_3D('',#685,#686,#687);
#685 = CARTESIAN_POINT('',(2.5,-11.2,-4.6E-02));
#686 = DIRECTION('',(0.,-1.,0.));
#687 = DIRECTION('',(-1.,0.,0.));
#688 = ADVANCED_FACE('',(#689),#700,.F.);
#689 = FACE_BOUND('',#690,.T.);
#690 = EDGE_LOOP('',(#691,#692,#698,#699));
#691 = ORIENTED_EDGE('',*,*,#221,.T.);
#692 = ORIENTED_EDGE('',*,*,#693,.T.);
#693 = EDGE_CURVE('',#222,#432,#694,.T.);
#694 = LINE('',#695,#696);
#695 = CARTESIAN_POINT('',(27.5,-21.7,-4.6E-02));
#696 = VECTOR('',#697,1.);
#697 = DIRECTION('',(0.,0.,1.));
#698 = ORIENTED_EDGE('',*,*,#431,.F.);
#699 = ORIENTED_EDGE('',*,*,#693,.F.);
#700 = CYLINDRICAL_SURFACE('',#701,1.2);
#701 = AXIS2_PLACEMENT_3D('',#702,#703,#704);
#702 = CARTESIAN_POINT('',(27.5,-20.5,-4.6E-02));
#703 = DIRECTION('',(-0.,-0.,-1.));
#704 = DIRECTION('',(-0.,-1.,0.));
#705 = ADVANCED_FACE('',(#706),#717,.F.);
#706 = FACE_BOUND('',#707,.T.);
#707 = EDGE_LOOP('',(#708,#709,#715,#716));
#708 = ORIENTED_EDGE('',*,*,#232,.T.);
#709 = ORIENTED_EDGE('',*,*,#710,.T.);
#710 = EDGE_CURVE('',#233,#443,#711,.T.);
#711 = LINE('',#712,#713);
#712 = CARTESIAN_POINT('',(21.5,-16.225,-4.6E-02));
#713 = VECTOR('',#714,1.);
#714 = DIRECTION('',(0.,0.,1.));
#715 = ORIENTED_EDGE('',*,*,#442,.F.);
#716 = ORIENTED_EDGE('',*,*,#710,.F.);
#717 = CYLINDRICAL_SURFACE('',#718,0.475);
#718 = AXIS2_PLACEMENT_3D('',#719,#720,#721);
#719 = CARTESIAN_POINT('',(21.5,-15.75,-4.6E-02));
#720 = DIRECTION('',(-0.,-0.,-1.));
#721 = DIRECTION('',(-0.,-1.,0.));
#722 = ADVANCED_FACE('',(#723),#739,.F.);
#723 = FACE_BOUND('',#724,.T.);
#724 = EDGE_LOOP('',(#725,#726,#732,#733));
#725 = ORIENTED_EDGE('',*,*,#243,.T.);
#726 = ORIENTED_EDGE('',*,*,#727,.T.);
#727 = EDGE_CURVE('',#246,#456,#728,.T.);
#728 = LINE('',#729,#730);
#729 = CARTESIAN_POINT('',(14.5,-11.2,-4.6E-02));
#730 = VECTOR('',#731,1.);
#731 = DIRECTION('',(0.,0.,1.));
#732 = ORIENTED_EDGE('',*,*,#453,.F.);
#733 = ORIENTED_EDGE('',*,*,#734,.F.);
#734 = EDGE_CURVE('',#244,#454,#735,.T.);
#735 = LINE('',#736,#737);
#736 = CARTESIAN_POINT('',(14.5,-12.8,-4.6E-02));
#737 = VECTOR('',#738,1.);
#738 = DIRECTION('',(0.,0.,1.));
#739 = CYLINDRICAL_SURFACE('',#740,0.8);
#740 = AXIS2_PLACEMENT_3D('',#741,#742,#743);
#741 = CARTESIAN_POINT('',(14.5,-12.,-4.6E-02));
#742 = DIRECTION('',(-0.,0.,-1.));
#743 = DIRECTION('',(0.,1.,0.));
#744 = ADVANCED_FACE('',(#745),#756,.T.);
#745 = FACE_BOUND('',#746,.T.);
#746 = EDGE_LOOP('',(#747,#748,#749,#750));
#747 = ORIENTED_EDGE('',*,*,#271,.T.);
#748 = ORIENTED_EDGE('',*,*,#734,.T.);
#749 = ORIENTED_EDGE('',*,*,#481,.F.);
#750 = ORIENTED_EDGE('',*,*,#751,.F.);
#751 = EDGE_CURVE('',#263,#473,#752,.T.);
#752 = LINE('',#753,#754);
#753 = CARTESIAN_POINT('',(15.3,-12.8,-4.6E-02));
#754 = VECTOR('',#755,1.);
#755 = DIRECTION('',(0.,0.,1.));
#756 = PLANE('',#757);
#757 = AXIS2_PLACEMENT_3D('',#758,#759,#760);
#758 = CARTESIAN_POINT('',(14.5,-12.8,-4.6E-02));
#759 = DIRECTION('',(0.,1.,0.));
#760 = DIRECTION('',(1.,0.,0.));
#761 = ADVANCED_FACE('',(#762),#773,.F.);
#762 = FACE_BOUND('',#763,.T.);
#763 = EDGE_LOOP('',(#764,#765,#766,#767));
#764 = ORIENTED_EDGE('',*,*,#262,.T.);
#765 = ORIENTED_EDGE('',*,*,#751,.T.);
#766 = ORIENTED_EDGE('',*,*,#472,.F.);
#767 = ORIENTED_EDGE('',*,*,#768,.F.);
#768 = EDGE_CURVE('',#255,#465,#769,.T.);
#769 = LINE('',#770,#771);
#770 = CARTESIAN_POINT('',(15.3,-11.2,-4.6E-02));
#771 = VECTOR('',#772,1.);
#772 = DIRECTION('',(0.,0.,1.));
#773 = CYLINDRICAL_SURFACE('',#774,0.8);
#774 = AXIS2_PLACEMENT_3D('',#775,#776,#777);
#775 = CARTESIAN_POINT('',(15.3,-12.,-4.6E-02));
#776 = DIRECTION('',(-0.,-0.,-1.));
#777 = DIRECTION('',(-0.,-1.,0.));
#778 = ADVANCED_FACE('',(#779),#785,.T.);
#779 = FACE_BOUND('',#780,.T.);
#780 = EDGE_LOOP('',(#781,#782,#783,#784));
#781 = ORIENTED_EDGE('',*,*,#254,.T.);
#782 = ORIENTED_EDGE('',*,*,#768,.T.);
#783 = ORIENTED_EDGE('',*,*,#464,.F.);
#784 = ORIENTED_EDGE('',*,*,#727,.F.);
#785 = PLANE('',#786);
#786 = AXIS2_PLACEMENT_3D('',#787,#788,#789);
#787 = CARTESIAN_POINT('',(15.3,-11.2,-4.6E-02));
#788 = DIRECTION('',(0.,-1.,0.));
#789 = DIRECTION('',(-1.,0.,0.));
#790 = ADVANCED_FACE('',(#791),#802,.F.);
#791 = FACE_BOUND('',#792,.T.);
#792 = EDGE_LOOP('',(#793,#794,#800,#801));
#793 = ORIENTED_EDGE('',*,*,#279,.T.);
#794 = ORIENTED_EDGE('',*,*,#795,.T.);
#795 = EDGE_CURVE('',#280,#490,#796,.T.);
#796 = LINE('',#797,#798);
#797 = CARTESIAN_POINT('',(21.5,-13.725,-4.6E-02));
#798 = VECTOR('',#799,1.);
#799 = DIRECTION('',(0.,0.,1.));
#800 = ORIENTED_EDGE('',*,*,#489,.F.);
#801 = ORIENTED_EDGE('',*,*,#795,.F.);
#802 = CYLINDRICAL_SURFACE('',#803,0.475);
#803 = AXIS2_PLACEMENT_3D('',#804,#805,#806);
#804 = CARTESIAN_POINT('',(21.5,-13.25,-4.6E-02));
#805 = DIRECTION('',(-0.,-0.,-1.));
#806 = DIRECTION('',(-0.,-1.,0.));
#807 = ADVANCED_FACE('',(#808),#819,.F.);
#808 = FACE_BOUND('',#809,.T.);
#809 = EDGE_LOOP('',(#810,#811,#817,#818));
#810 = ORIENTED_EDGE('',*,*,#290,.T.);
#811 = ORIENTED_EDGE('',*,*,#812,.T.);
#812 = EDGE_CURVE('',#291,#501,#813,.T.);
#813 = LINE('',#814,#815);
#814 = CARTESIAN_POINT('',(6.,-5.55,-4.6E-02));
#815 = VECTOR('',#816,1.);
#816 = DIRECTION('',(0.,0.,1.));
#817 = ORIENTED_EDGE('',*,*,#500,.F.);
#818 = ORIENTED_EDGE('',*,*,#812,.F.);
#819 = CYLINDRICAL_SURFACE('',#820,0.55);
#820 = AXIS2_PLACEMENT_3D('',#821,#822,#823);
#821 = CARTESIAN_POINT('',(6.,-5.,-4.6E-02));
#822 = DIRECTION('',(-0.,-0.,-1.));
#823 = DIRECTION('',(-0.,-1.,0.));
#824 = ADVANCED_FACE('',(#825),#836,.F.);
#825 = FACE_BOUND('',#826,.T.);
#826 = EDGE_LOOP('',(#827,#828,#834,#835));
#827 = ORIENTED_EDGE('',*,*,#301,.T.);
#828 = ORIENTED_EDGE('',*,*,#829,.T.);
#829 = EDGE_CURVE('',#302,#512,#830,.T.);
#830 = LINE('',#831,#832);
#831 = CARTESIAN_POINT('',(11.,-5.55,-4.6E-02));
#832 = VECTOR('',#833,1.);
#833 = DIRECTION('',(0.,0.,1.));
#834 = ORIENTED_EDGE('',*,*,#511,.F.);
#835 = ORIENTED_EDGE('',*,*,#829,.F.);
#836 = CYLINDRICAL_SURFACE('',#837,0.55);
#837 = AXIS2_PLACEMENT_3D('',#838,#839,#840);
#838 = CARTESIAN_POINT('',(11.,-5.,-4.6E-02));
#839 = DIRECTION('',(-0.,-0.,-1.));
#840 = DIRECTION('',(-0.,-1.,0.));
#841 = ADVANCED_FACE('',(#842),#853,.F.);
#842 = FACE_BOUND('',#843,.T.);
#843 = EDGE_LOOP('',(#844,#845,#851,#852));
#844 = ORIENTED_EDGE('',*,*,#312,.T.);
#845 = ORIENTED_EDGE('',*,*,#846,.T.);
#846 = EDGE_CURVE('',#313,#523,#847,.T.);
#847 = LINE('',#848,#849);
#848 = CARTESIAN_POINT('',(21.5,-11.225,-4.6E-02));
#849 = VECTOR('',#850,1.);
#850 = DIRECTION('',(0.,0.,1.));
#851 = ORIENTED_EDGE('',*,*,#522,.F.);
#852 = ORIENTED_EDGE('',*,*,#846,.F.);
#853 = CYLINDRICAL_SURFACE('',#854,0.475);
#854 = AXIS2_PLACEMENT_3D('',#855,#856,#857);
#855 = CARTESIAN_POINT('',(21.5,-10.75,-4.6E-02));
#856 = DIRECTION('',(-0.,-0.,-1.));
#857 = DIRECTION('',(-0.,-1.,0.));
#858 = ADVANCED_FACE('',(#859),#870,.F.);
#859 = FACE_BOUND('',#860,.T.);
#860 = EDGE_LOOP('',(#861,#862,#868,#869));
#861 = ORIENTED_EDGE('',*,*,#323,.T.);
#862 = ORIENTED_EDGE('',*,*,#863,.T.);
#863 = EDGE_CURVE('',#324,#534,#864,.T.);
#864 = LINE('',#865,#866);
#865 = CARTESIAN_POINT('',(21.5,-8.725,-4.6E-02));
#866 = VECTOR('',#867,1.);
#867 = DIRECTION('',(0.,0.,1.));
#868 = ORIENTED_EDGE('',*,*,#533,.F.);
#869 = ORIENTED_EDGE('',*,*,#863,.F.);
#870 = CYLINDRICAL_SURFACE('',#871,0.475);
#871 = AXIS2_PLACEMENT_3D('',#872,#873,#874);
#872 = CARTESIAN_POINT('',(21.5,-8.25,-4.6E-02));
#873 = DIRECTION('',(-0.,-0.,-1.));
#874 = DIRECTION('',(-0.,-1.,0.));
#875 = ADVANCED_FACE('',(#876),#887,.F.);
#876 = FACE_BOUND('',#877,.T.);
#877 = EDGE_LOOP('',(#878,#879,#885,#886));
#878 = ORIENTED_EDGE('',*,*,#334,.T.);
#879 = ORIENTED_EDGE('',*,*,#880,.T.);
#880 = EDGE_CURVE('',#335,#545,#881,.T.);
#881 = LINE('',#882,#883);
#882 = CARTESIAN_POINT('',(27.5,-4.7,-4.6E-02));
#883 = VECTOR('',#884,1.);
#884 = DIRECTION('',(0.,0.,1.));
#885 = ORIENTED_EDGE('',*,*,#544,.F.);
#886 = ORIENTED_EDGE('',*,*,#880,.F.);
#887 = CYLINDRICAL_SURFACE('',#888,1.2);
#888 = AXIS2_PLACEMENT_3D('',#889,#890,#891);
#889 = CARTESIAN_POINT('',(27.5,-3.5,-4.6E-02));
#890 = DIRECTION('',(-0.,-0.,-1.));
#891 = DIRECTION('',(-0.,-1.,0.));
#892 = ( GEOMETRIC_REPRESENTATION_CONTEXT(3) 
GLOBAL_UNCERTAINTY_ASSIGNED_CONTEXT((#896)) GLOBAL_UNIT_ASSIGNED_CONTEXT
((#893,#894,#895)) REPRESENTATION_CONTEXT('Context #1',
  '3D Context with UNIT and UNCERTAINTY') );
#893 = ( LENGTH_UNIT() NAMED_UNIT(*) SI_UNIT(.MILLI.,.METRE.) );
#894 = ( NAMED_UNIT(*) PLANE_ANGLE_UNIT() SI_UNIT($,.RADIAN.) );
#895 = ( NAMED_UNIT(*) SI_UNIT($,.STERADIAN.) SOLID_ANGLE_UNIT() );
#896 = UNCERTAINTY_MEASURE_WITH_UNIT(LENGTH_MEASURE(1.E-07),#893,
  'distance_accuracy_value','confusion accuracy');
#897 = CONTEXT_DEPENDENT_SHAPE_REPRESENTATION(#898,#900);
#898 = ( REPRESENTATION_RELATIONSHIP('','',#32,#10) 
REPRESENTATION_RELATIONSHIP_WITH_TRANSFORMATION(#899) 
SHAPE_REPRESENTATION_RELATIONSHIP() );
#899 = ITEM_DEFINED_TRANSFORMATION('','',#11,#15);
#900 = PRODUCT_DEFINITION_SHAPE('Placement','Placement of an item',#901
  );
#901 = NEXT_ASSEMBLY_USAGE_OCCURRENCE('1','=>[0:1:1:2]','',#5,#27,$);
#902 = PRODUCT_RELATED_PRODUCT_CATEGORY('part',$,(#29));
#903 = MECHANICAL_DESIGN_GEOMETRIC_PRESENTATION_REPRESENTATION('',(#904)
  ,#892);
#904 = STYLED_ITEM('color',(#905),#33);
#905 = PRESENTATION_STYLE_ASSIGNMENT((#906));
#906 = SURFACE_STYLE_USAGE(.BOTH.,#907);
#907 = SURFACE_SIDE_STYLE('',(#908));
#908 = SURFACE_STYLE_FILL_AREA(#909);
#909 = FILL_AREA_STYLE('',(#910));
#910 = FILL_AREA_STYLE_COLOUR('',#911);
#911 = COLOUR_RGB('',0.313304153717,0.484529207832,0.410020903123);
ENDSEC;
END-ISO-10303-21;
