ISO-10303-21;
HEADER;
FILE_DESCRIPTION(('Open CASCADE Model'),'2;1');
FILE_NAME('Open CASCADE Shape Model','2026-10-05T18:09:41',('Author'),(
    'Open CASCADE'),'Open CASCADE STEP processor 7.9','Open CASCADE 7.9'
  ,'Unknown');
FILE_SCHEMA(('AUTOMOTIVE_DESIGN { 1 0 10303 214 1 1 1 1 }'));
ENDSEC;
DATA;
#1 = APPLICATION_PROTOCOL_DEFINITION('international standard',
  'automotive_design',2000,#2);
#2 = APPLICATION_CONTEXT(
  'core data for automotive mechanical design processes');
#3 = SHAPE_DEFINITION_REPRESENTATION(#4,#10);
#4 = PRODUCT_DEFINITION_SHAPE('','',#5);
#5 = PRODUCT_DEFINITION('design','',#6,#9);
#6 = PRODUCT_DEFINITION_FORMATION('','',#7);
#7 = PRODUCT('Open CASCADE STEP translator 7.9 13',
  'Open CASCADE STEP translator 7.9 13','',(#8));
#8 = PRODUCT_CONTEXT('',#2,'mechanical');
#9 = PRODUCT_DEFINITION_CONTEXT('part definition',#2,'design');
#10 = ADVANCED_BREP_SHAPE_REPRESENTATION('',(#11,#15),#935);
#11 = AXIS2_PLACEMENT_3D('',#12,#13,#14);
#12 = CARTESIAN_POINT('',(0.,0.,0.));
#13 = DIRECTION('',(0.,0.,1.));
#14 = DIRECTION('',(1.,0.,-0.));
#15 = MANIFOLD_SOLID_BREP('',#16);
#16 = CLOSED_SHELL('',(#17,#190,#264,#309,#699,#744,#793,#872,#881,#908)
  );
#17 = ADVANCED_FACE('',(#18),#32,.F.);
#18 = FACE_BOUND('',#19,.F.);
#19 = EDGE_LOOP('',(#20,#55,#83,#111,#137,#166));
#20 = ORIENTED_EDGE('',*,*,#21,.F.);
#21 = EDGE_CURVE('',#22,#24,#26,.T.);
#22 = VERTEX_POINT('',#23);
#23 = CARTESIAN_POINT('',(-27.,49.5,-98.025));
#24 = VERTEX_POINT('',#25);
#25 = CARTESIAN_POINT('',(-27.,49.5,-91.525));
#26 = SURFACE_CURVE('',#27,(#31,#43),.PCURVE_S1.);
#27 = LINE('',#28,#29);
#28 = CARTESIAN_POINT('',(-27.,49.5,-98.025));
#29 = VECTOR('',#30,1.);
#30 = DIRECTION('',(0.,0.,1.));
#31 = PCURVE('',#32,#37);
#32 = PLANE('',#33);
#33 = AXIS2_PLACEMENT_3D('',#34,#35,#36);
#34 = CARTESIAN_POINT('',(-27.,49.5,-98.025));
#35 = DIRECTION('',(1.,0.,0.));
#36 = DIRECTION('',(0.,0.,1.));
#37 = DEFINITIONAL_REPRESENTATION('',(#38),#42);
#38 = LINE('',#39,#40);
#39 = CARTESIAN_POINT('',(0.,0.));
#40 = VECTOR('',#41,1.);
#41 = DIRECTION('',(1.,0.));
#42 = ( GEOMETRIC_REPRESENTATION_CONTEXT(2) 
PARAMETRIC_REPRESENTATION_CONTEXT() REPRESENTATION_CONTEXT('2D SPACE',''
  ) );
#43 = PCURVE('',#44,#49);
#44 = PLANE('',#45);
#45 = AXIS2_PLACEMENT_3D('',#46,#47,#48);
#46 = CARTESIAN_POINT('',(-27.,49.5,-98.025));
#47 = DIRECTION('',(0.,1.,0.));
#48 = DIRECTION('',(0.,0.,1.));
#49 = DEFINITIONAL_REPRESENTATION('',(#50),#54);
#50 = LINE('',#51,#52);
#51 = CARTESIAN_POINT('',(0.,0.));
#52 = VECTOR('',#53,1.);
#53 = DIRECTION('',(1.,0.));
#54 = ( GEOMETRIC_REPRESENTATION_CONTEXT(2) 
PARAMETRIC_REPRESENTATION_CONTEXT() REPRESENTATION_CONTEXT('2D SPACE',''
  ) );
#55 = ORIENTED_EDGE('',*,*,#56,.T.);
#56 = EDGE_CURVE('',#22,#57,#59,.T.);
#57 = VERTEX_POINT('',#58);
#58 = CARTESIAN_POINT('',(-27.,58.5,-98.025));
#59 = SURFACE_CURVE('',#60,(#64,#71),.PCURVE_S1.);
#60 = LINE('',#61,#62);
#61 = CARTESIAN_POINT('',(-27.,49.5,-98.025));
#62 = VECTOR('',#63,1.);
#63 = DIRECTION('',(0.,1.,0.));
#64 = PCURVE('',#32,#65);
#65 = DEFINITIONAL_REPRESENTATION('',(#66),#70);
#66 = LINE('',#67,#68);
#67 = CARTESIAN_POINT('',(0.,0.));
#68 = VECTOR('',#69,1.);
#69 = DIRECTION('',(0.,-1.));
#70 = ( GEOMETRIC_REPRESENTATION_CONTEXT(2) 
PARAMETRIC_REPRESENTATION_CONTEXT() REPRESENTATION_CONTEXT('2D SPACE',''
  ) );
#71 = PCURVE('',#72,#77);
#72 = PLANE('',#73);
#73 = AXIS2_PLACEMENT_3D('',#74,#75,#76);
#74 = CARTESIAN_POINT('',(-27.,49.5,-98.025));
#75 = DIRECTION('',(0.,0.,1.));
#76 = DIRECTION('',(1.,0.,0.));
#77 = DEFINITIONAL_REPRESENTATION('',(#78),#82);
#78 = LINE('',#79,#80);
#79 = CARTESIAN_POINT('',(0.,0.));
#80 = VECTOR('',#81,1.);
#81 = DIRECTION('',(0.,1.));
#82 = ( GEOMETRIC_REPRESENTATION_CONTEXT(2) 
PARAMETRIC_REPRESENTATION_CONTEXT() REPRESENTATION_CONTEXT('2D SPACE',''
  ) );
#83 = ORIENTED_EDGE('',*,*,#84,.T.);
#84 = EDGE_CURVE('',#57,#85,#87,.T.);
#85 = VERTEX_POINT('',#86);
#86 = CARTESIAN_POINT('',(-27.,58.5,-91.525));
#87 = SURFACE_CURVE('',#88,(#92,#99),.PCURVE_S1.);
#88 = LINE('',#89,#90);
#89 = CARTESIAN_POINT('',(-27.,58.5,-98.025));
#90 = VECTOR('',#91,1.);
#91 = DIRECTION('',(0.,0.,1.));
#92 = PCURVE('',#32,#93);
#93 = DEFINITIONAL_REPRESENTATION('',(#94),#98);
#94 = LINE('',#95,#96);
#95 = CARTESIAN_POINT('',(0.,-9.));
#96 = VECTOR('',#97,1.);
#97 = DIRECTION('',(1.,0.));
#98 = ( GEOMETRIC_REPRESENTATION_CONTEXT(2) 
PARAMETRIC_REPRESENTATION_CONTEXT() REPRESENTATION_CONTEXT('2D SPACE',''
  ) );
#99 = PCURVE('',#100,#105);
#100 = PLANE('',#101);
#101 = AXIS2_PLACEMENT_3D('',#102,#103,#104);
#102 = CARTESIAN_POINT('',(-27.,58.5,-98.025));
#103 = DIRECTION('',(0.,1.,0.));
#104 = DIRECTION('',(0.,0.,1.));
#105 = DEFINITIONAL_REPRESENTATION('',(#106),#110);
#106 = LINE('',#107,#108);
#107 = CARTESIAN_POINT('',(0.,0.));
#108 = VECTOR('',#109,1.);
#109 = DIRECTION('',(1.,0.));
#110 = ( GEOMETRIC_REPRESENTATION_CONTEXT(2) 
PARAMETRIC_REPRESENTATION_CONTEXT() REPRESENTATION_CONTEXT('2D SPACE',''
  ) );
#111 = ORIENTED_EDGE('',*,*,#112,.T.);
#112 = EDGE_CURVE('',#85,#113,#115,.T.);
#113 = VERTEX_POINT('',#114);
#114 = CARTESIAN_POINT('',(-27.,57.785520573927,-91.525));
#115 = SURFACE_CURVE('',#116,(#120,#126),.PCURVE_S1.);
#116 = LINE('',#117,#118);
#117 = CARTESIAN_POINT('',(-27.,49.,-91.525));
#118 = VECTOR('',#119,1.);
#119 = DIRECTION('',(0.,-1.,0.));
#120 = PCURVE('',#32,#121);
#121 = DEFINITIONAL_REPRESENTATION('',(#122),#125);
#122 = B_SPLINE_CURVE_WITH_KNOTS('',1,(#123,#124),.UNSPECIFIED.,.F.,.F.,
  (2,2),(-9.5,-0.5),.PIECEWISE_BEZIER_KNOTS.);
#123 = CARTESIAN_POINT('',(6.5,-9.));
#124 = CARTESIAN_POINT('',(6.5,0.));
#125 = ( GEOMETRIC_REPRESENTATION_CONTEXT(2) 
PARAMETRIC_REPRESENTATION_CONTEXT() REPRESENTATION_CONTEXT('2D SPACE',''
  ) );
#126 = PCURVE('',#127,#132);
#127 = PLANE('',#128);
#128 = AXIS2_PLACEMENT_3D('',#129,#130,#131);
#129 = CARTESIAN_POINT('',(-28.,48.5,-91.525));
#130 = DIRECTION('',(0.,0.,1.));
#131 = DIRECTION('',(1.,0.,0.));
#132 = DEFINITIONAL_REPRESENTATION('',(#133),#136);
#133 = B_SPLINE_CURVE_WITH_KNOTS('',1,(#134,#135),.UNSPECIFIED.,.F.,.F.,
  (2,2),(-9.5,-0.5),.PIECEWISE_BEZIER_KNOTS.);
#134 = CARTESIAN_POINT('',(1.,10.));
#135 = CARTESIAN_POINT('',(1.,1.));
#136 = ( GEOMETRIC_REPRESENTATION_CONTEXT(2) 
PARAMETRIC_REPRESENTATION_CONTEXT() REPRESENTATION_CONTEXT('2D SPACE',''
  ) );
#137 = ORIENTED_EDGE('',*,*,#138,.F.);
#138 = EDGE_CURVE('',#139,#113,#141,.T.);
#139 = VERTEX_POINT('',#140);
#140 = CARTESIAN_POINT('',(-27.,50.214479426073,-91.525));
#141 = SURFACE_CURVE('',#142,(#147,#154),.PCURVE_S1.);
#142 = CIRCLE('',#143,4.071875);
#143 = AXIS2_PLACEMENT_3D('',#144,#145,#146);
#144 = CARTESIAN_POINT('',(-27.,54.,-93.025));
#145 = DIRECTION('',(1.,0.,0.));
#146 = DIRECTION('',(-0.,0.,1.));
#147 = PCURVE('',#32,#148);
#148 = DEFINITIONAL_REPRESENTATION('',(#149),#153);
#149 = CIRCLE('',#150,4.071875);
#150 = AXIS2_PLACEMENT_2D('',#151,#152);
#151 = CARTESIAN_POINT('',(5.,-4.5));
#152 = DIRECTION('',(1.,0.));
#153 = ( GEOMETRIC_REPRESENTATION_CONTEXT(2) 
PARAMETRIC_REPRESENTATION_CONTEXT() REPRESENTATION_CONTEXT('2D SPACE',''
  ) );
#154 = PCURVE('',#155,#160);
#155 = CYLINDRICAL_SURFACE('',#156,4.071875);
#156 = AXIS2_PLACEMENT_3D('',#157,#158,#159);
#157 = CARTESIAN_POINT('',(-29.,54.,-93.025));
#158 = DIRECTION('',(1.,0.,0.));
#159 = DIRECTION('',(-0.,0.,1.));
#160 = DEFINITIONAL_REPRESENTATION('',(#161),#165);
#161 = LINE('',#162,#163);
#162 = CARTESIAN_POINT('',(0.,2.));
#163 = VECTOR('',#164,1.);
#164 = DIRECTION('',(1.,0.));
#165 = ( GEOMETRIC_REPRESENTATION_CONTEXT(2) 
PARAMETRIC_REPRESENTATION_CONTEXT() REPRESENTATION_CONTEXT('2D SPACE',''
  ) );
#166 = ORIENTED_EDGE('',*,*,#167,.T.);
#167 = EDGE_CURVE('',#139,#24,#168,.T.);
#168 = SURFACE_CURVE('',#169,(#173,#179),.PCURVE_S1.);
#169 = LINE('',#170,#171);
#170 = CARTESIAN_POINT('',(-27.,49.,-91.525));
#171 = VECTOR('',#172,1.);
#172 = DIRECTION('',(0.,-1.,0.));
#173 = PCURVE('',#32,#174);
#174 = DEFINITIONAL_REPRESENTATION('',(#175),#178);
#175 = B_SPLINE_CURVE_WITH_KNOTS('',1,(#176,#177),.UNSPECIFIED.,.F.,.F.,
  (2,2),(-9.5,-0.5),.PIECEWISE_BEZIER_KNOTS.);
#176 = CARTESIAN_POINT('',(6.5,-9.));
#177 = CARTESIAN_POINT('',(6.5,0.));
#178 = ( GEOMETRIC_REPRESENTATION_CONTEXT(2) 
PARAMETRIC_REPRESENTATION_CONTEXT() REPRESENTATION_CONTEXT('2D SPACE',''
  ) );
#179 = PCURVE('',#180,#185);
#180 = PLANE('',#181);
#181 = AXIS2_PLACEMENT_3D('',#182,#183,#184);
#182 = CARTESIAN_POINT('',(-28.,48.5,-91.525));
#183 = DIRECTION('',(0.,0.,1.));
#184 = DIRECTION('',(1.,0.,0.));
#185 = DEFINITIONAL_REPRESENTATION('',(#186),#189);
#186 = B_SPLINE_CURVE_WITH_KNOTS('',1,(#187,#188),.UNSPECIFIED.,.F.,.F.,
  (2,2),(-9.5,-0.5),.PIECEWISE_BEZIER_KNOTS.);
#187 = CARTESIAN_POINT('',(1.,10.));
#188 = CARTESIAN_POINT('',(1.,1.));
#189 = ( GEOMETRIC_REPRESENTATION_CONTEXT(2) 
PARAMETRIC_REPRESENTATION_CONTEXT() REPRESENTATION_CONTEXT('2D SPACE',''
  ) );
#190 = ADVANCED_FACE('',(#191),#44,.F.);
#191 = FACE_BOUND('',#192,.F.);
#192 = EDGE_LOOP('',(#193,#223,#244,#245));
#193 = ORIENTED_EDGE('',*,*,#194,.F.);
#194 = EDGE_CURVE('',#195,#197,#199,.T.);
#195 = VERTEX_POINT('',#196);
#196 = CARTESIAN_POINT('',(-13.,49.5,-98.025));
#197 = VERTEX_POINT('',#198);
#198 = CARTESIAN_POINT('',(-13.,49.5,-91.525));
#199 = SURFACE_CURVE('',#200,(#204,#211),.PCURVE_S1.);
#200 = LINE('',#201,#202);
#201 = CARTESIAN_POINT('',(-13.,49.5,-98.025));
#202 = VECTOR('',#203,1.);
#203 = DIRECTION('',(0.,0.,1.));
#204 = PCURVE('',#44,#205);
#205 = DEFINITIONAL_REPRESENTATION('',(#206),#210);
#206 = LINE('',#207,#208);
#207 = CARTESIAN_POINT('',(0.,14.));
#208 = VECTOR('',#209,1.);
#209 = DIRECTION('',(1.,0.));
#210 = ( GEOMETRIC_REPRESENTATION_CONTEXT(2) 
PARAMETRIC_REPRESENTATION_CONTEXT() REPRESENTATION_CONTEXT('2D SPACE',''
  ) );
#211 = PCURVE('',#212,#217);
#212 = PLANE('',#213);
#213 = AXIS2_PLACEMENT_3D('',#214,#215,#216);
#214 = CARTESIAN_POINT('',(-13.,49.5,-98.025));
#215 = DIRECTION('',(1.,0.,0.));
#216 = DIRECTION('',(0.,0.,1.));
#217 = DEFINITIONAL_REPRESENTATION('',(#218),#222);
#218 = LINE('',#219,#220);
#219 = CARTESIAN_POINT('',(0.,0.));
#220 = VECTOR('',#221,1.);
#221 = DIRECTION('',(1.,0.));
#222 = ( GEOMETRIC_REPRESENTATION_CONTEXT(2) 
PARAMETRIC_REPRESENTATION_CONTEXT() REPRESENTATION_CONTEXT('2D SPACE',''
  ) );
#223 = ORIENTED_EDGE('',*,*,#224,.F.);
#224 = EDGE_CURVE('',#22,#195,#225,.T.);
#225 = SURFACE_CURVE('',#226,(#230,#237),.PCURVE_S1.);
#226 = LINE('',#227,#228);
#227 = CARTESIAN_POINT('',(-27.,49.5,-98.025));
#228 = VECTOR('',#229,1.);
#229 = DIRECTION('',(1.,0.,0.));
#230 = PCURVE('',#44,#231);
#231 = DEFINITIONAL_REPRESENTATION('',(#232),#236);
#232 = LINE('',#233,#234);
#233 = CARTESIAN_POINT('',(0.,0.));
#234 = VECTOR('',#235,1.);
#235 = DIRECTION('',(0.,1.));
#236 = ( GEOMETRIC_REPRESENTATION_CONTEXT(2) 
PARAMETRIC_REPRESENTATION_CONTEXT() REPRESENTATION_CONTEXT('2D SPACE',''
  ) );
#237 = PCURVE('',#72,#238);
#238 = DEFINITIONAL_REPRESENTATION('',(#239),#243);
#239 = LINE('',#240,#241);
#240 = CARTESIAN_POINT('',(0.,0.));
#241 = VECTOR('',#242,1.);
#242 = DIRECTION('',(1.,0.));
#243 = ( GEOMETRIC_REPRESENTATION_CONTEXT(2) 
PARAMETRIC_REPRESENTATION_CONTEXT() REPRESENTATION_CONTEXT('2D SPACE',''
  ) );
#244 = ORIENTED_EDGE('',*,*,#21,.T.);
#245 = ORIENTED_EDGE('',*,*,#246,.T.);
#246 = EDGE_CURVE('',#24,#197,#247,.T.);
#247 = SURFACE_CURVE('',#248,(#252,#258),.PCURVE_S1.);
#248 = LINE('',#249,#250);
#249 = CARTESIAN_POINT('',(-27.5,49.5,-91.525));
#250 = VECTOR('',#251,1.);
#251 = DIRECTION('',(1.,0.,0.));
#252 = PCURVE('',#44,#253);
#253 = DEFINITIONAL_REPRESENTATION('',(#254),#257);
#254 = B_SPLINE_CURVE_WITH_KNOTS('',1,(#255,#256),.UNSPECIFIED.,.F.,.F.,
  (2,2),(0.5,14.5),.PIECEWISE_BEZIER_KNOTS.);
#255 = CARTESIAN_POINT('',(6.5,0.));
#256 = CARTESIAN_POINT('',(6.5,14.));
#257 = ( GEOMETRIC_REPRESENTATION_CONTEXT(2) 
PARAMETRIC_REPRESENTATION_CONTEXT() REPRESENTATION_CONTEXT('2D SPACE',''
  ) );
#258 = PCURVE('',#180,#259);
#259 = DEFINITIONAL_REPRESENTATION('',(#260),#263);
#260 = B_SPLINE_CURVE_WITH_KNOTS('',1,(#261,#262),.UNSPECIFIED.,.F.,.F.,
  (2,2),(0.5,14.5),.PIECEWISE_BEZIER_KNOTS.);
#261 = CARTESIAN_POINT('',(1.,1.));
#262 = CARTESIAN_POINT('',(15.,1.));
#263 = ( GEOMETRIC_REPRESENTATION_CONTEXT(2) 
PARAMETRIC_REPRESENTATION_CONTEXT() REPRESENTATION_CONTEXT('2D SPACE',''
  ) );
#264 = ADVANCED_FACE('',(#265),#180,.T.);
#265 = FACE_BOUND('',#266,.T.);
#266 = EDGE_LOOP('',(#267,#288,#289,#290));
#267 = ORIENTED_EDGE('',*,*,#268,.F.);
#268 = EDGE_CURVE('',#139,#269,#271,.T.);
#269 = VERTEX_POINT('',#270);
#270 = CARTESIAN_POINT('',(-13.,50.214479426073,-91.525));
#271 = SURFACE_CURVE('',#272,(#276,#282),.PCURVE_S1.);
#272 = LINE('',#273,#274);
#273 = CARTESIAN_POINT('',(-29.,50.214479426073,-91.525));
#274 = VECTOR('',#275,1.);
#275 = DIRECTION('',(1.,0.,0.));
#276 = PCURVE('',#180,#277);
#277 = DEFINITIONAL_REPRESENTATION('',(#278),#281);
#278 = B_SPLINE_CURVE_WITH_KNOTS('',1,(#279,#280),.UNSPECIFIED.,.F.,.F.,
  (2,2),(1.9999994,16.0000006),.PIECEWISE_BEZIER_KNOTS.);
#279 = CARTESIAN_POINT('',(0.9999994,1.714479426073));
#280 = CARTESIAN_POINT('',(15.0000006,1.714479426073));
#281 = ( GEOMETRIC_REPRESENTATION_CONTEXT(2) 
PARAMETRIC_REPRESENTATION_CONTEXT() REPRESENTATION_CONTEXT('2D SPACE',''
  ) );
#282 = PCURVE('',#155,#283);
#283 = DEFINITIONAL_REPRESENTATION('',(#284),#287);
#284 = B_SPLINE_CURVE_WITH_KNOTS('',1,(#285,#286),.UNSPECIFIED.,.F.,.F.,
  (2,2),(1.9999994,16.0000006),.PIECEWISE_BEZIER_KNOTS.);
#285 = CARTESIAN_POINT('',(1.193529742911,1.9999994));
#286 = CARTESIAN_POINT('',(1.193529742911,16.0000006));
#287 = ( GEOMETRIC_REPRESENTATION_CONTEXT(2) 
PARAMETRIC_REPRESENTATION_CONTEXT() REPRESENTATION_CONTEXT('2D SPACE',''
  ) );
#288 = ORIENTED_EDGE('',*,*,#167,.T.);
#289 = ORIENTED_EDGE('',*,*,#246,.T.);
#290 = ORIENTED_EDGE('',*,*,#291,.F.);
#291 = EDGE_CURVE('',#269,#197,#292,.T.);
#292 = SURFACE_CURVE('',#293,(#297,#303),.PCURVE_S1.);
#293 = LINE('',#294,#295);
#294 = CARTESIAN_POINT('',(-13.,49.,-91.525));
#295 = VECTOR('',#296,1.);
#296 = DIRECTION('',(0.,-1.,0.));
#297 = PCURVE('',#180,#298);
#298 = DEFINITIONAL_REPRESENTATION('',(#299),#302);
#299 = B_SPLINE_CURVE_WITH_KNOTS('',1,(#300,#301),.UNSPECIFIED.,.F.,.F.,
  (2,2),(-9.5,-0.5),.PIECEWISE_BEZIER_KNOTS.);
#300 = CARTESIAN_POINT('',(15.,10.));
#301 = CARTESIAN_POINT('',(15.,1.));
#302 = ( GEOMETRIC_REPRESENTATION_CONTEXT(2) 
PARAMETRIC_REPRESENTATION_CONTEXT() REPRESENTATION_CONTEXT('2D SPACE',''
  ) );
#303 = PCURVE('',#212,#304);
#304 = DEFINITIONAL_REPRESENTATION('',(#305),#308);
#305 = B_SPLINE_CURVE_WITH_KNOTS('',1,(#306,#307),.UNSPECIFIED.,.F.,.F.,
  (2,2),(-9.5,-0.5),.PIECEWISE_BEZIER_KNOTS.);
#306 = CARTESIAN_POINT('',(6.5,-9.));
#307 = CARTESIAN_POINT('',(6.5,0.));
#308 = ( GEOMETRIC_REPRESENTATION_CONTEXT(2) 
PARAMETRIC_REPRESENTATION_CONTEXT() REPRESENTATION_CONTEXT('2D SPACE',''
  ) );
#309 = ADVANCED_FACE('',(#310,#357,#528),#155,.F.);
#310 = FACE_BOUND('',#311,.F.);
#311 = EDGE_LOOP('',(#312,#336,#337,#338));
#312 = ORIENTED_EDGE('',*,*,#313,.F.);
#313 = EDGE_CURVE('',#269,#314,#316,.T.);
#314 = VERTEX_POINT('',#315);
#315 = CARTESIAN_POINT('',(-13.,57.785520573927,-91.525));
#316 = SURFACE_CURVE('',#317,(#322,#329),.PCURVE_S1.);
#317 = CIRCLE('',#318,4.071875);
#318 = AXIS2_PLACEMENT_3D('',#319,#320,#321);
#319 = CARTESIAN_POINT('',(-13.,54.,-93.025));
#320 = DIRECTION('',(1.,0.,0.));
#321 = DIRECTION('',(-0.,0.,1.));
#322 = PCURVE('',#155,#323);
#323 = DEFINITIONAL_REPRESENTATION('',(#324),#328);
#324 = LINE('',#325,#326);
#325 = CARTESIAN_POINT('',(0.,16.));
#326 = VECTOR('',#327,1.);
#327 = DIRECTION('',(1.,0.));
#328 = ( GEOMETRIC_REPRESENTATION_CONTEXT(2) 
PARAMETRIC_REPRESENTATION_CONTEXT() REPRESENTATION_CONTEXT('2D SPACE',''
  ) );
#329 = PCURVE('',#212,#330);
#330 = DEFINITIONAL_REPRESENTATION('',(#331),#335);
#331 = CIRCLE('',#332,4.071875);
#332 = AXIS2_PLACEMENT_2D('',#333,#334);
#333 = CARTESIAN_POINT('',(5.,-4.5));
#334 = DIRECTION('',(1.,0.));
#335 = ( GEOMETRIC_REPRESENTATION_CONTEXT(2) 
PARAMETRIC_REPRESENTATION_CONTEXT() REPRESENTATION_CONTEXT('2D SPACE',''
  ) );
#336 = ORIENTED_EDGE('',*,*,#268,.F.);
#337 = ORIENTED_EDGE('',*,*,#138,.T.);
#338 = ORIENTED_EDGE('',*,*,#339,.T.);
#339 = EDGE_CURVE('',#113,#314,#340,.T.);
#340 = SURFACE_CURVE('',#341,(#345,#351),.PCURVE_S1.);
#341 = LINE('',#342,#343);
#342 = CARTESIAN_POINT('',(-29.,57.785520573927,-91.525));
#343 = VECTOR('',#344,1.);
#344 = DIRECTION('',(1.,0.,0.));
#345 = PCURVE('',#155,#346);
#346 = DEFINITIONAL_REPRESENTATION('',(#347),#350);
#347 = B_SPLINE_CURVE_WITH_KNOTS('',1,(#348,#349),.UNSPECIFIED.,.F.,.F.,
  (2,2),(1.9999994,16.0000006),.PIECEWISE_BEZIER_KNOTS.);
#348 = CARTESIAN_POINT('',(5.089655564268,1.9999994));
#349 = CARTESIAN_POINT('',(5.089655564268,16.0000006));
#350 = ( GEOMETRIC_REPRESENTATION_CONTEXT(2) 
PARAMETRIC_REPRESENTATION_CONTEXT() REPRESENTATION_CONTEXT('2D SPACE',''
  ) );
#351 = PCURVE('',#127,#352);
#352 = DEFINITIONAL_REPRESENTATION('',(#353),#356);
#353 = B_SPLINE_CURVE_WITH_KNOTS('',1,(#354,#355),.UNSPECIFIED.,.F.,.F.,
  (2,2),(1.9999994,16.0000006),.PIECEWISE_BEZIER_KNOTS.);
#354 = CARTESIAN_POINT('',(0.9999994,9.285520573927));
#355 = CARTESIAN_POINT('',(15.0000006,9.285520573927));
#356 = ( GEOMETRIC_REPRESENTATION_CONTEXT(2) 
PARAMETRIC_REPRESENTATION_CONTEXT() REPRESENTATION_CONTEXT('2D SPACE',''
  ) );
#357 = FACE_BOUND('',#358,.F.);
#358 = EDGE_LOOP('',(#359));
#359 = ORIENTED_EDGE('',*,*,#360,.T.);
#360 = EDGE_CURVE('',#361,#361,#363,.T.);
#361 = VERTEX_POINT('',#362);
#362 = CARTESIAN_POINT('',(-24.4,54.,-97.096875));
#363 = SURFACE_CURVE('',#364,(#415,#469),.PCURVE_S1.);
#364 = B_SPLINE_CURVE_WITH_KNOTS('',7,(#365,#366,#367,#368,#369,#370,
    #371,#372,#373,#374,#375,#376,#377,#378,#379,#380,#381,#382,#383,
    #384,#385,#386,#387,#388,#389,#390,#391,#392,#393,#394,#395,#396,
    #397,#398,#399,#400,#401,#402,#403,#404,#405,#406,#407,#408,#409,
    #410,#411,#412,#413,#414),.UNSPECIFIED.,.T.,.F.,(8,6,6,6,6,6,6,6,8),
  (0.,0.121542949597,0.249989755667,0.378435472281,0.499969843389,
    0.62152568897,0.749996927078,0.878461339985,1.),.UNSPECIFIED.);
#365 = CARTESIAN_POINT('',(-24.4,54.,-97.096875));
#366 = CARTESIAN_POINT('',(-24.4,54.136211778028,-97.096875));
#367 = CARTESIAN_POINT('',(-24.41967801396,54.270197953705,
    -97.09155880938));
#368 = CARTESIAN_POINT('',(-24.45787722163,54.398519515046,
    -97.08124077974));
#369 = CARTESIAN_POINT('',(-24.51270317239,54.518073083352,
    -97.06698179114));
#370 = CARTESIAN_POINT('',(-24.58153665312,54.626241326418,
    -97.05043277485));
#371 = CARTESIAN_POINT('',(-24.66100728071,54.721114657541,
    -97.03335919572));
#372 = CARTESIAN_POINT('',(-24.83787352299,54.887203114207,
    -96.99999848729));
#373 = CARTESIAN_POINT('',(-24.93769703999,54.958332757919,
    -96.98349719019));
#374 = CARTESIAN_POINT('',(-25.04408722077,55.015108609682,
    -96.96895209683));
#375 = CARTESIAN_POINT('',(-25.15509824625,55.057581321569,
    -96.95738204635));
#376 = CARTESIAN_POINT('',(-25.2690638579,55.085851825809,
    -96.94944999797));
#377 = CARTESIAN_POINT('',(-25.38450210344,55.1,-96.9454803297));
#378 = CARTESIAN_POINT('',(-25.61549691692,55.1,-96.9454803297));
#379 = CARTESIAN_POINT('',(-25.73093195472,55.085852071304,
    -96.94944993051));
#380 = CARTESIAN_POINT('',(-25.84489730921,55.057583011938,
    -96.95738156567));
#381 = CARTESIAN_POINT('',(-25.95591232603,55.015110220151,
    -96.96895167318));
#382 = CARTESIAN_POINT('',(-26.0623077521,54.958331130115,
    -96.98349780074));
#383 = CARTESIAN_POINT('',(-26.16213226869,54.887197675451,
    -96.99999957973));
#384 = CARTESIAN_POINT('',(-26.33898189931,54.721124818169,
    -97.03335715485));
#385 = CARTESIAN_POINT('',(-26.41845711274,54.62625228421,
    -97.05043106973));
#386 = CARTESIAN_POINT('',(-26.48730009045,54.518074749553,
    -97.06698227855));
#387 = CARTESIAN_POINT('',(-26.54213174973,54.398506090788,
    -97.08124319707));
#388 = CARTESIAN_POINT('',(-26.58032893851,54.270172279034,
    -97.09156069194));
#389 = CARTESIAN_POINT('',(-26.6,54.136187714389,-97.096875));
#390 = CARTESIAN_POINT('',(-26.6,53.863788221972,-97.096875));
#391 = CARTESIAN_POINT('',(-26.58032198603,53.729802046295,
    -97.09155880938));
#392 = CARTESIAN_POINT('',(-26.54212277836,53.601480484954,
    -97.08124077974));
#393 = CARTESIAN_POINT('',(-26.4872968276,53.481926916648,
    -97.06698179114));
#394 = CARTESIAN_POINT('',(-26.41846334687,53.373758673582,
    -97.05043277485));
#395 = CARTESIAN_POINT('',(-26.33899271928,53.278885342459,
    -97.03335919572));
#396 = CARTESIAN_POINT('',(-26.16211883437,53.112789708887,
    -96.99999704573));
#397 = CARTESIAN_POINT('',(-26.06229462877,53.041663222339,
    -96.98349600847));
#398 = CARTESIAN_POINT('',(-25.95590976806,52.984891871303,
    -96.96895215142));
#399 = CARTESIAN_POINT('',(-25.84490517099,52.942420863224,
    -96.95738266713));
#400 = CARTESIAN_POINT('',(-25.7309427914,52.914149432928,
    -96.94945034933));
#401 = CARTESIAN_POINT('',(-25.61550305317,52.9,-96.9454803297));
#402 = CARTESIAN_POINT('',(-25.38450308307,52.9,-96.9454803297));
#403 = CARTESIAN_POINT('',(-25.26906804527,52.914147928696,
    -96.94944993051));
#404 = CARTESIAN_POINT('',(-25.15510269078,52.942416988062,
    -96.95738156567));
#405 = CARTESIAN_POINT('',(-25.04408767396,52.984889779849,
    -96.96895167318));
#406 = CARTESIAN_POINT('',(-24.93769224789,53.041668869885,
    -96.98349780074));
#407 = CARTESIAN_POINT('',(-24.8378677313,53.112802324549,
    -96.99999957973));
#408 = CARTESIAN_POINT('',(-24.66102758018,53.278866279993,
    -97.03335536681));
#409 = CARTESIAN_POINT('',(-24.581544772,53.373741481917,-97.05043025474
    ));
#410 = CARTESIAN_POINT('',(-24.5126938588,53.481929800641,
    -97.06698361216));
#411 = CARTESIAN_POINT('',(-24.45785999868,53.601510040952,
    -97.08124544374));
#412 = CARTESIAN_POINT('',(-24.41966609149,53.729849603995,
    -97.09156202763));
#413 = CARTESIAN_POINT('',(-24.4,53.863829484759,-97.096875));
#414 = CARTESIAN_POINT('',(-24.4,54.,-97.096875));
#415 = PCURVE('',#155,#416);
#416 = DEFINITIONAL_REPRESENTATION('',(#417),#468);
#417 = B_SPLINE_CURVE_WITH_KNOTS('',7,(#418,#419,#420,#421,#422,#423,
    #424,#425,#426,#427,#428,#429,#430,#431,#432,#433,#434,#435,#436,
    #437,#438,#439,#440,#441,#442,#443,#444,#445,#446,#447,#448,#449,
    #450,#451,#452,#453,#454,#455,#456,#457,#458,#459,#460,#461,#462,
    #463,#464,#465,#466,#467),.UNSPECIFIED.,.T.,.F.,(8,6,6,6,6,6,6,6,8),
  (0.,0.121542949597,0.249989755667,0.378435472281,0.499969843389,
    0.62152568897,0.749996927078,0.878461339985,1.),.UNSPECIFIED.);
#418 = CARTESIAN_POINT('',(3.14159265359,4.6));
#419 = CARTESIAN_POINT('',(3.175044510051,4.6));
#420 = CARTESIAN_POINT('',(3.207949839228,4.580321986034));
#421 = CARTESIAN_POINT('',(3.239524824444,4.542122778368));
#422 = CARTESIAN_POINT('',(3.26906083348,4.487296827607));
#423 = CARTESIAN_POINT('',(3.295919494249,4.418463346874));
#424 = CARTESIAN_POINT('',(3.319588589579,4.338992719281));
#425 = CARTESIAN_POINT('',(3.3611924606,4.162126477005));
#426 = CARTESIAN_POINT('',(3.379116959271,4.062302960005));
#427 = CARTESIAN_POINT('',(3.393506772988,3.955912779229));
#428 = CARTESIAN_POINT('',(3.404317390135,3.844901753747));
#429 = CARTESIAN_POINT('',(3.411528338597,3.730936142097));
#430 = CARTESIAN_POINT('',(3.41513713012,3.615497896551));
#431 = CARTESIAN_POINT('',(3.41513713012,3.384503083075));
#432 = CARTESIAN_POINT('',(3.411528400297,3.269068045279));
#433 = CARTESIAN_POINT('',(3.404317823973,3.155102690788));
#434 = CARTESIAN_POINT('',(3.393507178619,3.044087673962));
#435 = CARTESIAN_POINT('',(3.379116537834,2.937692247891));
#436 = CARTESIAN_POINT('',(3.361191098234,2.837867731308));
#437 = CARTESIAN_POINT('',(3.319591134738,2.661018100689));
#438 = CARTESIAN_POINT('',(3.295922216246,2.581542887259));
#439 = CARTESIAN_POINT('',(3.269061212028,2.512699909544));
#440 = CARTESIAN_POINT('',(3.239521494716,2.457868250261));
#441 = CARTESIAN_POINT('',(3.207943533359,2.419671061488));
#442 = CARTESIAN_POINT('',(3.175038600331,2.4));
#443 = CARTESIAN_POINT('',(3.108140797129,2.4));
#444 = CARTESIAN_POINT('',(3.075235467951,2.419678013967));
#445 = CARTESIAN_POINT('',(3.043660482736,2.457877221632));
#446 = CARTESIAN_POINT('',(3.0141244737,2.512703172394));
#447 = CARTESIAN_POINT('',(2.98726581293,2.581536653126));
#448 = CARTESIAN_POINT('',(2.9635967176,2.661007280719));
#449 = CARTESIAN_POINT('',(2.92199104882,2.837881165624));
#450 = CARTESIAN_POINT('',(2.904067322433,2.937705371228));
#451 = CARTESIAN_POINT('',(2.889678650315,3.044090231938));
#452 = CARTESIAN_POINT('',(2.878868474848,3.155094829009));
#453 = CARTESIAN_POINT('',(2.871657289709,3.269057208599));
#454 = CARTESIAN_POINT('',(2.86804817706,3.384496946824));
#455 = CARTESIAN_POINT('',(2.86804817706,3.615496916925));
#456 = CARTESIAN_POINT('',(2.871656906883,3.730931954721));
#457 = CARTESIAN_POINT('',(2.878867483207,3.844897309213));
#458 = CARTESIAN_POINT('',(2.88967812856,3.955912326038));
#459 = CARTESIAN_POINT('',(2.904068769346,4.062307752109));
#460 = CARTESIAN_POINT('',(2.921994208946,4.162132268692));
#461 = CARTESIAN_POINT('',(2.9635919426,4.338972419816));
#462 = CARTESIAN_POINT('',(2.987261550938,4.418455227995));
#463 = CARTESIAN_POINT('',(3.014125249891,4.487306141195));
#464 = CARTESIAN_POINT('',(3.043667800121,4.542140001315));
#465 = CARTESIAN_POINT('',(3.075247146757,4.580333908502));
#466 = CARTESIAN_POINT('',(3.108150930737,4.6));
#467 = CARTESIAN_POINT('',(3.14159265359,4.6));
#468 = ( GEOMETRIC_REPRESENTATION_CONTEXT(2) 
PARAMETRIC_REPRESENTATION_CONTEXT() REPRESENTATION_CONTEXT('2D SPACE',''
  ) );
#469 = PCURVE('',#470,#475);
#470 = CYLINDRICAL_SURFACE('',#471,1.1);
#471 = AXIS2_PLACEMENT_3D('',#472,#473,#474);
#472 = CARTESIAN_POINT('',(-25.5,54.,-98.125));
#473 = DIRECTION('',(0.,0.,1.));
#474 = DIRECTION('',(1.,0.,-0.));
#475 = DEFINITIONAL_REPRESENTATION('',(#476),#527);
#476 = B_SPLINE_CURVE_WITH_KNOTS('',7,(#477,#478,#479,#480,#481,#482,
    #483,#484,#485,#486,#487,#488,#489,#490,#491,#492,#493,#494,#495,
    #496,#497,#498,#499,#500,#501,#502,#503,#504,#505,#506,#507,#508,
    #509,#510,#511,#512,#513,#514,#515,#516,#517,#518,#519,#520,#521,
    #522,#523,#524,#525,#526),.UNSPECIFIED.,.F.,.F.,(8,6,6,6,6,6,6,6,8),
  (0.,0.121542949597,0.249989755667,0.378435472281,0.499969843389,
    0.62152568897,0.749996927078,0.878461339985,1.),.UNSPECIFIED.);
#477 = CARTESIAN_POINT('',(0.,1.028125));
#478 = CARTESIAN_POINT('',(0.123828889116,1.028125));
#479 = CARTESIAN_POINT('',(0.245634456048,1.033441190617));
#480 = CARTESIAN_POINT('',(0.365391882898,1.043759220258));
#481 = CARTESIAN_POINT('',(0.482924558409,1.058018208857));
#482 = CARTESIAN_POINT('',(0.597869263009,1.074567225148));
#483 = CARTESIAN_POINT('',(0.70957552709,1.091640804275));
#484 = CARTESIAN_POINT('',(0.930143994551,1.125001512704));
#485 = CARTESIAN_POINT('',(1.040562048947,1.141502809808));
#486 = CARTESIAN_POINT('',(1.148776275243,1.156047903162));
#487 = CARTESIAN_POINT('',(1.255358471319,1.167617953643));
#488 = CARTESIAN_POINT('',(1.360854416666,1.175550002021));
#489 = CARTESIAN_POINT('',(1.465798239021,1.179519670292));
#490 = CARTESIAN_POINT('',(1.675793524,1.179519670292));
#491 = CARTESIAN_POINT('',(1.780734430341,1.175550069486));
#492 = CARTESIAN_POINT('',(1.88623007922,1.167618434321));
#493 = CARTESIAN_POINT('',(1.992815499975,1.156048326817));
#494 = CARTESIAN_POINT('',(2.101034800066,1.141502199252));
#495 = CARTESIAN_POINT('',(2.211455881804,1.12500042027));
#496 = CARTESIAN_POINT('',(2.432003633003,1.09164284515));
#497 = CARTESIAN_POINT('',(2.543712443286,1.07456893027));
#498 = CARTESIAN_POINT('',(2.658668444065,1.058017721441));
#499 = CARTESIAN_POINT('',(2.776214598304,1.04375680293));
#500 = CARTESIAN_POINT('',(2.895981542043,1.033439308053));
#501 = CARTESIAN_POINT('',(3.017785640509,1.028125));
#502 = CARTESIAN_POINT('',(3.265421542706,1.028125));
#503 = CARTESIAN_POINT('',(3.387227109638,1.033441190617));
#504 = CARTESIAN_POINT('',(3.506984536487,1.043759220258));
#505 = CARTESIAN_POINT('',(3.624517211999,1.058018208857));
#506 = CARTESIAN_POINT('',(3.739461916599,1.074567225148));
#507 = CARTESIAN_POINT('',(3.851168180679,1.091640804275));
#508 = CARTESIAN_POINT('',(4.071746179202,1.125002954265));
#509 = CARTESIAN_POINT('',(4.182162726228,1.141503991524));
#510 = CARTESIAN_POINT('',(4.29037121829,1.156047848572));
#511 = CARTESIAN_POINT('',(4.396947748343,1.167617332866));
#512 = CARTESIAN_POINT('',(4.502441031697,1.175549650666));
#513 = CARTESIAN_POINT('',(4.60738620477,1.179519670292));
#514 = CARTESIAN_POINT('',(4.817386177589,1.179519670292));
#515 = CARTESIAN_POINT('',(4.922327083931,1.175550069486));
#516 = CARTESIAN_POINT('',(5.027822732809,1.167618434321));
#517 = CARTESIAN_POINT('',(5.134408153565,1.156048326817));
#518 = CARTESIAN_POINT('',(5.242627453655,1.141502199252));
#519 = CARTESIAN_POINT('',(5.353048535394,1.12500042027));
#520 = CARTESIAN_POINT('',(5.573584464791,1.091644633183));
#521 = CARTESIAN_POINT('',(5.685299970236,1.074569745252));
#522 = CARTESIAN_POINT('',(5.800267264446,1.058016387839));
#523 = CARTESIAN_POINT('',(5.917823085849,1.043754556251));
#524 = CARTESIAN_POINT('',(6.0375940908,1.033437972368));
#525 = CARTESIAN_POINT('',(6.159393929688,1.028125));
#526 = CARTESIAN_POINT('',(6.28318530718,1.028125));
#527 = ( GEOMETRIC_REPRESENTATION_CONTEXT(2) 
PARAMETRIC_REPRESENTATION_CONTEXT() REPRESENTATION_CONTEXT('2D SPACE',''
  ) );
#528 = FACE_BOUND('',#529,.F.);
#529 = EDGE_LOOP('',(#530));
#530 = ORIENTED_EDGE('',*,*,#531,.T.);
#531 = EDGE_CURVE('',#532,#532,#534,.T.);
#532 = VERTEX_POINT('',#533);
#533 = CARTESIAN_POINT('',(-13.4,54.,-97.096875));
#534 = SURFACE_CURVE('',#535,(#586,#640),.PCURVE_S1.);
#535 = B_SPLINE_CURVE_WITH_KNOTS('',7,(#536,#537,#538,#539,#540,#541,
    #542,#543,#544,#545,#546,#547,#548,#549,#550,#551,#552,#553,#554,
    #555,#556,#557,#558,#559,#560,#561,#562,#563,#564,#565,#566,#567,
    #568,#569,#570,#571,#572,#573,#574,#575,#576,#577,#578,#579,#580,
    #581,#582,#583,#584,#585),.UNSPECIFIED.,.T.,.F.,(8,6,6,6,6,6,6,6,8),
  (0.,0.121542949597,0.249989755667,0.378435472281,0.499969843389,
    0.621525688969,0.749996927078,0.878461339984,1.),.UNSPECIFIED.);
#536 = CARTESIAN_POINT('',(-13.4,54.,-97.096875));
#537 = CARTESIAN_POINT('',(-13.4,54.136211778028,-97.096875));
#538 = CARTESIAN_POINT('',(-13.41967801396,54.270197953705,
    -97.09155880938));
#539 = CARTESIAN_POINT('',(-13.45787722163,54.398519515046,
    -97.08124077974));
#540 = CARTESIAN_POINT('',(-13.51270317239,54.518073083352,
    -97.06698179114));
#541 = CARTESIAN_POINT('',(-13.58153665312,54.626241326418,
    -97.05043277485));
#542 = CARTESIAN_POINT('',(-13.66100728071,54.721114657541,
    -97.03335919572));
#543 = CARTESIAN_POINT('',(-13.83787352299,54.887203114206,
    -96.99999848729));
#544 = CARTESIAN_POINT('',(-13.93769703999,54.958332757919,
    -96.98349719019));
#545 = CARTESIAN_POINT('',(-14.04408722077,55.015108609682,
    -96.96895209683));
#546 = CARTESIAN_POINT('',(-14.15509824625,55.057581321569,
    -96.95738204635));
#547 = CARTESIAN_POINT('',(-14.2690638579,55.085851825809,
    -96.94944999797));
#548 = CARTESIAN_POINT('',(-14.38450210344,55.1,-96.9454803297));
#549 = CARTESIAN_POINT('',(-14.61549691692,55.1,-96.9454803297));
#550 = CARTESIAN_POINT('',(-14.73093195472,55.085852071304,
    -96.94944993051));
#551 = CARTESIAN_POINT('',(-14.84489730921,55.057583011938,
    -96.95738156567));
#552 = CARTESIAN_POINT('',(-14.95591232603,55.015110220151,
    -96.96895167318));
#553 = CARTESIAN_POINT('',(-15.0623077521,54.958331130115,
    -96.98349780074));
#554 = CARTESIAN_POINT('',(-15.16213226869,54.887197675451,
    -96.99999957973));
#555 = CARTESIAN_POINT('',(-15.33898189931,54.721124818169,
    -97.03335715485));
#556 = CARTESIAN_POINT('',(-15.41845711274,54.626252284209,
    -97.05043106973));
#557 = CARTESIAN_POINT('',(-15.48730009045,54.518074749554,
    -97.06698227855));
#558 = CARTESIAN_POINT('',(-15.54213174973,54.398506090787,
    -97.08124319707));
#559 = CARTESIAN_POINT('',(-15.58032893851,54.270172279035,
    -97.09156069194));
#560 = CARTESIAN_POINT('',(-15.6,54.136187714388,-97.096875));
#561 = CARTESIAN_POINT('',(-15.6,53.863788221972,-97.096875));
#562 = CARTESIAN_POINT('',(-15.58032198603,53.729802046295,
    -97.09155880938));
#563 = CARTESIAN_POINT('',(-15.54212277836,53.601480484954,
    -97.08124077974));
#564 = CARTESIAN_POINT('',(-15.4872968276,53.481926916648,
    -97.06698179114));
#565 = CARTESIAN_POINT('',(-15.41846334687,53.373758673582,
    -97.05043277485));
#566 = CARTESIAN_POINT('',(-15.33899271928,53.278885342459,
    -97.03335919572));
#567 = CARTESIAN_POINT('',(-15.16211883437,53.112789708887,
    -96.99999704573));
#568 = CARTESIAN_POINT('',(-15.06229462877,53.041663222339,
    -96.98349600847));
#569 = CARTESIAN_POINT('',(-14.95590976806,52.984891871303,
    -96.96895215142));
#570 = CARTESIAN_POINT('',(-14.84490517099,52.942420863225,
    -96.95738266713));
#571 = CARTESIAN_POINT('',(-14.7309427914,52.914149432928,
    -96.94945034933));
#572 = CARTESIAN_POINT('',(-14.61550305317,52.9,-96.9454803297));
#573 = CARTESIAN_POINT('',(-14.38450308307,52.9,-96.9454803297));
#574 = CARTESIAN_POINT('',(-14.26906804528,52.914147928696,
    -96.94944993051));
#575 = CARTESIAN_POINT('',(-14.15510269078,52.942416988063,
    -96.95738156567));
#576 = CARTESIAN_POINT('',(-14.04408767396,52.984889779848,
    -96.96895167318));
#577 = CARTESIAN_POINT('',(-13.93769224789,53.041668869885,
    -96.98349780074));
#578 = CARTESIAN_POINT('',(-13.8378677313,53.112802324549,
    -96.99999957973));
#579 = CARTESIAN_POINT('',(-13.66102758018,53.278866279993,
    -97.03335536681));
#580 = CARTESIAN_POINT('',(-13.581544772,53.373741481917,-97.05043025474
    ));
#581 = CARTESIAN_POINT('',(-13.5126938588,53.481929800642,
    -97.06698361216));
#582 = CARTESIAN_POINT('',(-13.45785999868,53.601510040951,
    -97.08124544374));
#583 = CARTESIAN_POINT('',(-13.41966609149,53.729849603995,
    -97.09156202763));
#584 = CARTESIAN_POINT('',(-13.4,53.863829484759,-97.096875));
#585 = CARTESIAN_POINT('',(-13.4,54.,-97.096875));
#586 = PCURVE('',#155,#587);
#587 = DEFINITIONAL_REPRESENTATION('',(#588),#639);
#588 = B_SPLINE_CURVE_WITH_KNOTS('',7,(#589,#590,#591,#592,#593,#594,
    #595,#596,#597,#598,#599,#600,#601,#602,#603,#604,#605,#606,#607,
    #608,#609,#610,#611,#612,#613,#614,#615,#616,#617,#618,#619,#620,
    #621,#622,#623,#624,#625,#626,#627,#628,#629,#630,#631,#632,#633,
    #634,#635,#636,#637,#638),.UNSPECIFIED.,.T.,.F.,(8,6,6,6,6,6,6,6,8),
  (0.,0.121542949597,0.249989755667,0.378435472281,0.499969843389,
    0.621525688969,0.749996927078,0.878461339984,1.),.UNSPECIFIED.);
#589 = CARTESIAN_POINT('',(3.14159265359,15.6));
#590 = CARTESIAN_POINT('',(3.175044510051,15.6));
#591 = CARTESIAN_POINT('',(3.207949839228,15.580321986033));
#592 = CARTESIAN_POINT('',(3.239524824444,15.542122778368));
#593 = CARTESIAN_POINT('',(3.26906083348,15.487296827606));
#594 = CARTESIAN_POINT('',(3.295919494249,15.418463346874));
#595 = CARTESIAN_POINT('',(3.319588589579,15.338992719281));
#596 = CARTESIAN_POINT('',(3.3611924606,15.162126477006));
#597 = CARTESIAN_POINT('',(3.379116959271,15.062302960005));
#598 = CARTESIAN_POINT('',(3.393506772988,14.955912779229));
#599 = CARTESIAN_POINT('',(3.404317390135,14.844901753747));
#600 = CARTESIAN_POINT('',(3.411528338597,14.730936142097));
#601 = CARTESIAN_POINT('',(3.41513713012,14.615497896551));
#602 = CARTESIAN_POINT('',(3.41513713012,14.384503083075));
#603 = CARTESIAN_POINT('',(3.411528400297,14.269068045279));
#604 = CARTESIAN_POINT('',(3.404317823973,14.155102690788));
#605 = CARTESIAN_POINT('',(3.393507178619,14.044087673962));
#606 = CARTESIAN_POINT('',(3.379116537834,13.937692247891));
#607 = CARTESIAN_POINT('',(3.361191098234,13.837867731308));
#608 = CARTESIAN_POINT('',(3.319591134738,13.661018100689));
#609 = CARTESIAN_POINT('',(3.295922216246,13.581542887259));
#610 = CARTESIAN_POINT('',(3.269061212029,13.512699909544));
#611 = CARTESIAN_POINT('',(3.239521494715,13.457868250261));
#612 = CARTESIAN_POINT('',(3.207943533359,13.419671061488));
#613 = CARTESIAN_POINT('',(3.175038600331,13.4));
#614 = CARTESIAN_POINT('',(3.108140797129,13.4));
#615 = CARTESIAN_POINT('',(3.075235467951,13.419678013967));
#616 = CARTESIAN_POINT('',(3.043660482736,13.457877221632));
#617 = CARTESIAN_POINT('',(3.0141244737,13.512703172393));
#618 = CARTESIAN_POINT('',(2.98726581293,13.581536653126));
#619 = CARTESIAN_POINT('',(2.9635967176,13.661007280719));
#620 = CARTESIAN_POINT('',(2.92199104882,13.837881165624));
#621 = CARTESIAN_POINT('',(2.904067322433,13.937705371228));
#622 = CARTESIAN_POINT('',(2.889678650315,14.044090231939));
#623 = CARTESIAN_POINT('',(2.878868474848,14.155094829008));
#624 = CARTESIAN_POINT('',(2.871657289709,14.269057208599));
#625 = CARTESIAN_POINT('',(2.86804817706,14.384496946824));
#626 = CARTESIAN_POINT('',(2.86804817706,14.615496916926));
#627 = CARTESIAN_POINT('',(2.871656906883,14.73093195472));
#628 = CARTESIAN_POINT('',(2.878867483207,14.844897309213));
#629 = CARTESIAN_POINT('',(2.88967812856,14.955912326037));
#630 = CARTESIAN_POINT('',(2.904068769346,15.06230775211));
#631 = CARTESIAN_POINT('',(2.921994208946,15.162132268691));
#632 = CARTESIAN_POINT('',(2.9635919426,15.338972419816));
#633 = CARTESIAN_POINT('',(2.987261550938,15.418455227995));
#634 = CARTESIAN_POINT('',(3.014125249891,15.487306141195));
#635 = CARTESIAN_POINT('',(3.043667800121,15.542140001315));
#636 = CARTESIAN_POINT('',(3.075247146757,15.580333908502));
#637 = CARTESIAN_POINT('',(3.108150930737,15.6));
#638 = CARTESIAN_POINT('',(3.14159265359,15.6));
#639 = ( GEOMETRIC_REPRESENTATION_CONTEXT(2) 
PARAMETRIC_REPRESENTATION_CONTEXT() REPRESENTATION_CONTEXT('2D SPACE',''
  ) );
#640 = PCURVE('',#641,#646);
#641 = CYLINDRICAL_SURFACE('',#642,1.1);
#642 = AXIS2_PLACEMENT_3D('',#643,#644,#645);
#643 = CARTESIAN_POINT('',(-14.5,54.,-98.125));
#644 = DIRECTION('',(0.,0.,1.));
#645 = DIRECTION('',(1.,0.,-0.));
#646 = DEFINITIONAL_REPRESENTATION('',(#647),#698);
#647 = B_SPLINE_CURVE_WITH_KNOTS('',7,(#648,#649,#650,#651,#652,#653,
    #654,#655,#656,#657,#658,#659,#660,#661,#662,#663,#664,#665,#666,
    #667,#668,#669,#670,#671,#672,#673,#674,#675,#676,#677,#678,#679,
    #680,#681,#682,#683,#684,#685,#686,#687,#688,#689,#690,#691,#692,
    #693,#694,#695,#696,#697),.UNSPECIFIED.,.F.,.F.,(8,6,6,6,6,6,6,6,8),
  (0.,0.121542949597,0.249989755667,0.378435472281,0.499969843389,
    0.621525688969,0.749996927078,0.878461339984,1.),.UNSPECIFIED.);
#648 = CARTESIAN_POINT('',(0.,1.028125));
#649 = CARTESIAN_POINT('',(0.123828889116,1.028125));
#650 = CARTESIAN_POINT('',(0.245634456048,1.033441190617));
#651 = CARTESIAN_POINT('',(0.365391882897,1.043759220258));
#652 = CARTESIAN_POINT('',(0.482924558409,1.058018208857));
#653 = CARTESIAN_POINT('',(0.597869263009,1.074567225148));
#654 = CARTESIAN_POINT('',(0.70957552709,1.091640804275));
#655 = CARTESIAN_POINT('',(0.93014399455,1.125001512704));
#656 = CARTESIAN_POINT('',(1.040562048947,1.141502809808));
#657 = CARTESIAN_POINT('',(1.148776275243,1.156047903162));
#658 = CARTESIAN_POINT('',(1.255358471318,1.167617953643));
#659 = CARTESIAN_POINT('',(1.360854416666,1.175550002021));
#660 = CARTESIAN_POINT('',(1.465798239021,1.179519670292));
#661 = CARTESIAN_POINT('',(1.675793524,1.179519670292));
#662 = CARTESIAN_POINT('',(1.780734430341,1.175550069486));
#663 = CARTESIAN_POINT('',(1.886230079219,1.167618434321));
#664 = CARTESIAN_POINT('',(1.992815499975,1.156048326817));
#665 = CARTESIAN_POINT('',(2.101034800065,1.141502199252));
#666 = CARTESIAN_POINT('',(2.211455881805,1.12500042027));
#667 = CARTESIAN_POINT('',(2.432003633003,1.09164284515));
#668 = CARTESIAN_POINT('',(2.543712443287,1.07456893027));
#669 = CARTESIAN_POINT('',(2.658668444064,1.058017721441));
#670 = CARTESIAN_POINT('',(2.776214598306,1.04375680293));
#671 = CARTESIAN_POINT('',(2.895981542043,1.033439308053));
#672 = CARTESIAN_POINT('',(3.017785640509,1.028125));
#673 = CARTESIAN_POINT('',(3.265421542706,1.028125));
#674 = CARTESIAN_POINT('',(3.387227109638,1.033441190617));
#675 = CARTESIAN_POINT('',(3.506984536488,1.043759220258));
#676 = CARTESIAN_POINT('',(3.624517211998,1.058018208857));
#677 = CARTESIAN_POINT('',(3.739461916599,1.074567225148));
#678 = CARTESIAN_POINT('',(3.851168180679,1.091640804275));
#679 = CARTESIAN_POINT('',(4.071746179202,1.125002954265));
#680 = CARTESIAN_POINT('',(4.182162726228,1.141503991524));
#681 = CARTESIAN_POINT('',(4.29037121829,1.156047848572));
#682 = CARTESIAN_POINT('',(4.396947748343,1.167617332866));
#683 = CARTESIAN_POINT('',(4.502441031697,1.175549650666));
#684 = CARTESIAN_POINT('',(4.60738620477,1.179519670292));
#685 = CARTESIAN_POINT('',(4.81738617759,1.179519670292));
#686 = CARTESIAN_POINT('',(4.92232708393,1.175550069486));
#687 = CARTESIAN_POINT('',(5.02782273281,1.167618434321));
#688 = CARTESIAN_POINT('',(5.134408153564,1.156048326817));
#689 = CARTESIAN_POINT('',(5.242627453656,1.141502199252));
#690 = CARTESIAN_POINT('',(5.353048535394,1.12500042027));
#691 = CARTESIAN_POINT('',(5.573584464791,1.091644633183));
#692 = CARTESIAN_POINT('',(5.685299970236,1.074569745252));
#693 = CARTESIAN_POINT('',(5.800267264447,1.058016387839));
#694 = CARTESIAN_POINT('',(5.917823085848,1.043754556251));
#695 = CARTESIAN_POINT('',(6.0375940908,1.033437972368));
#696 = CARTESIAN_POINT('',(6.159393929688,1.028125));
#697 = CARTESIAN_POINT('',(6.28318530718,1.028125));
#698 = ( GEOMETRIC_REPRESENTATION_CONTEXT(2) 
PARAMETRIC_REPRESENTATION_CONTEXT() REPRESENTATION_CONTEXT('2D SPACE',''
  ) );
#699 = ADVANCED_FACE('',(#700),#127,.T.);
#700 = FACE_BOUND('',#701,.T.);
#701 = EDGE_LOOP('',(#702,#723,#724,#725));
#702 = ORIENTED_EDGE('',*,*,#703,.F.);
#703 = EDGE_CURVE('',#85,#704,#706,.T.);
#704 = VERTEX_POINT('',#705);
#705 = CARTESIAN_POINT('',(-13.,58.5,-91.525));
#706 = SURFACE_CURVE('',#707,(#711,#717),.PCURVE_S1.);
#707 = LINE('',#708,#709);
#708 = CARTESIAN_POINT('',(-27.5,58.5,-91.525));
#709 = VECTOR('',#710,1.);
#710 = DIRECTION('',(1.,0.,0.));
#711 = PCURVE('',#127,#712);
#712 = DEFINITIONAL_REPRESENTATION('',(#713),#716);
#713 = B_SPLINE_CURVE_WITH_KNOTS('',1,(#714,#715),.UNSPECIFIED.,.F.,.F.,
  (2,2),(0.5,14.5),.PIECEWISE_BEZIER_KNOTS.);
#714 = CARTESIAN_POINT('',(1.,10.));
#715 = CARTESIAN_POINT('',(15.,10.));
#716 = ( GEOMETRIC_REPRESENTATION_CONTEXT(2) 
PARAMETRIC_REPRESENTATION_CONTEXT() REPRESENTATION_CONTEXT('2D SPACE',''
  ) );
#717 = PCURVE('',#100,#718);
#718 = DEFINITIONAL_REPRESENTATION('',(#719),#722);
#719 = B_SPLINE_CURVE_WITH_KNOTS('',1,(#720,#721),.UNSPECIFIED.,.F.,.F.,
  (2,2),(0.5,14.5),.PIECEWISE_BEZIER_KNOTS.);
#720 = CARTESIAN_POINT('',(6.5,0.));
#721 = CARTESIAN_POINT('',(6.5,14.));
#722 = ( GEOMETRIC_REPRESENTATION_CONTEXT(2) 
PARAMETRIC_REPRESENTATION_CONTEXT() REPRESENTATION_CONTEXT('2D SPACE',''
  ) );
#723 = ORIENTED_EDGE('',*,*,#112,.T.);
#724 = ORIENTED_EDGE('',*,*,#339,.T.);
#725 = ORIENTED_EDGE('',*,*,#726,.F.);
#726 = EDGE_CURVE('',#704,#314,#727,.T.);
#727 = SURFACE_CURVE('',#728,(#732,#738),.PCURVE_S1.);
#728 = LINE('',#729,#730);
#729 = CARTESIAN_POINT('',(-13.,49.,-91.525));
#730 = VECTOR('',#731,1.);
#731 = DIRECTION('',(0.,-1.,0.));
#732 = PCURVE('',#127,#733);
#733 = DEFINITIONAL_REPRESENTATION('',(#734),#737);
#734 = B_SPLINE_CURVE_WITH_KNOTS('',1,(#735,#736),.UNSPECIFIED.,.F.,.F.,
  (2,2),(-9.5,-0.5),.PIECEWISE_BEZIER_KNOTS.);
#735 = CARTESIAN_POINT('',(15.,10.));
#736 = CARTESIAN_POINT('',(15.,1.));
#737 = ( GEOMETRIC_REPRESENTATION_CONTEXT(2) 
PARAMETRIC_REPRESENTATION_CONTEXT() REPRESENTATION_CONTEXT('2D SPACE',''
  ) );
#738 = PCURVE('',#212,#739);
#739 = DEFINITIONAL_REPRESENTATION('',(#740),#743);
#740 = B_SPLINE_CURVE_WITH_KNOTS('',1,(#741,#742),.UNSPECIFIED.,.F.,.F.,
  (2,2),(-9.5,-0.5),.PIECEWISE_BEZIER_KNOTS.);
#741 = CARTESIAN_POINT('',(6.5,-9.));
#742 = CARTESIAN_POINT('',(6.5,0.));
#743 = ( GEOMETRIC_REPRESENTATION_CONTEXT(2) 
PARAMETRIC_REPRESENTATION_CONTEXT() REPRESENTATION_CONTEXT('2D SPACE',''
  ) );
#744 = ADVANCED_FACE('',(#745),#100,.T.);
#745 = FACE_BOUND('',#746,.T.);
#746 = EDGE_LOOP('',(#747,#770,#791,#792));
#747 = ORIENTED_EDGE('',*,*,#748,.F.);
#748 = EDGE_CURVE('',#749,#704,#751,.T.);
#749 = VERTEX_POINT('',#750);
#750 = CARTESIAN_POINT('',(-13.,58.5,-98.025));
#751 = SURFACE_CURVE('',#752,(#756,#763),.PCURVE_S1.);
#752 = LINE('',#753,#754);
#753 = CARTESIAN_POINT('',(-13.,58.5,-98.025));
#754 = VECTOR('',#755,1.);
#755 = DIRECTION('',(0.,0.,1.));
#756 = PCURVE('',#100,#757);
#757 = DEFINITIONAL_REPRESENTATION('',(#758),#762);
#758 = LINE('',#759,#760);
#759 = CARTESIAN_POINT('',(0.,14.));
#760 = VECTOR('',#761,1.);
#761 = DIRECTION('',(1.,0.));
#762 = ( GEOMETRIC_REPRESENTATION_CONTEXT(2) 
PARAMETRIC_REPRESENTATION_CONTEXT() REPRESENTATION_CONTEXT('2D SPACE',''
  ) );
#763 = PCURVE('',#212,#764);
#764 = DEFINITIONAL_REPRESENTATION('',(#765),#769);
#765 = LINE('',#766,#767);
#766 = CARTESIAN_POINT('',(0.,-9.));
#767 = VECTOR('',#768,1.);
#768 = DIRECTION('',(1.,0.));
#769 = ( GEOMETRIC_REPRESENTATION_CONTEXT(2) 
PARAMETRIC_REPRESENTATION_CONTEXT() REPRESENTATION_CONTEXT('2D SPACE',''
  ) );
#770 = ORIENTED_EDGE('',*,*,#771,.F.);
#771 = EDGE_CURVE('',#57,#749,#772,.T.);
#772 = SURFACE_CURVE('',#773,(#777,#784),.PCURVE_S1.);
#773 = LINE('',#774,#775);
#774 = CARTESIAN_POINT('',(-27.,58.5,-98.025));
#775 = VECTOR('',#776,1.);
#776 = DIRECTION('',(1.,0.,0.));
#777 = PCURVE('',#100,#778);
#778 = DEFINITIONAL_REPRESENTATION('',(#779),#783);
#779 = LINE('',#780,#781);
#780 = CARTESIAN_POINT('',(0.,0.));
#781 = VECTOR('',#782,1.);
#782 = DIRECTION('',(0.,1.));
#783 = ( GEOMETRIC_REPRESENTATION_CONTEXT(2) 
PARAMETRIC_REPRESENTATION_CONTEXT() REPRESENTATION_CONTEXT('2D SPACE',''
  ) );
#784 = PCURVE('',#72,#785);
#785 = DEFINITIONAL_REPRESENTATION('',(#786),#790);
#786 = LINE('',#787,#788);
#787 = CARTESIAN_POINT('',(0.,9.));
#788 = VECTOR('',#789,1.);
#789 = DIRECTION('',(1.,0.));
#790 = ( GEOMETRIC_REPRESENTATION_CONTEXT(2) 
PARAMETRIC_REPRESENTATION_CONTEXT() REPRESENTATION_CONTEXT('2D SPACE',''
  ) );
#791 = ORIENTED_EDGE('',*,*,#84,.T.);
#792 = ORIENTED_EDGE('',*,*,#703,.T.);
#793 = ADVANCED_FACE('',(#794,#820,#846),#72,.F.);
#794 = FACE_BOUND('',#795,.F.);
#795 = EDGE_LOOP('',(#796,#797,#798,#819));
#796 = ORIENTED_EDGE('',*,*,#56,.F.);
#797 = ORIENTED_EDGE('',*,*,#224,.T.);
#798 = ORIENTED_EDGE('',*,*,#799,.T.);
#799 = EDGE_CURVE('',#195,#749,#800,.T.);
#800 = SURFACE_CURVE('',#801,(#805,#812),.PCURVE_S1.);
#801 = LINE('',#802,#803);
#802 = CARTESIAN_POINT('',(-13.,49.5,-98.025));
#803 = VECTOR('',#804,1.);
#804 = DIRECTION('',(0.,1.,0.));
#805 = PCURVE('',#72,#806);
#806 = DEFINITIONAL_REPRESENTATION('',(#807),#811);
#807 = LINE('',#808,#809);
#808 = CARTESIAN_POINT('',(14.,0.));
#809 = VECTOR('',#810,1.);
#810 = DIRECTION('',(0.,1.));
#811 = ( GEOMETRIC_REPRESENTATION_CONTEXT(2) 
PARAMETRIC_REPRESENTATION_CONTEXT() REPRESENTATION_CONTEXT('2D SPACE',''
  ) );
#812 = PCURVE('',#212,#813);
#813 = DEFINITIONAL_REPRESENTATION('',(#814),#818);
#814 = LINE('',#815,#816);
#815 = CARTESIAN_POINT('',(0.,0.));
#816 = VECTOR('',#817,1.);
#817 = DIRECTION('',(0.,-1.));
#818 = ( GEOMETRIC_REPRESENTATION_CONTEXT(2) 
PARAMETRIC_REPRESENTATION_CONTEXT() REPRESENTATION_CONTEXT('2D SPACE',''
  ) );
#819 = ORIENTED_EDGE('',*,*,#771,.F.);
#820 = FACE_BOUND('',#821,.F.);
#821 = EDGE_LOOP('',(#822));
#822 = ORIENTED_EDGE('',*,*,#823,.F.);
#823 = EDGE_CURVE('',#824,#824,#826,.T.);
#824 = VERTEX_POINT('',#825);
#825 = CARTESIAN_POINT('',(-24.4,54.,-98.025));
#826 = SURFACE_CURVE('',#827,(#832,#839),.PCURVE_S1.);
#827 = CIRCLE('',#828,1.1);
#828 = AXIS2_PLACEMENT_3D('',#829,#830,#831);
#829 = CARTESIAN_POINT('',(-25.5,54.,-98.025));
#830 = DIRECTION('',(0.,0.,1.));
#831 = DIRECTION('',(1.,0.,-0.));
#832 = PCURVE('',#72,#833);
#833 = DEFINITIONAL_REPRESENTATION('',(#834),#838);
#834 = CIRCLE('',#835,1.1);
#835 = AXIS2_PLACEMENT_2D('',#836,#837);
#836 = CARTESIAN_POINT('',(1.5,4.5));
#837 = DIRECTION('',(1.,0.));
#838 = ( GEOMETRIC_REPRESENTATION_CONTEXT(2) 
PARAMETRIC_REPRESENTATION_CONTEXT() REPRESENTATION_CONTEXT('2D SPACE',''
  ) );
#839 = PCURVE('',#470,#840);
#840 = DEFINITIONAL_REPRESENTATION('',(#841),#845);
#841 = LINE('',#842,#843);
#842 = CARTESIAN_POINT('',(0.,9.999999999999E-02));
#843 = VECTOR('',#844,1.);
#844 = DIRECTION('',(1.,0.));
#845 = ( GEOMETRIC_REPRESENTATION_CONTEXT(2) 
PARAMETRIC_REPRESENTATION_CONTEXT() REPRESENTATION_CONTEXT('2D SPACE',''
  ) );
#846 = FACE_BOUND('',#847,.F.);
#847 = EDGE_LOOP('',(#848));
#848 = ORIENTED_EDGE('',*,*,#849,.F.);
#849 = EDGE_CURVE('',#850,#850,#852,.T.);
#850 = VERTEX_POINT('',#851);
#851 = CARTESIAN_POINT('',(-13.4,54.,-98.025));
#852 = SURFACE_CURVE('',#853,(#858,#865),.PCURVE_S1.);
#853 = CIRCLE('',#854,1.1);
#854 = AXIS2_PLACEMENT_3D('',#855,#856,#857);
#855 = CARTESIAN_POINT('',(-14.5,54.,-98.025));
#856 = DIRECTION('',(0.,0.,1.));
#857 = DIRECTION('',(1.,0.,-0.));
#858 = PCURVE('',#72,#859);
#859 = DEFINITIONAL_REPRESENTATION('',(#860),#864);
#860 = CIRCLE('',#861,1.1);
#861 = AXIS2_PLACEMENT_2D('',#862,#863);
#862 = CARTESIAN_POINT('',(12.5,4.5));
#863 = DIRECTION('',(1.,0.));
#864 = ( GEOMETRIC_REPRESENTATION_CONTEXT(2) 
PARAMETRIC_REPRESENTATION_CONTEXT() REPRESENTATION_CONTEXT('2D SPACE',''
  ) );
#865 = PCURVE('',#641,#866);
#866 = DEFINITIONAL_REPRESENTATION('',(#867),#871);
#867 = LINE('',#868,#869);
#868 = CARTESIAN_POINT('',(0.,9.999999999999E-02));
#869 = VECTOR('',#870,1.);
#870 = DIRECTION('',(1.,0.));
#871 = ( GEOMETRIC_REPRESENTATION_CONTEXT(2) 
PARAMETRIC_REPRESENTATION_CONTEXT() REPRESENTATION_CONTEXT('2D SPACE',''
  ) );
#872 = ADVANCED_FACE('',(#873),#212,.T.);
#873 = FACE_BOUND('',#874,.T.);
#874 = EDGE_LOOP('',(#875,#876,#877,#878,#879,#880));
#875 = ORIENTED_EDGE('',*,*,#194,.F.);
#876 = ORIENTED_EDGE('',*,*,#799,.T.);
#877 = ORIENTED_EDGE('',*,*,#748,.T.);
#878 = ORIENTED_EDGE('',*,*,#726,.T.);
#879 = ORIENTED_EDGE('',*,*,#313,.F.);
#880 = ORIENTED_EDGE('',*,*,#291,.T.);
#881 = ADVANCED_FACE('',(#882),#470,.F.);
#882 = FACE_BOUND('',#883,.F.);
#883 = EDGE_LOOP('',(#884,#885,#906,#907));
#884 = ORIENTED_EDGE('',*,*,#360,.F.);
#885 = ORIENTED_EDGE('',*,*,#886,.F.);
#886 = EDGE_CURVE('',#824,#361,#887,.T.);
#887 = SEAM_CURVE('',#888,(#892,#899),.PCURVE_S1.);
#888 = LINE('',#889,#890);
#889 = CARTESIAN_POINT('',(-24.4,54.,-98.125));
#890 = VECTOR('',#891,1.);
#891 = DIRECTION('',(0.,0.,1.));
#892 = PCURVE('',#470,#893);
#893 = DEFINITIONAL_REPRESENTATION('',(#894),#898);
#894 = LINE('',#895,#896);
#895 = CARTESIAN_POINT('',(6.28318530718,-0.));
#896 = VECTOR('',#897,1.);
#897 = DIRECTION('',(0.,1.));
#898 = ( GEOMETRIC_REPRESENTATION_CONTEXT(2) 
PARAMETRIC_REPRESENTATION_CONTEXT() REPRESENTATION_CONTEXT('2D SPACE',''
  ) );
#899 = PCURVE('',#470,#900);
#900 = DEFINITIONAL_REPRESENTATION('',(#901),#905);
#901 = LINE('',#902,#903);
#902 = CARTESIAN_POINT('',(0.,-0.));
#903 = VECTOR('',#904,1.);
#904 = DIRECTION('',(0.,1.));
#905 = ( GEOMETRIC_REPRESENTATION_CONTEXT(2) 
PARAMETRIC_REPRESENTATION_CONTEXT() REPRESENTATION_CONTEXT('2D SPACE',''
  ) );
#906 = ORIENTED_EDGE('',*,*,#823,.T.);
#907 = ORIENTED_EDGE('',*,*,#886,.T.);
#908 = ADVANCED_FACE('',(#909),#641,.F.);
#909 = FACE_BOUND('',#910,.F.);
#910 = EDGE_LOOP('',(#911,#912,#933,#934));
#911 = ORIENTED_EDGE('',*,*,#531,.F.);
#912 = ORIENTED_EDGE('',*,*,#913,.F.);
#913 = EDGE_CURVE('',#850,#532,#914,.T.);
#914 = SEAM_CURVE('',#915,(#919,#926),.PCURVE_S1.);
#915 = LINE('',#916,#917);
#916 = CARTESIAN_POINT('',(-13.4,54.,-98.125));
#917 = VECTOR('',#918,1.);
#918 = DIRECTION('',(0.,0.,1.));
#919 = PCURVE('',#641,#920);
#920 = DEFINITIONAL_REPRESENTATION('',(#921),#925);
#921 = LINE('',#922,#923);
#922 = CARTESIAN_POINT('',(6.28318530718,-0.));
#923 = VECTOR('',#924,1.);
#924 = DIRECTION('',(0.,1.));
#925 = ( GEOMETRIC_REPRESENTATION_CONTEXT(2) 
PARAMETRIC_REPRESENTATION_CONTEXT() REPRESENTATION_CONTEXT('2D SPACE',''
  ) );
#926 = PCURVE('',#641,#927);
#927 = DEFINITIONAL_REPRESENTATION('',(#928),#932);
#928 = LINE('',#929,#930);
#929 = CARTESIAN_POINT('',(0.,-0.));
#930 = VECTOR('',#931,1.);
#931 = DIRECTION('',(0.,1.));
#932 = ( GEOMETRIC_REPRESENTATION_CONTEXT(2) 
PARAMETRIC_REPRESENTATION_CONTEXT() REPRESENTATION_CONTEXT('2D SPACE',''
  ) );
#933 = ORIENTED_EDGE('',*,*,#849,.T.);
#934 = ORIENTED_EDGE('',*,*,#913,.T.);
#935 = ( GEOMETRIC_REPRESENTATION_CONTEXT(3) 
GLOBAL_UNCERTAINTY_ASSIGNED_CONTEXT((#939)) GLOBAL_UNIT_ASSIGNED_CONTEXT
((#936,#937,#938)) REPRESENTATION_CONTEXT('Context #1',
  '3D Context with UNIT and UNCERTAINTY') );
#936 = ( LENGTH_UNIT() NAMED_UNIT(*) SI_UNIT(.MILLI.,.METRE.) );
#937 = ( NAMED_UNIT(*) PLANE_ANGLE_UNIT() SI_UNIT($,.RADIAN.) );
#938 = ( NAMED_UNIT(*) SI_UNIT($,.STERADIAN.) SOLID_ANGLE_UNIT() );
#939 = UNCERTAINTY_MEASURE_WITH_UNIT(LENGTH_MEASURE(1.E-07),#936,
  'distance_accuracy_value','confusion accuracy');
#940 = PRODUCT_RELATED_PRODUCT_CATEGORY('part',$,(#7));
ENDSEC;
END-ISO-10303-21;
