ISO-10303-21;
HEADER;
FILE_DESCRIPTION(('Open CASCADE Model'),'2;1');
FILE_NAME('Open CASCADE Shape Model','2026-10-10T20:47:25',('Author'),(
    'Open CASCADE'),'Open CASCADE STEP processor 7.8','Open CASCADE 7.8'
  ,'Unknown');
FILE_SCHEMA(('AUTOMOTIVE_DESIGN { 1 0 10303 214 1 1 1 1 }'));
ENDSEC;
DATA;
#1 = APPLICATION_PROTOCOL_DEFINITION('international standard',
  'automotive_design',2000,#2);
#2 = APPLICATION_CONTEXT(
  'core data for automotive mechanical design processes');
#3 = SHAPE_DEFINITION_REPRESENTATION(#4,#10);
#4 = PRODUCT_DEFINITION_SHAPE('','',#5);
#5 = PRODUCT_DEFINITION('design','',#6,#9);
#6 = PRODUCT_DEFINITION_FORMATION('','',#7);
#7 = PRODUCT('Open CASCADE STEP translator 7.8 18',
  'Open CASCADE STEP translator 7.8 18','',(#8));
#8 = PRODUCT_CONTEXT('',#2,'mechanical');
#9 = PRODUCT_DEFINITION_CONTEXT('part definition',#2,'design');
#10 = ADVANCED_BREP_SHAPE_REPRESENTATION('',(#11,#15),#360);
#11 = AXIS2_PLACEMENT_3D('',#12,#13,#14);
#12 = CARTESIAN_POINT('',(0.,0.,0.));
#13 = DIRECTION('',(0.,0.,1.));
#14 = DIRECTION('',(1.,0.,-0.));
#15 = MANIFOLD_SOLID_BREP('',#16);
#16 = CLOSED_SHELL('',(#17,#298,#352,#356));
#17 = ADVANCED_FACE('',(#18),#52,.T.);
#18 = FACE_BOUND('',#19,.T.);
#19 = EDGE_LOOP('',(#20,#226,#263,#264));
#20 = ORIENTED_EDGE('',*,*,#21,.T.);
#21 = EDGE_CURVE('',#22,#24,#26,.T.);
#22 = VERTEX_POINT('',#23);
#23 = CARTESIAN_POINT('',(-59.6474899242,248.20341536502,18.377319650858
    ));
#24 = VERTEX_POINT('',#25);
#25 = CARTESIAN_POINT('',(-59.00057901971,235.02523066429,4.4));
#26 = SEAM_CURVE('',#27,(#51,#219),.PCURVE_S1.);
#27 = ( BOUNDED_CURVE() B_SPLINE_CURVE(11,(#28,#29,#30,#31,#32,#33,#34,
    #35,#36,#37,#38,#39,#40,#41,#42,#43,#44,#45,#46,#47,#48,#49,#50),
.UNSPECIFIED.,.F.,.F.) B_SPLINE_CURVE_WITH_KNOTS((12,11,12),(
    5.717400108066E-02,0.813985163938,1.570796326795),
.PIECEWISE_BEZIER_KNOTS.) CURVE() GEOMETRIC_REPRESENTATION_ITEM() 
RATIONAL_B_SPLINE_CURVE((1.669078461068,1.669078461068,1.669078461068,
    1.669078461068,1.669078461068,1.669078461068,1.669078461068,
    1.669078461068,1.669078461068,1.669078461068,1.669078461068,
    1.669078461068,1.669078461068,1.669078461068,1.669078461068,
    1.669078461069,1.669078461067,1.66907846107,1.669078461067,
    1.669078461069,1.669078461068,1.669078461068,1.669078461068)) 
REPRESENTATION_ITEM('') );
#28 = CARTESIAN_POINT('',(-59.6474899242,248.20341536502,18.377319650858
    ));
#29 = CARTESIAN_POINT('',(-59.64152333259,247.24572399368,
    18.322602468063));
#30 = CARTESIAN_POINT('',(-59.62795457854,246.2917914483,18.195055310839
    ));
#31 = CARTESIAN_POINT('',(-59.60765452241,245.34778032116,17.99573804268
    ));
#32 = CARTESIAN_POINT('',(-59.58149669446,244.41955719417,
    17.725040996935));
#33 = CARTESIAN_POINT('',(-59.55035206044,243.51370209902,
    17.383497273885));
#34 = CARTESIAN_POINT('',(-59.51510459244,242.63513444088,
    16.975907616731));
#35 = CARTESIAN_POINT('',(-59.47661984614,241.79054772128,
    16.501099041819));
#36 = CARTESIAN_POINT('',(-59.43578791154,240.98445901496,
    15.965259648208));
#37 = CARTESIAN_POINT('',(-59.39347838255,240.22235323098,
    15.370326644367));
#38 = CARTESIAN_POINT('',(-59.3505766597,239.50875412102,14.72081544632)
  );
#39 = CARTESIAN_POINT('',(-59.30796104856,238.84790820156,
    14.021091800301));
#40 = CARTESIAN_POINT('',(-59.2653456139,238.18706761539,13.321363106768
    ));
#41 = CARTESIAN_POINT('',(-59.22301684232,237.5789982906,12.571401913486
    ));
#42 = CARTESIAN_POINT('',(-59.181857943,237.02792253655,11.77572786423)
  );
#43 = CARTESIAN_POINT('',(-59.14272891417,236.53740632362,10.93883174259
    ));
#44 = CARTESIAN_POINT('',(-59.1065884579,236.11213606474,10.066495870207
    ));
#45 = CARTESIAN_POINT('',(-59.07416483128,235.75188387244,9.163472680954
    ));
#46 = CARTESIAN_POINT('',(-59.04654207536,235.46330035565,8.236043274789
    ));
#47 = CARTESIAN_POINT('',(-59.02444306799,235.24438779,7.289909697184));
#48 = CARTESIAN_POINT('',(-59.00882393371,235.09818331293,6.331068812898
    ));
#49 = CARTESIAN_POINT('',(-59.00058334805,235.02532491801,5.365745717946
    ));
#50 = CARTESIAN_POINT('',(-59.00057901971,235.02523066429,4.4));
#51 = PCURVE('',#52,#214);
#52 = ( BOUNDED_SURFACE() B_SPLINE_SURFACE(6,11,(
    (#53,#54,#55,#56,#57,#58,#59,#60,#61,#62,#63,#64,#65,#66,#67,#68,#69
      ,#70,#71,#72,#73,#74,#75)
    ,(#76,#77,#78,#79,#80,#81,#82,#83,#84,#85,#86,#87,#88,#89,#90,#91
      ,#92,#93,#94,#95,#96,#97,#98)
    ,(#99,#100,#101,#102,#103,#104,#105,#106,#107,#108,#109,#110,#111
      ,#112,#113,#114,#115,#116,#117,#118,#119,#120,#121)
    ,(#122,#123,#124,#125,#126,#127,#128,#129,#130,#131,#132,#133,#134
      ,#135,#136,#137,#138,#139,#140,#141,#142,#143,#144)
    ,(#145,#146,#147,#148,#149,#150,#151,#152,#153,#154,#155,#156,#157
      ,#158,#159,#160,#161,#162,#163,#164,#165,#166,#167)
    ,(#168,#169,#170,#171,#172,#173,#174,#175,#176,#177,#178,#179,#180
      ,#181,#182,#183,#184,#185,#186,#187,#188,#189,#190)
    ,(#191,#192,#193,#194,#195,#196,#197,#198,#199,#200,#201,#202,#203
      ,#204,#205,#206,#207,#208,#209,#210,#211,#212,#213
)),.UNSPECIFIED.,.T.,.F.,.F.) B_SPLINE_SURFACE_WITH_KNOTS((1,6,6,1),(12,
    11,12),(-6.28318530718,0.,6.28318530718,12.566370614359),(
    5.717400108066E-02,0.813985163938,1.570796326795),.UNSPECIFIED.) 
GEOMETRIC_REPRESENTATION_ITEM() RATIONAL_B_SPLINE_SURFACE((
    (1.669078461068,1.669078461068,1.669078461068,1.669078461068
      ,1.669078461068,1.669078461068,1.669078461068,1.669078461068
      ,1.669078461068,1.669078461068,1.669078461068,1.669078461068
      ,1.669078461068,1.669078461068,1.669078461068,1.669078461069
      ,1.669078461067,1.66907846107,1.669078461067,1.669078461069
      ,1.669078461068,1.669078461068,1.669078461068)
    ,(1.03672962321,1.03672962321,1.03672962321,1.03672962321
      ,1.03672962321,1.03672962321,1.03672962321,1.03672962321
      ,1.03672962321,1.03672962321,1.03672962321,1.03672962321
      ,1.03672962321,1.03672962321,1.036729623209,1.03672962321
      ,1.036729623209,1.03672962321,1.036729623209,1.03672962321
      ,1.036729623209,1.03672962321,1.03672962321)
    ,(1.038346699848,1.038346699848,1.038346699847,1.038346699848
      ,1.038346699847,1.038346699848,1.038346699847,1.038346699848
      ,1.038346699848,1.038346699847,1.038346699848,1.038346699848
      ,1.038346699847,1.038346699848,1.038346699847,1.038346699848
      ,1.038346699847,1.038346699848,1.038346699847,1.038346699848
      ,1.038346699847,1.038346699848,1.038346699848)
    ,(0.853534330196,0.853534330196,0.853534330196,0.853534330196
      ,0.853534330196,0.853534330196,0.853534330196,0.853534330196
      ,0.853534330196,0.853534330196,0.853534330196,0.853534330196
      ,0.853534330196,0.853534330196,0.853534330196,0.853534330196
      ,0.853534330196,0.853534330196,0.853534330196,0.853534330196
      ,0.853534330196,0.853534330196,0.853534330196)
    ,(1.038346699848,1.038346699848,1.038346699848,1.038346699847
      ,1.038346699848,1.038346699847,1.038346699848,1.038346699847
      ,1.038346699848,1.038346699847,1.038346699848,1.038346699848
      ,1.038346699847,1.038346699848,1.038346699847,1.038346699848
      ,1.038346699847,1.038346699848,1.038346699847,1.038346699848
      ,1.038346699847,1.038346699848,1.038346699848)
    ,(1.03672962321,1.03672962321,1.03672962321,1.03672962321
      ,1.036729623209,1.03672962321,1.036729623209,1.03672962321
      ,1.03672962321,1.03672962321,1.03672962321,1.03672962321
      ,1.03672962321,1.03672962321,1.036729623209,1.03672962321
      ,1.036729623209,1.03672962321,1.036729623209,1.03672962321
      ,1.036729623209,1.03672962321,1.03672962321)
    ,(1.669078461068,1.669078461068,1.669078461068,1.669078461068
      ,1.669078461068,1.669078461068,1.669078461068,1.669078461068
      ,1.669078461068,1.669078461068,1.669078461068,1.669078461068
      ,1.669078461068,1.669078461068,1.669078461068,1.669078461069
      ,1.669078461067,1.66907846107,1.669078461067,1.669078461069
      ,1.669078461068,1.669078461068,1.669078461068
))) REPRESENTATION_ITEM('') SURFACE() );
#53 = CARTESIAN_POINT('',(-59.6474899242,248.20341536502,18.377319650858
    ));
#54 = CARTESIAN_POINT('',(-59.64152333259,247.24572399368,
    18.322602468063));
#55 = CARTESIAN_POINT('',(-59.62795457854,246.2917914483,18.195055310839
    ));
#56 = CARTESIAN_POINT('',(-59.60765452241,245.34778032116,17.99573804268
    ));
#57 = CARTESIAN_POINT('',(-59.58149669446,244.41955719417,
    17.725040996935));
#58 = CARTESIAN_POINT('',(-59.55035206044,243.51370209902,
    17.383497273885));
#59 = CARTESIAN_POINT('',(-59.51510459244,242.63513444088,
    16.975907616731));
#60 = CARTESIAN_POINT('',(-59.47661984614,241.79054772128,
    16.501099041819));
#61 = CARTESIAN_POINT('',(-59.43578791154,240.98445901496,
    15.965259648208));
#62 = CARTESIAN_POINT('',(-59.39347838255,240.22235323098,
    15.370326644367));
#63 = CARTESIAN_POINT('',(-59.3505766597,239.50875412102,14.72081544632)
  );
#64 = CARTESIAN_POINT('',(-59.30796104856,238.84790820156,
    14.021091800301));
#65 = CARTESIAN_POINT('',(-59.2653456139,238.18706761539,13.321363106768
    ));
#66 = CARTESIAN_POINT('',(-59.22301684232,237.5789982906,12.571401913486
    ));
#67 = CARTESIAN_POINT('',(-59.181857943,237.02792253655,11.77572786423)
  );
#68 = CARTESIAN_POINT('',(-59.14272891417,236.53740632362,10.93883174259
    ));
#69 = CARTESIAN_POINT('',(-59.1065884579,236.11213606474,10.066495870207
    ));
#70 = CARTESIAN_POINT('',(-59.07416483128,235.75188387244,9.163472680954
    ));
#71 = CARTESIAN_POINT('',(-59.04654207536,235.46330035565,8.236043274789
    ));
#72 = CARTESIAN_POINT('',(-59.02444306799,235.24438779,7.289909697184));
#73 = CARTESIAN_POINT('',(-59.00882393371,235.09818331293,6.331068812898
    ));
#74 = CARTESIAN_POINT('',(-59.00058334805,235.02532491801,5.365745717946
    ));
#75 = CARTESIAN_POINT('',(-59.00057901971,235.02523066429,4.4));
#76 = CARTESIAN_POINT('',(-59.6474899242,248.15119543979,19.289675124608
    ));
#77 = CARTESIAN_POINT('',(-59.64129410489,247.13072280517,
    19.231364569527));
#78 = CARTESIAN_POINT('',(-59.62647551591,246.11440329257,
    19.095478842458));
#79 = CARTESIAN_POINT('',(-59.60510366441,245.10823148454,
    18.883060598757));
#80 = CARTESIAN_POINT('',(-59.57773769333,244.12011553677,18.59478924251
    ));
#81 = CARTESIAN_POINT('',(-59.54309424231,243.15382205066,
    18.230574419427));
#82 = CARTESIAN_POINT('',(-59.50741951097,242.21924428917,17.79692953104
    ));
#83 = CARTESIAN_POINT('',(-59.46512322567,241.31843740581,
    17.290467076373));
#84 = CARTESIAN_POINT('',(-59.4221476603,240.46042321503,16.720184899792
    ));
#85 = CARTESIAN_POINT('',(-59.37706732956,239.64835576753,
    16.086196504062));
#86 = CARTESIAN_POINT('',(-59.3313650369,238.88830559789,15.394417192873
    ));
#87 = CARTESIAN_POINT('',(-59.28600324197,238.18437327116,
    14.649071642289));
#88 = CARTESIAN_POINT('',(-59.24062943457,237.48044686169,
    13.903721235023));
#89 = CARTESIAN_POINT('',(-59.19556195986,236.8328127203,13.104948530608
    ));
#90 = CARTESIAN_POINT('',(-59.15168227722,236.2455677777,12.257121954418
    ));
#91 = CARTESIAN_POINT('',(-59.11050532203,235.72356180965,11.36634913052
    ));
#92 = CARTESIAN_POINT('',(-59.07072464607,235.26990774385,
    10.435968739723));
#93 = CARTESIAN_POINT('',(-59.03802998539,234.88670079138,9.47542787644)
  );
#94 = CARTESIAN_POINT('',(-59.00712757098,234.57895092999,8.486190800403
    ));
#95 = CARTESIAN_POINT('',(-58.98406352357,234.34584504983,7.479079939164
    ));
#96 = CARTESIAN_POINT('',(-58.96769035883,234.19006506083,6.457216369273
    ));
#97 = CARTESIAN_POINT('',(-58.95850490589,234.11244548437,5.428890590935
    ));
#98 = CARTESIAN_POINT('',(-58.95865718415,234.11234403892,4.4));
#99 = CARTESIAN_POINT('',(-60.77746957039,248.13668051523,
    19.420272213647));
#100 = CARTESIAN_POINT('',(-60.77119021886,247.0990802404,
    19.360780799985));
#101 = CARTESIAN_POINT('',(-60.75608227247,246.06652723649,
    19.223111777962));
#102 = CARTESIAN_POINT('',(-60.73440853634,245.04490459134,
    19.007026082413));
#103 = CARTESIAN_POINT('',(-60.70669872011,244.04280618901,
    18.713831935759));
#104 = CARTESIAN_POINT('',(-60.67138111504,243.06266276005,
    18.346231072887));
#105 = CARTESIAN_POINT('',(-60.63546609943,242.1162835003,
    17.904448312861));
#106 = CARTESIAN_POINT('',(-60.59246854389,241.20389887704,
    17.393050017939));
#107 = CARTESIAN_POINT('',(-60.54903781447,240.33572520214,
    16.815230030761));
#108 = CARTESIAN_POINT('',(-60.50344268628,239.51446243344,
    16.173931369484));
#109 = CARTESIAN_POINT('',(-60.45724305893,238.74618474414,
    15.47461892395));
#110 = CARTESIAN_POINT('',(-60.41141937139,238.03503197526,
    14.721569893961));
#111 = CARTESIAN_POINT('',(-60.36558155864,237.32387424998,
    13.96852640505));
#112 = CARTESIAN_POINT('',(-60.32007940316,236.6700011926,
    13.161955018024));
#113 = CARTESIAN_POINT('',(-60.27578993456,236.07734243881,
    12.306203879762));
#114 = CARTESIAN_POINT('',(-60.23436563557,235.5516986527,11.40794011545
    ));
#115 = CARTESIAN_POINT('',(-60.19401553866,235.09275115771,
    10.469806935802));
#116 = CARTESIAN_POINT('',(-60.16145594188,234.70933099746,
    9.502345375611));
#117 = CARTESIAN_POINT('',(-60.13006053398,234.39768126286,
    8.506331065774));
#118 = CARTESIAN_POINT('',(-60.1069649927,234.16394055894,7.493087175241
    ));
#119 = CARTESIAN_POINT('',(-60.09056580467,234.00775097274,
    6.465794784296));
#120 = CARTESIAN_POINT('',(-60.08126614584,233.92934026962,
    5.432756009354));
#121 = CARTESIAN_POINT('',(-60.08144980294,233.92943144036,4.4));
#122 = CARTESIAN_POINT('',(-61.7094643434,248.19061076221,
    18.376586761737));
#123 = CARTESIAN_POINT('',(-61.70340538276,247.21811429515,
    18.320656255797));
#124 = CARTESIAN_POINT('',(-61.68963608004,246.25090497816,
    18.19203973894));
#125 = CARTESIAN_POINT('',(-61.66906596783,245.29498596917,
    17.989462713851));
#126 = CARTESIAN_POINT('',(-61.64259723896,244.3569402497,
    17.714387235598));
#127 = CARTESIAN_POINT('',(-61.61113913634,243.44164731211,
    17.372604728582));
#128 = CARTESIAN_POINT('',(-61.57556514693,242.55621954104,
    16.956991868607));
#129 = CARTESIAN_POINT('',(-61.53679938658,241.70523605793,
    16.481470016825));
#130 = CARTESIAN_POINT('',(-61.49569852343,240.89421336255,
    15.940900016232));
#131 = CARTESIAN_POINT('',(-61.45317557173,240.12841844532,
    15.342860170525));
#132 = CARTESIAN_POINT('',(-61.41010009151,239.41197642716,
    14.690677202814));
#133 = CARTESIAN_POINT('',(-61.36736114769,238.74924373545,
    13.988849665683));
#134 = CARTESIAN_POINT('',(-61.32462171868,238.08649638188,
    13.287036004755));
#135 = CARTESIAN_POINT('',(-61.2822173103,237.47740867578,
    12.535632899086));
#136 = CARTESIAN_POINT('',(-61.24102350682,236.92593049868,
    11.739162609003));
#137 = CARTESIAN_POINT('',(-61.20197970215,236.43702662341,
    10.902713263403));
#138 = CARTESIAN_POINT('',(-61.16575394184,236.00953377595,
    10.031438352772));
#139 = CARTESIAN_POINT('',(-61.13364779161,235.65490686999,9.1308564797)
  );
#140 = CARTESIAN_POINT('',(-61.10598472546,235.36422865542,
    8.207254195611));
#141 = CARTESIAN_POINT('',(-61.08408109725,235.14787644146,
    7.265905708996));
#142 = CARTESIAN_POINT('',(-61.06861203845,235.0034334028,6.313670860145
    ));
#143 = CARTESIAN_POINT('',(-61.06041061453,234.93037883937,
    5.356254788446));
#144 = CARTESIAN_POINT('',(-61.06042251366,234.93063795385,4.4));
#145 = CARTESIAN_POINT('',(-60.77746957039,248.25611615075,
    17.333563829034));
#146 = CARTESIAN_POINT('',(-60.77171450066,247.36210704432,
    17.282291054152));
#147 = CARTESIAN_POINT('',(-60.75946513417,246.47224338831,
    17.163693725247));
#148 = CARTESIAN_POINT('',(-60.74024277195,245.59279253665,
    16.977572135031));
#149 = CARTESIAN_POINT('',(-60.71529617954,244.72767895534,
    16.724573353151));
#150 = CARTESIAN_POINT('',(-60.68798094962,243.88576815699,
    16.408825058599));
#151 = CARTESIAN_POINT('',(-60.65304315617,243.06749329915,
    16.026634936567));
#152 = CARTESIAN_POINT('',(-60.6187632229,242.28369352079,
    15.587634317988));
#153 = CARTESIAN_POINT('',(-60.58023533282,241.53428204651,
    15.088590691643));
#154 = CARTESIAN_POINT('',(-60.54097748808,240.82728989399,
    14.536618193321));
#155 = CARTESIAN_POINT('',(-60.50118322867,240.16525348729,
    13.933979937432));
#156 = CARTESIAN_POINT('',(-60.4616405192,239.55264648253,
    13.285275774676));
#157 = CARTESIAN_POINT('',(-60.4221115627,238.94003318574,
    12.636576716535));
#158 = CARTESIAN_POINT('',(-60.38287327579,238.37665143016,
    11.941645356315));
#159 = CARTESIAN_POINT('',(-60.3448066902,237.8667176133,11.205175702477
    ));
#160 = CARTESIAN_POINT('',(-60.30806633867,237.41309612325,
    10.430136897703));
#161 = CARTESIAN_POINT('',(-60.27604202835,237.01906710531,
    9.624761164843));
#162 = CARTESIAN_POINT('',(-60.24410233145,236.68814829117,
    8.788852070892));
#163 = CARTESIAN_POINT('',(-60.2202080468,236.42033516754,7.934202159765
    ));
#164 = CARTESIAN_POINT('',(-60.19931971225,236.21905692948,7.0604234368)
  );
#165 = CARTESIAN_POINT('',(-60.18464511701,236.08476812821,
    6.177274387192));
#166 = CARTESIAN_POINT('',(-60.17750652647,236.01724703745,
    5.288333205192));
#167 = CARTESIAN_POINT('',(-60.17733199828,236.01735465687,4.4));
#168 = CARTESIAN_POINT('',(-59.6474899242,248.25563529025,
    17.464964177107));
#169 = CARTESIAN_POINT('',(-59.6417525603,247.36072518219,
    17.413840366598));
#170 = CARTESIAN_POINT('',(-59.62943364117,246.46917960403,
    17.294631779219));
#171 = CARTESIAN_POINT('',(-59.61020538042,245.58732915778,
    17.108415486604));
#172 = CARTESIAN_POINT('',(-59.58525569559,244.71899885156,
    16.85529275136));
#173 = CARTESIAN_POINT('',(-59.55760987857,243.87358214739,
    16.536420128342));
#174 = CARTESIAN_POINT('',(-59.5227896739,243.05102459259,
    16.154885702423));
#175 = CARTESIAN_POINT('',(-59.48811646661,242.26265803675,
    15.711731007265));
#176 = CARTESIAN_POINT('',(-59.44942816278,241.50849481489,
    15.210334396625));
#177 = CARTESIAN_POINT('',(-59.40988943554,240.79635069443,
    14.654456784673));
#178 = CARTESIAN_POINT('',(-59.3697882825,240.12920264415,
    14.047213699767));
#179 = CARTESIAN_POINT('',(-59.32991885514,239.51144313196,
    13.393111958312));
#180 = CARTESIAN_POINT('',(-59.29006179323,238.89368836909,
    12.739004978513));
#181 = CARTESIAN_POINT('',(-59.25047172477,238.32518386089,
    12.037855296365));
#182 = CARTESIAN_POINT('',(-59.21203360877,237.8102772954,
    11.294333774041));
#183 = CARTESIAN_POINT('',(-59.17495250631,237.35125083759,
    10.51131435466));
#184 = CARTESIAN_POINT('',(-59.14245226974,236.95436438563,9.69702300069
    ));
#185 = CARTESIAN_POINT('',(-59.11029967718,236.61706695349,
    8.851517485469));
#186 = CARTESIAN_POINT('',(-59.08595657974,236.3476497813,7.985895749174
    ));
#187 = CARTESIAN_POINT('',(-59.06482261241,236.14293053018,
    7.100739455204));
#188 = CARTESIAN_POINT('',(-59.04995750858,236.00630156502,
    6.204921256522));
#189 = CARTESIAN_POINT('',(-59.04266179021,235.93820435164,
    5.302600844957));
#190 = CARTESIAN_POINT('',(-59.04250085526,235.93811728966,4.4));
#191 = CARTESIAN_POINT('',(-59.6474899242,248.20341536502,
    18.377319650858));
#192 = CARTESIAN_POINT('',(-59.64152333259,247.24572399368,
    18.322602468063));
#193 = CARTESIAN_POINT('',(-59.62795457854,246.2917914483,
    18.195055310839));
#194 = CARTESIAN_POINT('',(-59.60765452241,245.34778032116,
    17.99573804268));
#195 = CARTESIAN_POINT('',(-59.58149669446,244.41955719417,
    17.725040996935));
#196 = CARTESIAN_POINT('',(-59.55035206044,243.51370209902,
    17.383497273885));
#197 = CARTESIAN_POINT('',(-59.51510459244,242.63513444088,
    16.975907616731));
#198 = CARTESIAN_POINT('',(-59.47661984614,241.79054772128,
    16.501099041819));
#199 = CARTESIAN_POINT('',(-59.43578791154,240.98445901496,
    15.965259648208));
#200 = CARTESIAN_POINT('',(-59.39347838255,240.22235323098,
    15.370326644367));
#201 = CARTESIAN_POINT('',(-59.3505766597,239.50875412102,14.72081544632
    ));
#202 = CARTESIAN_POINT('',(-59.30796104856,238.84790820156,
    14.021091800301));
#203 = CARTESIAN_POINT('',(-59.2653456139,238.18706761539,
    13.321363106768));
#204 = CARTESIAN_POINT('',(-59.22301684232,237.5789982906,
    12.571401913486));
#205 = CARTESIAN_POINT('',(-59.181857943,237.02792253655,11.77572786423)
  );
#206 = CARTESIAN_POINT('',(-59.14272891417,236.53740632362,
    10.93883174259));
#207 = CARTESIAN_POINT('',(-59.1065884579,236.11213606474,
    10.066495870207));
#208 = CARTESIAN_POINT('',(-59.07416483128,235.75188387244,
    9.163472680954));
#209 = CARTESIAN_POINT('',(-59.04654207536,235.46330035565,
    8.236043274789));
#210 = CARTESIAN_POINT('',(-59.02444306799,235.24438779,7.289909697184)
  );
#211 = CARTESIAN_POINT('',(-59.00882393371,235.09818331293,
    6.331068812898));
#212 = CARTESIAN_POINT('',(-59.00058334805,235.02532491801,
    5.365745717946));
#213 = CARTESIAN_POINT('',(-59.00057901971,235.02523066429,4.4));
#214 = DEFINITIONAL_REPRESENTATION('',(#215),#218);
#215 = B_SPLINE_CURVE_WITH_KNOTS('',1,(#216,#217),.UNSPECIFIED.,.F.,.F.,
  (2,2),(5.717400108066E-02,1.570796326795),.PIECEWISE_BEZIER_KNOTS.);
#216 = CARTESIAN_POINT('',(6.28318530718,5.717400108066E-02));
#217 = CARTESIAN_POINT('',(6.28318530718,1.570796326795));
#218 = ( GEOMETRIC_REPRESENTATION_CONTEXT(2) 
PARAMETRIC_REPRESENTATION_CONTEXT() REPRESENTATION_CONTEXT('2D SPACE',''
  ) );
#219 = PCURVE('',#52,#220);
#220 = DEFINITIONAL_REPRESENTATION('',(#221),#225);
#221 = LINE('',#222,#223);
#222 = CARTESIAN_POINT('',(0.,0.));
#223 = VECTOR('',#224,1.);
#224 = DIRECTION('',(0.,1.));
#225 = ( GEOMETRIC_REPRESENTATION_CONTEXT(2) 
PARAMETRIC_REPRESENTATION_CONTEXT() REPRESENTATION_CONTEXT('2D SPACE',''
  ) );
#226 = ORIENTED_EDGE('',*,*,#227,.F.);
#227 = EDGE_CURVE('',#24,#24,#228,.T.);
#228 = SURFACE_CURVE('',#229,(#237,#244),.PCURVE_S1.);
#229 = ( BOUNDED_CURVE() B_SPLINE_CURVE(6,(#230,#231,#232,#233,#234,#235
,#236),.UNSPECIFIED.,.T.,.F.) B_SPLINE_CURVE_WITH_KNOTS((1,6,6,1),(
    -6.28318530718,0.,6.28318530718,12.566370614359),.UNSPECIFIED.) 
CURVE() GEOMETRIC_REPRESENTATION_ITEM() RATIONAL_B_SPLINE_CURVE((
    1.669078461068,1.03672962321,1.038346699848,0.853534330196,
1.038346699848,1.03672962321,1.669078461068)) REPRESENTATION_ITEM('') );
#230 = CARTESIAN_POINT('',(-59.00057901971,235.02523066429,4.4));
#231 = CARTESIAN_POINT('',(-58.95865718415,234.11234403892,4.4));
#232 = CARTESIAN_POINT('',(-60.08144980294,233.92943144036,4.4));
#233 = CARTESIAN_POINT('',(-61.06042251366,234.93063795385,4.4));
#234 = CARTESIAN_POINT('',(-60.17733199828,236.01735465687,4.4));
#235 = CARTESIAN_POINT('',(-59.04250085526,235.93811728966,4.4));
#236 = CARTESIAN_POINT('',(-59.00057901971,235.02523066429,4.4));
#237 = PCURVE('',#52,#238);
#238 = DEFINITIONAL_REPRESENTATION('',(#239),#243);
#239 = LINE('',#240,#241);
#240 = CARTESIAN_POINT('',(0.,1.570796326795));
#241 = VECTOR('',#242,1.);
#242 = DIRECTION('',(1.,0.));
#243 = ( GEOMETRIC_REPRESENTATION_CONTEXT(2) 
PARAMETRIC_REPRESENTATION_CONTEXT() REPRESENTATION_CONTEXT('2D SPACE',''
  ) );
#244 = PCURVE('',#245,#250);
#245 = CYLINDRICAL_SURFACE('',#246,0.55);
#246 = AXIS2_PLACEMENT_3D('',#247,#248,#249);
#247 = CARTESIAN_POINT('',(-59.55,235.,4.4));
#248 = DIRECTION('',(0.,0.,-1.));
#249 = DIRECTION('',(0.998947236885,4.587393508624E-02,0.));
#250 = DEFINITIONAL_REPRESENTATION('',(#251),#262);
#251 = B_SPLINE_CURVE_WITH_KNOTS('',9,(#252,#253,#254,#255,#256,#257,
    #258,#259,#260,#261),.UNSPECIFIED.,.F.,.F.,(10,10),(0.,6.28318530718
    ),.PIECEWISE_BEZIER_KNOTS.);
#252 = CARTESIAN_POINT('',(4.440892098501E-16,0.));
#253 = CARTESIAN_POINT('',(0.688032734575,0.));
#254 = CARTESIAN_POINT('',(1.399339518663,0.));
#255 = CARTESIAN_POINT('',(2.102476789657,0.));
#256 = CARTESIAN_POINT('',(2.777749646523,0.));
#257 = CARTESIAN_POINT('',(3.505435660644,0.));
#258 = CARTESIAN_POINT('',(4.180708517546,0.));
#259 = CARTESIAN_POINT('',(4.883845788504,0.));
#260 = CARTESIAN_POINT('',(5.595152572605,0.));
#261 = CARTESIAN_POINT('',(6.28318530718,0.));
#262 = ( GEOMETRIC_REPRESENTATION_CONTEXT(2) 
PARAMETRIC_REPRESENTATION_CONTEXT() REPRESENTATION_CONTEXT('2D SPACE',''
  ) );
#263 = ORIENTED_EDGE('',*,*,#21,.F.);
#264 = ORIENTED_EDGE('',*,*,#265,.T.);
#265 = EDGE_CURVE('',#22,#22,#266,.T.);
#266 = SURFACE_CURVE('',#267,(#275,#282),.PCURVE_S1.);
#267 = ( BOUNDED_CURVE() B_SPLINE_CURVE(6,(#268,#269,#270,#271,#272,#273
,#274),.UNSPECIFIED.,.T.,.F.) B_SPLINE_CURVE_WITH_KNOTS((1,6,6,1),(
    -6.28318530718,0.,6.28318530718,12.566370614359),.UNSPECIFIED.) 
CURVE() GEOMETRIC_REPRESENTATION_ITEM() RATIONAL_B_SPLINE_CURVE((
    1.669078461068,1.03672962321,1.038346699848,0.853534330196,
1.038346699848,1.03672962321,1.669078461068)) REPRESENTATION_ITEM('') );
#268 = CARTESIAN_POINT('',(-59.6474899242,248.20341536502,
    18.377319650858));
#269 = CARTESIAN_POINT('',(-59.6474899242,248.15119543979,
    19.289675124608));
#270 = CARTESIAN_POINT('',(-60.77746957039,248.13668051523,
    19.420272213647));
#271 = CARTESIAN_POINT('',(-61.7094643434,248.19061076221,
    18.376586761737));
#272 = CARTESIAN_POINT('',(-60.77746957039,248.25611615075,
    17.333563829034));
#273 = CARTESIAN_POINT('',(-59.6474899242,248.25563529025,
    17.464964177107));
#274 = CARTESIAN_POINT('',(-59.6474899242,248.20341536502,
    18.377319650858));
#275 = PCURVE('',#52,#276);
#276 = DEFINITIONAL_REPRESENTATION('',(#277),#281);
#277 = LINE('',#278,#279);
#278 = CARTESIAN_POINT('',(0.,5.717400108066E-02));
#279 = VECTOR('',#280,1.);
#280 = DIRECTION('',(1.,0.));
#281 = ( GEOMETRIC_REPRESENTATION_CONTEXT(2) 
PARAMETRIC_REPRESENTATION_CONTEXT() REPRESENTATION_CONTEXT('2D SPACE',''
  ) );
#282 = PCURVE('',#283,#288);
#283 = PLANE('',#284);
#284 = AXIS2_PLACEMENT_3D('',#285,#286,#287);
#285 = CARTESIAN_POINT('',(-60.19739215397,248.20000054107,
    18.377124198694));
#286 = DIRECTION('',(6.219917862998E-03,-0.998346699712,
    -5.714175177876E-02));
#287 = DIRECTION('',(-5.421010862428E-20,5.714285714311E-02,
    -0.99836601198));
#288 = DEFINITIONAL_REPRESENTATION('',(#289),#297);
#289 = ( BOUNDED_CURVE() B_SPLINE_CURVE(6,(#290,#291,#292,#293,#294,#295
,#296),.UNSPECIFIED.,.T.,.F.) B_SPLINE_CURVE_WITH_KNOTS((1,6,6,1),(
    -6.28318530718,0.,6.28318530718,12.566370614359),.UNSPECIFIED.) 
CURVE() GEOMETRIC_REPRESENTATION_ITEM() RATIONAL_B_SPLINE_CURVE((
    1.669078461068,1.03672962321,1.038346699848,0.853534330196,
1.038346699848,1.03672962321,1.669078461068)) REPRESENTATION_ITEM('') );
#290 = CARTESIAN_POINT('',(-1.42108547152E-14,0.549912867221));
#291 = CARTESIAN_POINT('',(-0.913848691564,0.549912867221));
#292 = CARTESIAN_POINT('',(-1.045061810785,-0.580088637581));
#293 = CARTESIAN_POINT('',(-1.42108547152E-14,-1.512101439334));
#294 = CARTESIAN_POINT('',(1.045061810785,-0.580088637581));
#295 = CARTESIAN_POINT('',(0.913848691564,0.549912867221));
#296 = CARTESIAN_POINT('',(-1.42108547152E-14,0.549912867221));
#297 = ( GEOMETRIC_REPRESENTATION_CONTEXT(2) 
PARAMETRIC_REPRESENTATION_CONTEXT() REPRESENTATION_CONTEXT('2D SPACE',''
  ) );
#298 = ADVANCED_FACE('',(#299),#245,.T.);
#299 = FACE_BOUND('',#300,.T.);
#300 = EDGE_LOOP('',(#301,#323,#350,#351));
#301 = ORIENTED_EDGE('',*,*,#302,.T.);
#302 = EDGE_CURVE('',#24,#303,#305,.T.);
#303 = VERTEX_POINT('',#304);
#304 = CARTESIAN_POINT('',(-59.00057901971,235.02523066429,-65.));
#305 = SEAM_CURVE('',#306,(#310,#316),.PCURVE_S1.);
#306 = LINE('',#307,#308);
#307 = CARTESIAN_POINT('',(-59.00057901971,235.02523066429,4.4));
#308 = VECTOR('',#309,1.);
#309 = DIRECTION('',(0.,0.,-1.));
#310 = PCURVE('',#245,#311);
#311 = DEFINITIONAL_REPRESENTATION('',(#312),#315);
#312 = B_SPLINE_CURVE_WITH_KNOTS('',1,(#313,#314),.UNSPECIFIED.,.F.,.F.,
  (2,2),(0.,69.4),.PIECEWISE_BEZIER_KNOTS.);
#313 = CARTESIAN_POINT('',(6.28318530718,0.));
#314 = CARTESIAN_POINT('',(6.28318530718,69.4));
#315 = ( GEOMETRIC_REPRESENTATION_CONTEXT(2) 
PARAMETRIC_REPRESENTATION_CONTEXT() REPRESENTATION_CONTEXT('2D SPACE',''
  ) );
#316 = PCURVE('',#245,#317);
#317 = DEFINITIONAL_REPRESENTATION('',(#318),#322);
#318 = LINE('',#319,#320);
#319 = CARTESIAN_POINT('',(0.,0.));
#320 = VECTOR('',#321,1.);
#321 = DIRECTION('',(0.,1.));
#322 = ( GEOMETRIC_REPRESENTATION_CONTEXT(2) 
PARAMETRIC_REPRESENTATION_CONTEXT() REPRESENTATION_CONTEXT('2D SPACE',''
  ) );
#323 = ORIENTED_EDGE('',*,*,#324,.F.);
#324 = EDGE_CURVE('',#303,#303,#325,.T.);
#325 = SURFACE_CURVE('',#326,(#331,#338),.PCURVE_S1.);
#326 = CIRCLE('',#327,0.55);
#327 = AXIS2_PLACEMENT_3D('',#328,#329,#330);
#328 = CARTESIAN_POINT('',(-59.55,235.,-65.));
#329 = DIRECTION('',(0.,0.,-1.));
#330 = DIRECTION('',(0.998947236885,4.587393508624E-02,0.));
#331 = PCURVE('',#245,#332);
#332 = DEFINITIONAL_REPRESENTATION('',(#333),#337);
#333 = LINE('',#334,#335);
#334 = CARTESIAN_POINT('',(0.,69.4));
#335 = VECTOR('',#336,1.);
#336 = DIRECTION('',(1.,0.));
#337 = ( GEOMETRIC_REPRESENTATION_CONTEXT(2) 
PARAMETRIC_REPRESENTATION_CONTEXT() REPRESENTATION_CONTEXT('2D SPACE',''
  ) );
#338 = PCURVE('',#339,#344);
#339 = PLANE('',#340);
#340 = AXIS2_PLACEMENT_3D('',#341,#342,#343);
#341 = CARTESIAN_POINT('',(-59.55,235.,-65.));
#342 = DIRECTION('',(-0.,-0.,-1.));
#343 = DIRECTION('',(-1.,0.,0.));
#344 = DEFINITIONAL_REPRESENTATION('',(#345),#349);
#345 = CIRCLE('',#346,0.55);
#346 = AXIS2_PLACEMENT_2D('',#347,#348);
#347 = CARTESIAN_POINT('',(0.,-2.84217094304E-14));
#348 = DIRECTION('',(-0.998947236885,4.587393508624E-02));
#349 = ( GEOMETRIC_REPRESENTATION_CONTEXT(2) 
PARAMETRIC_REPRESENTATION_CONTEXT() REPRESENTATION_CONTEXT('2D SPACE',''
  ) );
#350 = ORIENTED_EDGE('',*,*,#302,.F.);
#351 = ORIENTED_EDGE('',*,*,#227,.T.);
#352 = ADVANCED_FACE('',(#353),#283,.F.);
#353 = FACE_BOUND('',#354,.F.);
#354 = EDGE_LOOP('',(#355));
#355 = ORIENTED_EDGE('',*,*,#265,.T.);
#356 = ADVANCED_FACE('',(#357),#339,.T.);
#357 = FACE_BOUND('',#358,.T.);
#358 = EDGE_LOOP('',(#359));
#359 = ORIENTED_EDGE('',*,*,#324,.T.);
#360 = ( GEOMETRIC_REPRESENTATION_CONTEXT(3) 
GLOBAL_UNCERTAINTY_ASSIGNED_CONTEXT((#364)) GLOBAL_UNIT_ASSIGNED_CONTEXT
((#361,#362,#363)) REPRESENTATION_CONTEXT('Context #1',
  '3D Context with UNIT and UNCERTAINTY') );
#361 = ( LENGTH_UNIT() NAMED_UNIT(*) SI_UNIT(.MILLI.,.METRE.) );
#362 = ( NAMED_UNIT(*) PLANE_ANGLE_UNIT() SI_UNIT($,.RADIAN.) );
#363 = ( NAMED_UNIT(*) SI_UNIT($,.STERADIAN.) SOLID_ANGLE_UNIT() );
#364 = UNCERTAINTY_MEASURE_WITH_UNIT(LENGTH_MEASURE(2.E-05),#361,
  'distance_accuracy_value','confusion accuracy');
#365 = PRODUCT_RELATED_PRODUCT_CATEGORY('part',$,(#7));
ENDSEC;
END-ISO-10303-21;
