ISO-10303-21;
HEADER;
FILE_DESCRIPTION(('Open CASCADE Model'),'2;1');
FILE_NAME('Open CASCADE Shape Model','2026-10-10T20:47:25',('Author'),(
    'Open CASCADE'),'Open CASCADE STEP processor 7.8','Open CASCADE 7.8'
  ,'Unknown');
FILE_SCHEMA(('AUTOMOTIVE_DESIGN { 1 0 10303 214 1 1 1 1 }'));
ENDSEC;
DATA;
#1 = APPLICATION_PROTOCOL_DEFINITION('international standard',
  'automotive_design',2000,#2);
#2 = APPLICATION_CONTEXT(
  'core data for automotive mechanical design processes');
#3 = SHAPE_DEFINITION_REPRESENTATION(#4,#10);
#4 = PRODUCT_DEFINITION_SHAPE('','',#5);
#5 = PRODUCT_DEFINITION('design','',#6,#9);
#6 = PRODUCT_DEFINITION_FORMATION('','',#7);
#7 = PRODUCT('Open CASCADE STEP translator 7.8 17',
  'Open CASCADE STEP translator 7.8 17','',(#8));
#8 = PRODUCT_CONTEXT('',#2,'mechanical');
#9 = PRODUCT_DEFINITION_CONTEXT('part definition',#2,'design');
#10 = ADVANCED_BREP_SHAPE_REPRESENTATION('',(#11,#15),#360);
#11 = AXIS2_PLACEMENT_3D('',#12,#13,#14);
#12 = CARTESIAN_POINT('',(0.,0.,0.));
#13 = DIRECTION('',(0.,0.,1.));
#14 = DIRECTION('',(1.,0.,-0.));
#15 = MANIFOLD_SOLID_BREP('',#16);
#16 = CLOSED_SHELL('',(#17,#298,#352,#356));
#17 = ADVANCED_FACE('',(#18),#52,.T.);
#18 = FACE_BOUND('',#19,.T.);
#19 = EDGE_LOOP('',(#20,#226,#263,#264));
#20 = ORIENTED_EDGE('',*,*,#21,.T.);
#21 = EDGE_CURVE('',#22,#24,#26,.T.);
#22 = VERTEX_POINT('',#23);
#23 = CARTESIAN_POINT('',(-59.65253135406,248.19658463497,
    13.296928684592));
#24 = VERTEX_POINT('',#25);
#25 = CARTESIAN_POINT('',(-60.30057901971,234.9747693357,-0.68));
#26 = SEAM_CURVE('',#27,(#51,#219),.PCURVE_S1.);
#27 = ( BOUNDED_CURVE() B_SPLINE_CURVE(11,(#28,#29,#30,#31,#32,#33,#34,
    #35,#36,#37,#38,#39,#40,#41,#42,#43,#44,#45,#46,#47,#48,#49,#50),
.UNSPECIFIED.,.F.,.F.) B_SPLINE_CURVE_WITH_KNOTS((12,11,12),(
    5.717400108066E-02,0.813985163938,1.570796326795),
.PIECEWISE_BEZIER_KNOTS.) CURVE() GEOMETRIC_REPRESENTATION_ITEM() 
RATIONAL_B_SPLINE_CURVE((1.669078461068,1.669078461068,1.669078461068,
    1.669078461068,1.669078461068,1.669078461068,1.669078461068,
    1.669078461068,1.669078461068,1.669078461068,1.669078461068,
    1.669078461068,1.669078461068,1.669078461068,1.669078461068,
    1.669078461069,1.669078461067,1.66907846107,1.669078461067,
    1.669078461069,1.669078461068,1.669078461068,1.669078461068)) 
REPRESENTATION_ITEM('') );
#28 = CARTESIAN_POINT('',(-59.65253135406,248.19658463497,
    13.296928684592));
#29 = CARTESIAN_POINT('',(-59.65854722075,247.23099535272,
    13.241564243698));
#30 = CARTESIAN_POINT('',(-59.67222295929,246.26998019461,13.113446627)
  );
#31 = CARTESIAN_POINT('',(-59.69266732861,245.31961661147,
    12.912309790306));
#32 = CARTESIAN_POINT('',(-59.71898978047,244.38615397701,
    12.639674381863));
#33 = CARTESIAN_POINT('',(-59.75030436604,243.47526319779,
    12.297120959931));
#34 = CARTESIAN_POINT('',(-59.7857225212,242.59303721058,11.886382429585
    ));
#35 = CARTESIAN_POINT('',(-59.82435990588,241.74503709768,
    11.410311033296));
#36 = CARTESIAN_POINT('',(-59.86533407386,240.93631675319,
    10.872345406365));
#37 = CARTESIAN_POINT('',(-59.90775770446,240.17224287825,
    10.275674407899));
#38 = CARTESIAN_POINT('',(-59.95075211973,239.45712719345,9.624737930393
    ));
#39 = CARTESIAN_POINT('',(-59.9934335238,238.79527475843,8.923891944816)
  );
#40 = CARTESIAN_POINT('',(-60.03611510435,238.13341699012,8.223051006752
    ));
#41 = CARTESIAN_POINT('',(-60.07848422506,237.5248044007,7.472320612393)
  );
#42 = CARTESIAN_POINT('',(-60.11966174432,236.97351397046,6.676221801345
    ));
#43 = CARTESIAN_POINT('',(-60.15874530955,236.48385787351,5.839564016358
    ));
#44 = CARTESIAN_POINT('',(-60.19493127203,236.05740195485,4.967794123567
    ));
#45 = CARTESIAN_POINT('',(-60.22718553803,235.7001506219,4.066073276253)
  );
#46 = CARTESIAN_POINT('',(-60.2548297978,235.41044966986,3.140685482663)
  );
#47 = CARTESIAN_POINT('',(-60.27682457841,235.19290294672,2.197104554695
    ));
#48 = CARTESIAN_POINT('',(-60.29236365358,235.04763812476,1.241787719178
    ));
#49 = CARTESIAN_POINT('',(-60.30058334805,234.97467508199,0.2806826966)
  );
#50 = CARTESIAN_POINT('',(-60.30057901971,234.9747693357,-0.68));
#51 = PCURVE('',#52,#214);
#52 = ( BOUNDED_SURFACE() B_SPLINE_SURFACE(6,11,(
    (#53,#54,#55,#56,#57,#58,#59,#60,#61,#62,#63,#64,#65,#66,#67,#68,#69
      ,#70,#71,#72,#73,#74,#75)
    ,(#76,#77,#78,#79,#80,#81,#82,#83,#84,#85,#86,#87,#88,#89,#90,#91
      ,#92,#93,#94,#95,#96,#97,#98)
    ,(#99,#100,#101,#102,#103,#104,#105,#106,#107,#108,#109,#110,#111
      ,#112,#113,#114,#115,#116,#117,#118,#119,#120,#121)
    ,(#122,#123,#124,#125,#126,#127,#128,#129,#130,#131,#132,#133,#134
      ,#135,#136,#137,#138,#139,#140,#141,#142,#143,#144)
    ,(#145,#146,#147,#148,#149,#150,#151,#152,#153,#154,#155,#156,#157
      ,#158,#159,#160,#161,#162,#163,#164,#165,#166,#167)
    ,(#168,#169,#170,#171,#172,#173,#174,#175,#176,#177,#178,#179,#180
      ,#181,#182,#183,#184,#185,#186,#187,#188,#189,#190)
    ,(#191,#192,#193,#194,#195,#196,#197,#198,#199,#200,#201,#202,#203
      ,#204,#205,#206,#207,#208,#209,#210,#211,#212,#213
)),.UNSPECIFIED.,.T.,.F.,.F.) B_SPLINE_SURFACE_WITH_KNOTS((1,6,6,1),(12,
    11,12),(-6.28318530718,0.,6.28318530718,12.566370614359),(
    5.717400108066E-02,0.813985163938,1.570796326795),.UNSPECIFIED.) 
GEOMETRIC_REPRESENTATION_ITEM() RATIONAL_B_SPLINE_SURFACE((
    (1.669078461068,1.669078461068,1.669078461068,1.669078461068
      ,1.669078461068,1.669078461068,1.669078461068,1.669078461068
      ,1.669078461068,1.669078461068,1.669078461068,1.669078461068
      ,1.669078461068,1.669078461068,1.669078461068,1.669078461069
      ,1.669078461067,1.66907846107,1.669078461067,1.669078461069
      ,1.669078461068,1.669078461068,1.669078461068)
    ,(1.03672962321,1.03672962321,1.03672962321,1.03672962321
      ,1.03672962321,1.03672962321,1.03672962321,1.03672962321
      ,1.03672962321,1.03672962321,1.03672962321,1.03672962321
      ,1.03672962321,1.03672962321,1.036729623209,1.03672962321
      ,1.036729623209,1.03672962321,1.036729623209,1.03672962321
      ,1.036729623209,1.03672962321,1.03672962321)
    ,(1.038346699848,1.038346699848,1.038346699847,1.038346699848
      ,1.038346699847,1.038346699848,1.038346699847,1.038346699848
      ,1.038346699848,1.038346699847,1.038346699848,1.038346699848
      ,1.038346699847,1.038346699848,1.038346699847,1.038346699848
      ,1.038346699847,1.038346699848,1.038346699847,1.038346699848
      ,1.038346699847,1.038346699848,1.038346699848)
    ,(0.853534330196,0.853534330196,0.853534330196,0.853534330196
      ,0.853534330196,0.853534330196,0.853534330196,0.853534330196
      ,0.853534330196,0.853534330196,0.853534330196,0.853534330196
      ,0.853534330196,0.853534330196,0.853534330196,0.853534330196
      ,0.853534330196,0.853534330196,0.853534330196,0.853534330196
      ,0.853534330196,0.853534330196,0.853534330196)
    ,(1.038346699848,1.038346699848,1.038346699848,1.038346699847
      ,1.038346699848,1.038346699847,1.038346699848,1.038346699847
      ,1.038346699848,1.038346699847,1.038346699848,1.038346699848
      ,1.038346699847,1.038346699848,1.038346699847,1.038346699848
      ,1.038346699847,1.038346699848,1.038346699847,1.038346699848
      ,1.038346699847,1.038346699848,1.038346699848)
    ,(1.03672962321,1.03672962321,1.03672962321,1.03672962321
      ,1.036729623209,1.03672962321,1.036729623209,1.03672962321
      ,1.03672962321,1.03672962321,1.03672962321,1.03672962321
      ,1.03672962321,1.03672962321,1.036729623209,1.03672962321
      ,1.036729623209,1.03672962321,1.036729623209,1.03672962321
      ,1.036729623209,1.03672962321,1.03672962321)
    ,(1.669078461068,1.669078461068,1.669078461068,1.669078461068
      ,1.669078461068,1.669078461068,1.669078461068,1.669078461068
      ,1.669078461068,1.669078461068,1.669078461068,1.669078461068
      ,1.669078461068,1.669078461068,1.669078461068,1.669078461069
      ,1.669078461067,1.66907846107,1.669078461067,1.669078461069
      ,1.669078461068,1.669078461068,1.669078461068
))) REPRESENTATION_ITEM('') SURFACE() );
#53 = CARTESIAN_POINT('',(-59.65253135406,248.19658463497,
    13.296928684592));
#54 = CARTESIAN_POINT('',(-59.65854722075,247.23099535272,
    13.241564243698));
#55 = CARTESIAN_POINT('',(-59.67222295929,246.26998019461,13.113446627)
  );
#56 = CARTESIAN_POINT('',(-59.69266732861,245.31961661147,
    12.912309790306));
#57 = CARTESIAN_POINT('',(-59.71898978047,244.38615397701,
    12.639674381863));
#58 = CARTESIAN_POINT('',(-59.75030436604,243.47526319779,
    12.297120959931));
#59 = CARTESIAN_POINT('',(-59.7857225212,242.59303721058,11.886382429585
    ));
#60 = CARTESIAN_POINT('',(-59.82435990588,241.74503709768,
    11.410311033296));
#61 = CARTESIAN_POINT('',(-59.86533407386,240.93631675319,
    10.872345406365));
#62 = CARTESIAN_POINT('',(-59.90775770446,240.17224287825,
    10.275674407899));
#63 = CARTESIAN_POINT('',(-59.95075211973,239.45712719345,9.624737930393
    ));
#64 = CARTESIAN_POINT('',(-59.9934335238,238.79527475843,8.923891944816)
  );
#65 = CARTESIAN_POINT('',(-60.03611510435,238.13341699012,8.223051006752
    ));
#66 = CARTESIAN_POINT('',(-60.07848422506,237.5248044007,7.472320612393)
  );
#67 = CARTESIAN_POINT('',(-60.11966174432,236.97351397046,6.676221801345
    ));
#68 = CARTESIAN_POINT('',(-60.15874530955,236.48385787351,5.839564016358
    ));
#69 = CARTESIAN_POINT('',(-60.19493127203,236.05740195485,4.967794123567
    ));
#70 = CARTESIAN_POINT('',(-60.22718553803,235.7001506219,4.066073276253)
  );
#71 = CARTESIAN_POINT('',(-60.2548297978,235.41044966986,3.140685482663)
  );
#72 = CARTESIAN_POINT('',(-60.27682457841,235.19290294672,2.197104554695
    ));
#73 = CARTESIAN_POINT('',(-60.29236365358,235.04763812476,1.241787719178
    ));
#74 = CARTESIAN_POINT('',(-60.30058334805,234.97467508199,0.2806826966)
  );
#75 = CARTESIAN_POINT('',(-60.30057901971,234.9747693357,-0.68));
#76 = CARTESIAN_POINT('',(-59.65253135406,248.14436470974,
    14.209284158342));
#77 = CARTESIAN_POINT('',(-59.65877644846,247.11599416421,
    14.150326345162));
#78 = CARTESIAN_POINT('',(-59.67370202192,246.09259203888,14.01387015862
    ));
#79 = CARTESIAN_POINT('',(-59.6950947757,245.08017713654,13.799684495371
    ));
#80 = CARTESIAN_POINT('',(-59.72323361024,244.0862826844,13.509217756407
    ));
#81 = CARTESIAN_POINT('',(-59.75669641873,243.11615035517,
    13.144563946601));
#82 = CARTESIAN_POINT('',(-59.79427336811,242.17637985312,
    12.707038502766));
#83 = CARTESIAN_POINT('',(-59.83537169772,241.27335641743,
    12.199883938881));
#84 = CARTESIAN_POINT('',(-59.87909773601,240.41217159157,
    11.627218508958));
#85 = CARTESIAN_POINT('',(-59.92416875745,239.5982454148,10.991544267593
    ));
#86 = CARTESIAN_POINT('',(-59.96996374253,238.83667867032,
    10.298339676947));
#87 = CARTESIAN_POINT('',(-60.01539133038,238.13173982804,9.551871786804
    ));
#88 = CARTESIAN_POINT('',(-60.06083128368,237.42679623642,8.805409135007
    ));
#89 = CARTESIAN_POINT('',(-60.10593910751,236.7786188304,8.005867229514)
  );
#90 = CARTESIAN_POINT('',(-60.14983741011,236.19115921161,7.157615891535
    ));
#91 = CARTESIAN_POINT('',(-60.19096890167,235.67001335954,6.267081404285
    ));
#92 = CARTESIAN_POINT('',(-60.23079508386,235.21517363396,5.337266993087
    ));
#93 = CARTESIAN_POINT('',(-60.26332038395,234.83496754084,4.378028471734
    ));
#94 = CARTESIAN_POINT('',(-60.29424430214,234.52610024421,3.390833008281
    ));
#95 = CARTESIAN_POINT('',(-60.31720412285,234.29436020655,2.386274796673
    ));
#96 = CARTESIAN_POINT('',(-60.33349722845,234.13951987266,1.367935275555
    ));
#97 = CARTESIAN_POINT('',(-60.34266179021,234.06179564835,0.343827569589
    ));
#98 = CARTESIAN_POINT('',(-60.34250085526,234.06188271033,-0.68));
#99 = CARTESIAN_POINT('',(-60.78251100025,248.14388384924,
    14.340684506415));
#100 = CARTESIAN_POINT('',(-60.78873838882,247.11461230208,
    14.28187565761));
#101 = CARTESIAN_POINT('',(-60.80373351492,246.0895282546,
    14.144808212594));
#102 = CARTESIAN_POINT('',(-60.82511393521,245.07470713836,
    13.930690478236));
#103 = CARTESIAN_POINT('',(-60.85334571999,244.07762858508,
    13.639298245927));
#104 = CARTESIAN_POINT('',(-60.88693958657,243.10391790903,
    13.27329992474));
#105 = CARTESIAN_POINT('',(-60.92465475359,242.1599575831,
    12.834148360218));
#106 = CARTESIAN_POINT('',(-60.9659468282,241.25229492895,
    12.324619536855));
#107 = CARTESIAN_POINT('',(-61.00992313807,240.38639097925,
    11.748799582644));
#108 = CARTESIAN_POINT('',(-61.05525680999,239.56730621524,
    11.10938285894));
#109 = CARTESIAN_POINT('',(-61.1013586887,238.80062782719,
    10.411573439279));
#110 = CARTESIAN_POINT('',(-61.14711299444,238.09053647747,9.65970797044
    ));
#111 = CARTESIAN_POINT('',(-61.19288105315,237.38045141977,
    8.907837396987));
#112 = CARTESIAN_POINT('',(-61.23834065853,236.72715126113,
    8.102077169566));
#113 = CARTESIAN_POINT('',(-61.28261049154,236.13471889372,
    7.246773963082));
#114 = CARTESIAN_POINT('',(-61.32408273403,235.60816807387,
    6.348258861285));
#115 = CARTESIAN_POINT('',(-61.36438484247,235.15047091426,
    5.409528828881));
#116 = CARTESIAN_POINT('',(-61.39712303822,234.76388620321,
    4.440693886356));
#117 = CARTESIAN_POINT('',(-61.42849576921,234.45341485792,
    3.442526597669));
#118 = CARTESIAN_POINT('',(-61.45170122269,234.21823380727,
    2.426590815083));
#119 = CARTESIAN_POINT('',(-61.46818483688,234.06105330946,
    1.395582144884));
#120 = CARTESIAN_POINT('',(-61.47750652647,233.98275296254,
    0.358095209353));
#121 = CARTESIAN_POINT('',(-61.47733199827,233.98264534312,-0.68));
#122 = CARTESIAN_POINT('',(-61.71450577326,248.20938923778,
    13.297661573713));
#123 = CARTESIAN_POINT('',(-61.72042927092,247.25860505124,
    13.243510455967));
#124 = CARTESIAN_POINT('',(-61.73390446079,246.31086666475,
    13.116462198903));
#125 = CARTESIAN_POINT('',(-61.75407783916,245.37237023089,
    12.918868223438));
#126 = CARTESIAN_POINT('',(-61.78009399764,244.44893094227,
    12.649215947641));
#127 = CARTESIAN_POINT('',(-61.81108488359,243.54703223328,
    12.309999568774));
#128 = CARTESIAN_POINT('',(-61.84618963404,242.67223786182,
    11.903312114156));
#129 = CARTESIAN_POINT('',(-61.88453577364,241.83018874028,
    11.431052253861));
#130 = CARTESIAN_POINT('',(-61.92524562061,241.02660313814,
    10.896421934031));
#131 = CARTESIAN_POINT('',(-61.96745489364,240.26617766392,
    10.303140881732));
#132 = CARTESIAN_POINT('',(-62.01027555154,239.55390488732,
    9.654876173896));
#133 = CARTESIAN_POINT('',(-62.05283362293,238.89393922455,
    8.956134079434));
#134 = CARTESIAN_POINT('',(-62.09539120913,238.23398822362,
    8.257378108768));
#135 = CARTESIAN_POINT('',(-62.13768469304,237.62639401551,
    7.508089626797));
#136 = CARTESIAN_POINT('',(-62.17882730814,237.07550600835,
    6.712787056542));
#137 = CARTESIAN_POINT('',(-62.21799609754,236.5842375737,5.87568249562)
  );
#138 = CARTESIAN_POINT('',(-62.25409675596,236.1600042436,5.002851640908
    ));
#139 = CARTESIAN_POINT('',(-62.28666849835,235.79712762443,
    4.098689477582));
#140 = CARTESIAN_POINT('',(-62.31427244791,235.50952136999,
    3.169474561809));
#141 = CARTESIAN_POINT('',(-62.33646260767,235.2894142953,2.22110854289)
  );
#142 = CARTESIAN_POINT('',(-62.35215175832,235.14238803487,
    1.259185671932));
#143 = CARTESIAN_POINT('',(-62.36041061453,235.06962116062,0.2901736261)
  );
#144 = CARTESIAN_POINT('',(-62.36042251366,235.06936204614,-0.68));
#145 = CARTESIAN_POINT('',(-60.78251100025,248.26331948476,
    12.253976121802));
#146 = CARTESIAN_POINT('',(-60.78821410702,247.37763910599,
    12.203385911777));
#147 = CARTESIAN_POINT('',(-60.80035065322,246.49524440642,
    12.085390159879));
#148 = CARTESIAN_POINT('',(-60.81956196084,245.62234495533,
    11.901117257458));
#149 = CARTESIAN_POINT('',(-60.843639377,244.76348399846,11.650508237371
    ));
#150 = CARTESIAN_POINT('',(-60.87231990123,243.9252685791,
    11.335057171073));
#151 = CARTESIAN_POINT('',(-60.9050975476,243.11292210882,
    10.957171723305));
#152 = CARTESIAN_POINT('',(-60.94076103274,242.33110692564,
    10.518735262849));
#153 = CARTESIAN_POINT('',(-60.97844335848,241.58519795196,
    10.022279516923));
#154 = CARTESIAN_POINT('',(-61.01772200819,240.88013367579,
    9.472069682777));
#155 = CARTESIAN_POINT('',(-61.05741851897,240.21969657034,
    8.870934452761));
#156 = CARTESIAN_POINT('',(-61.09689184663,239.60815098473,
    8.223413851155));
#157 = CARTESIAN_POINT('',(-61.13635104909,238.99661035553,
    7.575887708472));
#158 = CARTESIAN_POINT('',(-61.17554678591,238.43380149869,
    6.881767507858));
#159 = CARTESIAN_POINT('',(-61.21359373586,237.92409406821,
    6.145745785796));
#160 = CARTESIAN_POINT('',(-61.25038203097,237.46956554442,
    5.370455643541));
#161 = CARTESIAN_POINT('',(-61.28235835279,237.07678686185,
    4.564483057917));
#162 = CARTESIAN_POINT('',(-61.31447664859,236.74270349692,
    3.727200581641));
#163 = CARTESIAN_POINT('',(-61.33834825647,236.4760687626,2.870397691658
    ));
#164 = CARTESIAN_POINT('',(-61.3593465031,236.27335017781,1.993927076643
    ));
#165 = CARTESIAN_POINT('',(-61.37410552455,236.13807046494,
    1.107061747779));
#166 = CARTESIAN_POINT('',(-61.38126614584,236.07065973037,
    0.213672405192));
#167 = CARTESIAN_POINT('',(-61.38144980294,236.07056855963,-0.68));
#168 = CARTESIAN_POINT('',(-59.65253135406,248.2488045602,
    12.384573210842));
#169 = CARTESIAN_POINT('',(-59.65831799305,247.34599654122,
    12.332802142233));
#170 = CARTESIAN_POINT('',(-59.67074389666,246.44736835034,
    12.213023095379));
#171 = CARTESIAN_POINT('',(-59.69023988152,245.5590560864,
    12.024935085241));
#172 = CARTESIAN_POINT('',(-59.71474595071,244.68602526962,
    11.770131007318));
#173 = CARTESIAN_POINT('',(-59.74391231335,243.8343760404,
    11.449677973262));
#174 = CARTESIAN_POINT('',(-59.77717167429,243.00969456805,
    11.065726356404));
#175 = CARTESIAN_POINT('',(-59.81334811404,242.21671777792,
    10.620738127712));
#176 = CARTESIAN_POINT('',(-59.8515704117,241.46046191482,10.11747230377
    ));
#177 = CARTESIAN_POINT('',(-59.89134665146,240.7462403417,9.559804548205
    ));
#178 = CARTESIAN_POINT('',(-59.93154049693,240.07757571658,8.95113618384
    ));
#179 = CARTESIAN_POINT('',(-59.97147571722,239.45880968883,
    8.295912102827));
#180 = CARTESIAN_POINT('',(-60.01139892503,238.84003774382,
    7.640692878497));
#181 = CARTESIAN_POINT('',(-60.05102934261,238.270989971,6.938773995271)
  );
#182 = CARTESIAN_POINT('',(-60.08948607853,237.75586872931,
    6.194827711157));
#183 = CARTESIAN_POINT('',(-60.12652171743,237.29770238748,
    5.412046628427));
#184 = CARTESIAN_POINT('',(-60.15906746019,236.89963027574,
    4.598321254052));
#185 = CARTESIAN_POINT('',(-60.19105069211,236.56533370295,
    3.754118080767));
#186 = CARTESIAN_POINT('',(-60.21541529345,236.29479909552,
    2.890537957051));
#187 = CARTESIAN_POINT('',(-60.23644503397,236.0914456869,2.007934312714
    ));
#188 = CARTESIAN_POINT('',(-60.25123007871,235.95575637686,
    1.115640162804));
#189 = CARTESIAN_POINT('',(-60.2585049059,235.88755451562,0.217537823611
    ));
#190 = CARTESIAN_POINT('',(-60.25865718415,235.88765596107,-0.68));
#191 = CARTESIAN_POINT('',(-59.65253135406,248.19658463497,
    13.296928684592));
#192 = CARTESIAN_POINT('',(-59.65854722075,247.23099535272,
    13.241564243698));
#193 = CARTESIAN_POINT('',(-59.67222295929,246.26998019461,13.113446627)
  );
#194 = CARTESIAN_POINT('',(-59.69266732861,245.31961661147,
    12.912309790306));
#195 = CARTESIAN_POINT('',(-59.71898978047,244.38615397701,
    12.639674381863));
#196 = CARTESIAN_POINT('',(-59.75030436604,243.47526319779,
    12.297120959931));
#197 = CARTESIAN_POINT('',(-59.7857225212,242.59303721058,
    11.886382429585));
#198 = CARTESIAN_POINT('',(-59.82435990588,241.74503709768,
    11.410311033296));
#199 = CARTESIAN_POINT('',(-59.86533407386,240.93631675319,
    10.872345406365));
#200 = CARTESIAN_POINT('',(-59.90775770446,240.17224287825,
    10.275674407899));
#201 = CARTESIAN_POINT('',(-59.95075211973,239.45712719345,
    9.624737930393));
#202 = CARTESIAN_POINT('',(-59.9934335238,238.79527475843,8.923891944816
    ));
#203 = CARTESIAN_POINT('',(-60.03611510435,238.13341699012,
    8.223051006752));
#204 = CARTESIAN_POINT('',(-60.07848422506,237.5248044007,7.472320612393
    ));
#205 = CARTESIAN_POINT('',(-60.11966174432,236.97351397046,
    6.676221801345));
#206 = CARTESIAN_POINT('',(-60.15874530955,236.48385787351,
    5.839564016358));
#207 = CARTESIAN_POINT('',(-60.19493127203,236.05740195485,
    4.967794123567));
#208 = CARTESIAN_POINT('',(-60.22718553803,235.7001506219,4.066073276253
    ));
#209 = CARTESIAN_POINT('',(-60.2548297978,235.41044966986,3.140685482663
    ));
#210 = CARTESIAN_POINT('',(-60.27682457841,235.19290294672,
    2.197104554695));
#211 = CARTESIAN_POINT('',(-60.29236365358,235.04763812476,
    1.241787719178));
#212 = CARTESIAN_POINT('',(-60.30058334805,234.97467508199,0.2806826966)
  );
#213 = CARTESIAN_POINT('',(-60.30057901971,234.9747693357,-0.68));
#214 = DEFINITIONAL_REPRESENTATION('',(#215),#218);
#215 = B_SPLINE_CURVE_WITH_KNOTS('',1,(#216,#217),.UNSPECIFIED.,.F.,.F.,
  (2,2),(5.717400108066E-02,1.570796326795),.PIECEWISE_BEZIER_KNOTS.);
#216 = CARTESIAN_POINT('',(6.28318530718,5.717400108066E-02));
#217 = CARTESIAN_POINT('',(6.28318530718,1.570796326795));
#218 = ( GEOMETRIC_REPRESENTATION_CONTEXT(2) 
PARAMETRIC_REPRESENTATION_CONTEXT() REPRESENTATION_CONTEXT('2D SPACE',''
  ) );
#219 = PCURVE('',#52,#220);
#220 = DEFINITIONAL_REPRESENTATION('',(#221),#225);
#221 = LINE('',#222,#223);
#222 = CARTESIAN_POINT('',(0.,0.));
#223 = VECTOR('',#224,1.);
#224 = DIRECTION('',(0.,1.));
#225 = ( GEOMETRIC_REPRESENTATION_CONTEXT(2) 
PARAMETRIC_REPRESENTATION_CONTEXT() REPRESENTATION_CONTEXT('2D SPACE',''
  ) );
#226 = ORIENTED_EDGE('',*,*,#227,.F.);
#227 = EDGE_CURVE('',#24,#24,#228,.T.);
#228 = SURFACE_CURVE('',#229,(#237,#244),.PCURVE_S1.);
#229 = ( BOUNDED_CURVE() B_SPLINE_CURVE(6,(#230,#231,#232,#233,#234,#235
,#236),.UNSPECIFIED.,.T.,.F.) B_SPLINE_CURVE_WITH_KNOTS((1,6,6,1),(
    -6.28318530718,0.,6.28318530718,12.566370614359),.UNSPECIFIED.) 
CURVE() GEOMETRIC_REPRESENTATION_ITEM() RATIONAL_B_SPLINE_CURVE((
    1.669078461068,1.03672962321,1.038346699848,0.853534330196,
1.038346699848,1.03672962321,1.669078461068)) REPRESENTATION_ITEM('') );
#230 = CARTESIAN_POINT('',(-60.30057901971,234.9747693357,-0.68));
#231 = CARTESIAN_POINT('',(-60.34250085526,234.06188271033,-0.68));
#232 = CARTESIAN_POINT('',(-61.47733199827,233.98264534312,-0.68));
#233 = CARTESIAN_POINT('',(-62.36042251366,235.06936204614,-0.68));
#234 = CARTESIAN_POINT('',(-61.38144980294,236.07056855963,-0.68));
#235 = CARTESIAN_POINT('',(-60.25865718415,235.88765596107,-0.68));
#236 = CARTESIAN_POINT('',(-60.30057901971,234.9747693357,-0.68));
#237 = PCURVE('',#52,#238);
#238 = DEFINITIONAL_REPRESENTATION('',(#239),#243);
#239 = LINE('',#240,#241);
#240 = CARTESIAN_POINT('',(0.,1.570796326795));
#241 = VECTOR('',#242,1.);
#242 = DIRECTION('',(1.,0.));
#243 = ( GEOMETRIC_REPRESENTATION_CONTEXT(2) 
PARAMETRIC_REPRESENTATION_CONTEXT() REPRESENTATION_CONTEXT('2D SPACE',''
  ) );
#244 = PCURVE('',#245,#250);
#245 = CYLINDRICAL_SURFACE('',#246,0.55);
#246 = AXIS2_PLACEMENT_3D('',#247,#248,#249);
#247 = CARTESIAN_POINT('',(-60.85,235.,-0.68));
#248 = DIRECTION('',(0.,0.,-1.));
#249 = DIRECTION('',(0.998947236885,-4.587393508623E-02,0.));
#250 = DEFINITIONAL_REPRESENTATION('',(#251),#262);
#251 = B_SPLINE_CURVE_WITH_KNOTS('',9,(#252,#253,#254,#255,#256,#257,
    #258,#259,#260,#261),.UNSPECIFIED.,.F.,.F.,(10,10),(0.,6.28318530718
    ),.PIECEWISE_BEZIER_KNOTS.);
#252 = CARTESIAN_POINT('',(4.440892098501E-16,0.));
#253 = CARTESIAN_POINT('',(0.688032734575,0.));
#254 = CARTESIAN_POINT('',(1.39933951866,0.));
#255 = CARTESIAN_POINT('',(2.102476789669,0.));
#256 = CARTESIAN_POINT('',(2.777749646496,0.));
#257 = CARTESIAN_POINT('',(3.50543566068,0.));
#258 = CARTESIAN_POINT('',(4.180708517518,0.));
#259 = CARTESIAN_POINT('',(4.883845788516,0.));
#260 = CARTESIAN_POINT('',(5.595152572605,0.));
#261 = CARTESIAN_POINT('',(6.28318530718,0.));
#262 = ( GEOMETRIC_REPRESENTATION_CONTEXT(2) 
PARAMETRIC_REPRESENTATION_CONTEXT() REPRESENTATION_CONTEXT('2D SPACE',''
  ) );
#263 = ORIENTED_EDGE('',*,*,#21,.F.);
#264 = ORIENTED_EDGE('',*,*,#265,.T.);
#265 = EDGE_CURVE('',#22,#22,#266,.T.);
#266 = SURFACE_CURVE('',#267,(#275,#282),.PCURVE_S1.);
#267 = ( BOUNDED_CURVE() B_SPLINE_CURVE(6,(#268,#269,#270,#271,#272,#273
,#274),.UNSPECIFIED.,.T.,.F.) B_SPLINE_CURVE_WITH_KNOTS((1,6,6,1),(
    -6.28318530718,0.,6.28318530718,12.566370614359),.UNSPECIFIED.) 
CURVE() GEOMETRIC_REPRESENTATION_ITEM() RATIONAL_B_SPLINE_CURVE((
    1.669078461068,1.03672962321,1.038346699848,0.853534330196,
1.038346699848,1.03672962321,1.669078461068)) REPRESENTATION_ITEM('') );
#268 = CARTESIAN_POINT('',(-59.65253135406,248.19658463497,
    13.296928684592));
#269 = CARTESIAN_POINT('',(-59.65253135406,248.14436470974,
    14.209284158342));
#270 = CARTESIAN_POINT('',(-60.78251100025,248.14388384924,
    14.340684506415));
#271 = CARTESIAN_POINT('',(-61.71450577326,248.20938923778,
    13.297661573713));
#272 = CARTESIAN_POINT('',(-60.78251100025,248.26331948476,
    12.253976121802));
#273 = CARTESIAN_POINT('',(-59.65253135406,248.2488045602,
    12.384573210842));
#274 = CARTESIAN_POINT('',(-59.65253135406,248.19658463497,
    13.296928684592));
#275 = PCURVE('',#52,#276);
#276 = DEFINITIONAL_REPRESENTATION('',(#277),#281);
#277 = LINE('',#278,#279);
#278 = CARTESIAN_POINT('',(0.,5.717400108066E-02));
#279 = VECTOR('',#280,1.);
#280 = DIRECTION('',(1.,0.));
#281 = ( GEOMETRIC_REPRESENTATION_CONTEXT(2) 
PARAMETRIC_REPRESENTATION_CONTEXT() REPRESENTATION_CONTEXT('2D SPACE',''
  ) );
#282 = PCURVE('',#283,#288);
#283 = PLANE('',#284);
#284 = AXIS2_PLACEMENT_3D('',#285,#286,#287);
#285 = CARTESIAN_POINT('',(-60.20243358383,248.19999945892,
    13.297124136756));
#286 = DIRECTION('',(-6.219917863023E-03,-0.998346699712,
    -5.714175177853E-02));
#287 = DIRECTION('',(0.,5.714285714289E-02,-0.99836601198));
#288 = DEFINITIONAL_REPRESENTATION('',(#289),#297);
#289 = ( BOUNDED_CURVE() B_SPLINE_CURVE(6,(#290,#291,#292,#293,#294,#295
,#296),.UNSPECIFIED.,.T.,.F.) B_SPLINE_CURVE_WITH_KNOTS((1,6,6,1),(
    -6.28318530718,0.,6.28318530718,12.566370614359),.UNSPECIFIED.) 
CURVE() GEOMETRIC_REPRESENTATION_ITEM() RATIONAL_B_SPLINE_CURVE((
    1.669078461068,1.03672962321,1.038346699848,0.853534330196,
1.038346699848,1.03672962321,1.669078461068)) REPRESENTATION_ITEM('') );
#290 = CARTESIAN_POINT('',(5.329070518201E-15,0.549912867221));
#291 = CARTESIAN_POINT('',(-0.913848691564,0.549912867221));
#292 = CARTESIAN_POINT('',(-1.045061810785,-0.580088637581));
#293 = CARTESIAN_POINT('',(1.7763568394E-15,-1.512101439334));
#294 = CARTESIAN_POINT('',(1.045061810785,-0.580088637581));
#295 = CARTESIAN_POINT('',(0.913848691564,0.549912867221));
#296 = CARTESIAN_POINT('',(5.329070518201E-15,0.549912867221));
#297 = ( GEOMETRIC_REPRESENTATION_CONTEXT(2) 
PARAMETRIC_REPRESENTATION_CONTEXT() REPRESENTATION_CONTEXT('2D SPACE',''
  ) );
#298 = ADVANCED_FACE('',(#299),#245,.T.);
#299 = FACE_BOUND('',#300,.T.);
#300 = EDGE_LOOP('',(#301,#323,#350,#351));
#301 = ORIENTED_EDGE('',*,*,#302,.T.);
#302 = EDGE_CURVE('',#24,#303,#305,.T.);
#303 = VERTEX_POINT('',#304);
#304 = CARTESIAN_POINT('',(-60.30057901971,234.9747693357,-65.));
#305 = SEAM_CURVE('',#306,(#310,#316),.PCURVE_S1.);
#306 = LINE('',#307,#308);
#307 = CARTESIAN_POINT('',(-60.30057901971,234.9747693357,-0.68));
#308 = VECTOR('',#309,1.);
#309 = DIRECTION('',(0.,0.,-1.));
#310 = PCURVE('',#245,#311);
#311 = DEFINITIONAL_REPRESENTATION('',(#312),#315);
#312 = B_SPLINE_CURVE_WITH_KNOTS('',1,(#313,#314),.UNSPECIFIED.,.F.,.F.,
  (2,2),(0.,64.32),.PIECEWISE_BEZIER_KNOTS.);
#313 = CARTESIAN_POINT('',(6.28318530718,0.));
#314 = CARTESIAN_POINT('',(6.28318530718,64.32));
#315 = ( GEOMETRIC_REPRESENTATION_CONTEXT(2) 
PARAMETRIC_REPRESENTATION_CONTEXT() REPRESENTATION_CONTEXT('2D SPACE',''
  ) );
#316 = PCURVE('',#245,#317);
#317 = DEFINITIONAL_REPRESENTATION('',(#318),#322);
#318 = LINE('',#319,#320);
#319 = CARTESIAN_POINT('',(0.,0.));
#320 = VECTOR('',#321,1.);
#321 = DIRECTION('',(0.,1.));
#322 = ( GEOMETRIC_REPRESENTATION_CONTEXT(2) 
PARAMETRIC_REPRESENTATION_CONTEXT() REPRESENTATION_CONTEXT('2D SPACE',''
  ) );
#323 = ORIENTED_EDGE('',*,*,#324,.F.);
#324 = EDGE_CURVE('',#303,#303,#325,.T.);
#325 = SURFACE_CURVE('',#326,(#331,#338),.PCURVE_S1.);
#326 = CIRCLE('',#327,0.55);
#327 = AXIS2_PLACEMENT_3D('',#328,#329,#330);
#328 = CARTESIAN_POINT('',(-60.85,235.,-65.));
#329 = DIRECTION('',(0.,0.,-1.));
#330 = DIRECTION('',(0.998947236885,-4.587393508623E-02,0.));
#331 = PCURVE('',#245,#332);
#332 = DEFINITIONAL_REPRESENTATION('',(#333),#337);
#333 = LINE('',#334,#335);
#334 = CARTESIAN_POINT('',(0.,64.32));
#335 = VECTOR('',#336,1.);
#336 = DIRECTION('',(1.,0.));
#337 = ( GEOMETRIC_REPRESENTATION_CONTEXT(2) 
PARAMETRIC_REPRESENTATION_CONTEXT() REPRESENTATION_CONTEXT('2D SPACE',''
  ) );
#338 = PCURVE('',#339,#344);
#339 = PLANE('',#340);
#340 = AXIS2_PLACEMENT_3D('',#341,#342,#343);
#341 = CARTESIAN_POINT('',(-60.85,235.,-65.));
#342 = DIRECTION('',(-0.,-0.,-1.));
#343 = DIRECTION('',(-1.,0.,0.));
#344 = DEFINITIONAL_REPRESENTATION('',(#345),#349);
#345 = CIRCLE('',#346,0.55);
#346 = AXIS2_PLACEMENT_2D('',#347,#348);
#347 = CARTESIAN_POINT('',(7.105427357601E-15,2.84217094304E-14));
#348 = DIRECTION('',(-0.998947236885,-4.587393508623E-02));
#349 = ( GEOMETRIC_REPRESENTATION_CONTEXT(2) 
PARAMETRIC_REPRESENTATION_CONTEXT() REPRESENTATION_CONTEXT('2D SPACE',''
  ) );
#350 = ORIENTED_EDGE('',*,*,#302,.F.);
#351 = ORIENTED_EDGE('',*,*,#227,.T.);
#352 = ADVANCED_FACE('',(#353),#283,.F.);
#353 = FACE_BOUND('',#354,.F.);
#354 = EDGE_LOOP('',(#355));
#355 = ORIENTED_EDGE('',*,*,#265,.T.);
#356 = ADVANCED_FACE('',(#357),#339,.T.);
#357 = FACE_BOUND('',#358,.T.);
#358 = EDGE_LOOP('',(#359));
#359 = ORIENTED_EDGE('',*,*,#324,.T.);
#360 = ( GEOMETRIC_REPRESENTATION_CONTEXT(3) 
GLOBAL_UNCERTAINTY_ASSIGNED_CONTEXT((#364)) GLOBAL_UNIT_ASSIGNED_CONTEXT
((#361,#362,#363)) REPRESENTATION_CONTEXT('Context #1',
  '3D Context with UNIT and UNCERTAINTY') );
#361 = ( LENGTH_UNIT() NAMED_UNIT(*) SI_UNIT(.MILLI.,.METRE.) );
#362 = ( NAMED_UNIT(*) PLANE_ANGLE_UNIT() SI_UNIT($,.RADIAN.) );
#363 = ( NAMED_UNIT(*) SI_UNIT($,.STERADIAN.) SOLID_ANGLE_UNIT() );
#364 = UNCERTAINTY_MEASURE_WITH_UNIT(LENGTH_MEASURE(2.E-05),#361,
  'distance_accuracy_value','confusion accuracy');
#365 = PRODUCT_RELATED_PRODUCT_CATEGORY('part',$,(#7));
ENDSEC;
END-ISO-10303-21;
