ISO-10303-21;
HEADER;
FILE_DESCRIPTION(('Open CASCADE Model'),'2;1');
FILE_NAME('Open CASCADE Shape Model','2026-10-10T21:36:12',('Author'),(
    'Open CASCADE'),'Open CASCADE STEP processor 7.8','Open CASCADE 7.8'
  ,'Unknown');
FILE_SCHEMA(('AUTOMOTIVE_DESIGN { 1 0 10303 214 1 1 1 1 }'));
ENDSEC;
DATA;
#1 = APPLICATION_PROTOCOL_DEFINITION('international standard',
  'automotive_design',2000,#2);
#2 = APPLICATION_CONTEXT(
  'core data for automotive mechanical design processes');
#3 = SHAPE_DEFINITION_REPRESENTATION(#4,#10);
#4 = PRODUCT_DEFINITION_SHAPE('','',#5);
#5 = PRODUCT_DEFINITION('design','',#6,#9);
#6 = PRODUCT_DEFINITION_FORMATION('','',#7);
#7 = PRODUCT('Open CASCADE STEP translator 7.8 17',
  'Open CASCADE STEP translator 7.8 17','',(#8));
#8 = PRODUCT_CONTEXT('',#2,'mechanical');
#9 = PRODUCT_DEFINITION_CONTEXT('part definition',#2,'design');
#10 = ADVANCED_BREP_SHAPE_REPRESENTATION('',(#11,#15),#976);
#11 = AXIS2_PLACEMENT_3D('',#12,#13,#14);
#12 = CARTESIAN_POINT('',(0.,0.,0.));
#13 = DIRECTION('',(0.,0.,1.));
#14 = DIRECTION('',(1.,0.,-0.));
#15 = MANIFOLD_SOLID_BREP('',#16);
#16 = CLOSED_SHELL('',(#17,#914,#968,#972));
#17 = ADVANCED_FACE('',(#18),#129,.T.);
#18 = FACE_BOUND('',#19,.T.);
#19 = EDGE_LOOP('',(#20,#842,#879,#880));
#20 = ORIENTED_EDGE('',*,*,#21,.T.);
#21 = EDGE_CURVE('',#22,#24,#26,.T.);
#22 = VERTEX_POINT('',#23);
#23 = CARTESIAN_POINT('',(-62.14454244103,248.2074789129,13.300361898306
    ));
#24 = VERTEX_POINT('',#25);
#25 = CARTESIAN_POINT('',(-60.30356877907,233.06255334358,-2.68));
#26 = SEAM_CURVE('',#27,(#128,#835),.PCURVE_S1.);
#27 = ( BOUNDED_CURVE() B_SPLINE_CURVE(11,(#28,#29,#30,#31,#32,#33,#34,
    #35,#36,#37,#38,#39,#40,#41,#42,#43,#44,#45,#46,#47,#48,#49,#50,#51,
    #52,#53,#54,#55,#56,#57,#58,#59,#60,#61,#62,#63,#64,#65,#66,#67,#68,
    #69,#70,#71,#72,#73,#74,#75,#76,#77,#78,#79,#80,#81,#82,#83,#84,#85,
    #86,#87,#88,#89,#90,#91,#92,#93,#94,#95,#96,#97,#98,#99,#100,#101,
    #102,#103,#104,#105,#106,#107,#108,#109,#110,#111,#112,#113,#114,
    #115,#116,#117,#118,#119,#120,#121,#122,#123,#124,#125,#126,#127),
.UNSPECIFIED.,.F.,.F.) B_SPLINE_CURVE_WITH_KNOTS((12,11,11,11,11,11,11,
    11,11,12),(5.002085680577E-02,0.14506932368,0.240117790554,
    0.430214724303,0.8104085918,1.190602459298,1.285650926172,
1.380699393046,1.475747859921,1.570796326795),.UNSPECIFIED.) CURVE() 
GEOMETRIC_REPRESENTATION_ITEM() RATIONAL_B_SPLINE_CURVE((1.669078461068,
    1.669078461068,1.669078461069,1.669078461067,1.66907846107,
    1.669078461066,1.66907846107,1.669078461067,1.669078461069,
    1.669078461068,1.669078461068,1.669078461068,1.669078461068,
    1.669078461069,1.669078461066,1.669078461072,1.669078461064,
    1.669078461073,1.669078461065,1.66907846107,1.669078461067,
    1.669078461068,1.669078461068,1.669078461068,1.669078461068,
    1.669078461068,1.669078461068,1.669078461068,1.669078461068,
    1.669078461069,1.669078461068,1.669078461068,1.669078461068,
    1.669078461068,1.669078461068,1.669078461068,1.669078461068,
    1.669078461068,1.669078461068,1.669078461068,1.669078461068,
    1.669078461068,1.669078461068,1.669078461068,1.669078461068,
    1.669078461068,1.669078461068,1.669078461068,1.669078461068,
    1.669078461069,1.669078461068,1.669078461068,1.669078461068,
    1.669078461068,1.669078461068,1.669078461068,1.669078461068,
    1.669078461069,1.669078461066,1.669078461071,1.669078461064,
    1.669078461072,1.669078461066,1.66907846107,1.669078461068,
    1.669078461068,1.669078461068,1.669078461068,1.669078461069,
    1.669078461066,1.669078461072,1.669078461064,1.669078461072,
    1.669078461065,1.66907846107,1.669078461068,1.669078461068,
    1.669078461068,1.669078461068,1.669078461068,1.669078461068,
    1.669078461068,1.669078461068,1.669078461068,1.669078461068,
    1.669078461068,1.669078461068,1.669078461068,1.669078461068,
    1.669078461068,1.669078461068,1.669078461068,1.669078461069,
    1.669078461068,1.669078461069,1.669078461068,1.669078461068,
1.669078461068,1.669078461068,1.669078461068)) REPRESENTATION_ITEM('') 
  );
#28 = CARTESIAN_POINT('',(-62.14454244103,248.2074789129,13.300361898306
    ));
#29 = CARTESIAN_POINT('',(-62.14267698485,248.07064721385,
    13.293542067475));
#30 = CARTESIAN_POINT('',(-62.14046849864,247.93386500776,
    13.285408566985));
#31 = CARTESIAN_POINT('',(-62.13792179109,247.79714373333,
    13.275987810398));
#32 = CARTESIAN_POINT('',(-62.13504179496,247.66050642644,
    13.265197179508));
#33 = CARTESIAN_POINT('',(-62.13183332607,247.52396284033,
    13.253084278128));
#34 = CARTESIAN_POINT('',(-62.12830115399,247.38751833415,
    13.239733985357));
#35 = CARTESIAN_POINT('',(-62.12445011506,247.25118625836,
    13.225146682919));
#36 = CARTESIAN_POINT('',(-62.12028512791,247.11498850599,13.20923905967
    ));
#37 = CARTESIAN_POINT('',(-62.11581110014,246.978943842,13.191966926741)
  );
#38 = CARTESIAN_POINT('',(-62.11103284429,246.8430585634,13.173417505103
    ));
#39 = CARTESIAN_POINT('',(-62.10595524991,246.70734898568,
    13.153566677564));
#40 = CARTESIAN_POINT('',(-62.10087753741,246.57163230866,
    13.133764473831));
#41 = CARTESIAN_POINT('',(-62.0955004546,246.43609057426,13.11265956723)
  );
#42 = CARTESIAN_POINT('',(-62.08982891435,246.30073953227,
    13.090246205428));
#43 = CARTESIAN_POINT('',(-62.0838677539,246.16559158516,13.066534689804
    ));
#44 = CARTESIAN_POINT('',(-62.07762179061,246.03065820229,
    13.041539347572));
#45 = CARTESIAN_POINT('',(-62.07109585967,245.89595154214,13.01527053882
    ));
#46 = CARTESIAN_POINT('',(-62.06429483398,245.76148528239,
    12.987730698761));
#47 = CARTESIAN_POINT('',(-62.05722362614,245.6272746578,12.958914414811
    ));
#48 = CARTESIAN_POINT('',(-62.04988717245,245.49333570609,
    12.928812538902));
#49 = CARTESIAN_POINT('',(-62.04229039905,245.35968372161,
    12.897420334673));
#50 = CARTESIAN_POINT('',(-62.03443817014,245.22633091697,
    12.864749659795));
#51 = CARTESIAN_POINT('',(-62.01873312956,244.95960517829,
    12.799490664189));
#52 = CARTESIAN_POINT('',(-62.00200611254,244.6940740735,12.729112554239
    ));
#53 = CARTESIAN_POINT('',(-61.98429762795,244.42987714792,
    12.653567099888));
#54 = CARTESIAN_POINT('',(-61.96563984864,244.16698467185,
    12.573181725631));
#55 = CARTESIAN_POINT('',(-61.946086815,243.90572259588,12.48782447825)
  );
#56 = CARTESIAN_POINT('',(-61.92565690082,243.64600408227,
    12.397042783247));
#57 = CARTESIAN_POINT('',(-61.9044080039,243.38799130464,12.302044622968
    ));
#58 = CARTESIAN_POINT('',(-61.88237086518,243.13189739021,
    12.201494280532));
#59 = CARTESIAN_POINT('',(-61.85958310736,242.8776388816,12.09646943418)
  );
#60 = CARTESIAN_POINT('',(-61.83608821931,242.62545373295,
    11.986507044471));
#61 = CARTESIAN_POINT('',(-61.81192447307,242.37541402065,
    11.871752915529));
#62 = CARTESIAN_POINT('',(-61.76359466241,241.87528783648,11.64234704501
    ));
#63 = CARTESIAN_POINT('',(-61.71258898712,241.38374235234,11.39375441266
    ));
#64 = CARTESIAN_POINT('',(-61.6592218782,240.90156952721,11.126419013925
    ));
#65 = CARTESIAN_POINT('',(-61.60380298785,240.42947955833,
    10.840862467063));
#66 = CARTESIAN_POINT('',(-61.54665257414,239.96834411321,
    10.537344776723));
#67 = CARTESIAN_POINT('',(-61.48808839013,239.51894326182,10.21630122149
    ));
#68 = CARTESIAN_POINT('',(-61.42842310104,239.08193765731,9.878367004386
    ));
#69 = CARTESIAN_POINT('',(-61.367972038,238.65802435486,9.524095178207)
  );
#70 = CARTESIAN_POINT('',(-61.30705579165,238.24796057459,9.153921665737
    ));
#71 = CARTESIAN_POINT('',(-61.24599075431,237.85235470487,8.768533936308
    ));
#72 = CARTESIAN_POINT('',(-61.18509323478,237.47182790778,8.368557076896
    ));
#73 = CARTESIAN_POINT('',(-61.12419618514,237.0913068878,7.968574650824)
  );
#74 = CARTESIAN_POINT('',(-61.06346748641,236.72587613175,7.553990376879
    ));
#75 = CARTESIAN_POINT('',(-61.00321809671,236.3760689875,7.125500617176)
  );
#76 = CARTESIAN_POINT('',(-60.94379963977,236.04287383974,6.683524841506
    ));
#77 = CARTESIAN_POINT('',(-60.88545556354,235.72602188607,6.229203358089
    ));
#78 = CARTESIAN_POINT('',(-60.8285864419,235.4269166164,5.76281625346));
#79 = CARTESIAN_POINT('',(-60.77349631203,235.14590720573,5.285151500064
    ));
#80 = CARTESIAN_POINT('',(-60.72042479286,234.88259728276,4.797399620795
    ));
#81 = CARTESIAN_POINT('',(-60.66980131932,234.63857362293,4.299777469049
    ));
#82 = CARTESIAN_POINT('',(-60.62188713558,234.41357808234,3.793401819973
    ));
#83 = CARTESIAN_POINT('',(-60.5770017,234.20797238787,3.279061802055));
#84 = CARTESIAN_POINT('',(-60.56578340185,234.15660042677,3.15046475618)
  );
#85 = CARTESIAN_POINT('',(-60.55475453984,234.1064415036,3.021369895247)
  );
#86 = CARTESIAN_POINT('',(-60.54391937096,234.0574935523,2.891792416012)
  );
#87 = CARTESIAN_POINT('',(-60.53328349222,234.00976740502,2.761743020776
    ));
#88 = CARTESIAN_POINT('',(-60.5228528553,233.96327720576,2.631231295643)
  );
#89 = CARTESIAN_POINT('',(-60.51263310675,233.91803399579,2.500267961248
    ));
#90 = CARTESIAN_POINT('',(-60.50262925387,233.87404247079,2.368865996052
    ));
#91 = CARTESIAN_POINT('',(-60.49284565611,233.83130090972,2.237040632086
    ));
#92 = CARTESIAN_POINT('',(-60.48328634212,233.78980427542,2.104808223255
    ));
#93 = CARTESIAN_POINT('',(-60.47395565235,233.74955048698,1.97218398612)
  );
#94 = CARTESIAN_POINT('',(-60.46485920727,233.71054986383,1.839178613209
    ));
#95 = CARTESIAN_POINT('',(-60.45576678378,233.67158648539,1.706162047625
    ));
#96 = CARTESIAN_POINT('',(-60.44690875756,233.63387750132,1.57276452974)
  );
#97 = CARTESIAN_POINT('',(-60.43828920838,233.59741810205,1.439001237612
    ));
#98 = CARTESIAN_POINT('',(-60.42991391908,233.56221925605,1.304883519115
    ));
#99 = CARTESIAN_POINT('',(-60.42178912077,233.52829597739,1.170421789119
    ));
#100 = CARTESIAN_POINT('',(-60.41392065315,233.49565947959,
    1.035627455081));
#101 = CARTESIAN_POINT('',(-60.40631354017,233.46431321572,
    0.900513870781));
#102 = CARTESIAN_POINT('',(-60.39897198088,233.43425280487,
    0.765096318556));
#103 = CARTESIAN_POINT('',(-60.39189975562,233.40546984479,
    0.629391019621));
#104 = CARTESIAN_POINT('',(-60.38510104732,233.37795961094,
    0.493413172887));
#105 = CARTESIAN_POINT('',(-60.37858167817,233.35173264175,
    0.357174021933));
#106 = CARTESIAN_POINT('',(-60.37206729724,233.32555051164,0.22092600438
    ));
#107 = CARTESIAN_POINT('',(-60.36583241423,233.30065290154,
    8.441710158266E-02));
#108 = CARTESIAN_POINT('',(-60.35988475287,233.27706637875,
    -5.234265693732E-02));
#109 = CARTESIAN_POINT('',(-60.3542202924,233.25471255358,
    -0.189328369412));
#110 = CARTESIAN_POINT('',(-60.34884888249,233.23363719741,
    -0.326533208969));
#111 = CARTESIAN_POINT('',(-60.34378450077,233.21392276326,
    -0.463955268134));
#112 = CARTESIAN_POINT('',(-60.33903228176,233.19557215124,
    -0.601580628366));
#113 = CARTESIAN_POINT('',(-60.33458841706,233.17850791817,
    -0.739383698989));
#114 = CARTESIAN_POINT('',(-60.33045299728,233.16268748848,
    -0.877344586884));
#115 = CARTESIAN_POINT('',(-60.32663983684,233.14819128105,
    -1.015461974827));
#116 = CARTESIAN_POINT('',(-60.32315129373,233.13499702371,
    -1.153718703455));
#117 = CARTESIAN_POINT('',(-60.31966865153,233.12185475545,
    -1.291980537328));
#118 = CARTESIAN_POINT('',(-60.31651078228,233.11001568602,
    -1.430381051394));
#119 = CARTESIAN_POINT('',(-60.3136858547,233.0995084717,-1.568907842648
    ));
#120 = CARTESIAN_POINT('',(-60.31118846942,233.09024229019,
    -1.707543381439));
#121 = CARTESIAN_POINT('',(-60.3090292741,233.0822677644,-1.846276759812
    ));
#122 = CARTESIAN_POINT('',(-60.30722367261,233.07567720968,
    -1.985098531464));
#123 = CARTESIAN_POINT('',(-60.3057768183,233.07047222745,
    -2.123994499954));
#124 = CARTESIAN_POINT('',(-60.30468351962,233.06656292988,
    -2.262946210262));
#125 = CARTESIAN_POINT('',(-60.30394312483,233.06389934208,
    -2.401937797433));
#126 = CARTESIAN_POINT('',(-60.30357089073,233.06257178994,
    -2.540960744431));
#127 = CARTESIAN_POINT('',(-60.30356877907,233.06255334358,-2.68));
#128 = PCURVE('',#129,#830);
#129 = ( BOUNDED_SURFACE() B_SPLINE_SURFACE(6,11,(
    (#130,#131,#132,#133,#134,#135,#136,#137,#138,#139,#140,#141,#142
      ,#143,#144,#145,#146,#147,#148,#149,#150,#151,#152,#153,#154,#155
      ,#156,#157,#158,#159,#160,#161,#162,#163,#164,#165,#166,#167,#168
      ,#169,#170,#171,#172,#173,#174,#175,#176,#177,#178,#179,#180,#181
      ,#182,#183,#184,#185,#186,#187,#188,#189,#190,#191,#192,#193,#194
      ,#195,#196,#197,#198,#199,#200,#201,#202,#203,#204,#205,#206,#207
      ,#208,#209,#210,#211,#212,#213,#214,#215,#216,#217,#218,#219,#220
      ,#221,#222,#223,#224,#225,#226,#227,#228,#229)
    ,(#230,#231,#232,#233,#234,#235,#236,#237,#238,#239,#240,#241,#242
      ,#243,#244,#245,#246,#247,#248,#249,#250,#251,#252,#253,#254,#255
      ,#256,#257,#258,#259,#260,#261,#262,#263,#264,#265,#266,#267,#268
      ,#269,#270,#271,#272,#273,#274,#275,#276,#277,#278,#279,#280,#281
      ,#282,#283,#284,#285,#286,#287,#288,#289,#290,#291,#292,#293,#294
      ,#295,#296,#297,#298,#299,#300,#301,#302,#303,#304,#305,#306,#307
      ,#308,#309,#310,#311,#312,#313,#314,#315,#316,#317,#318,#319,#320
      ,#321,#322,#323,#324,#325,#326,#327,#328,#329)
    ,(#330,#331,#332,#333,#334,#335,#336,#337,#338,#339,#340,#341,#342
      ,#343,#344,#345,#346,#347,#348,#349,#350,#351,#352,#353,#354,#355
      ,#356,#357,#358,#359,#360,#361,#362,#363,#364,#365,#366,#367,#368
      ,#369,#370,#371,#372,#373,#374,#375,#376,#377,#378,#379,#380,#381
      ,#382,#383,#384,#385,#386,#387,#388,#389,#390,#391,#392,#393,#394
      ,#395,#396,#397,#398,#399,#400,#401,#402,#403,#404,#405,#406,#407
      ,#408,#409,#410,#411,#412,#413,#414,#415,#416,#417,#418,#419,#420
      ,#421,#422,#423,#424,#425,#426,#427,#428,#429)
    ,(#430,#431,#432,#433,#434,#435,#436,#437,#438,#439,#440,#441,#442
      ,#443,#444,#445,#446,#447,#448,#449,#450,#451,#452,#453,#454,#455
      ,#456,#457,#458,#459,#460,#461,#462,#463,#464,#465,#466,#467,#468
      ,#469,#470,#471,#472,#473,#474,#475,#476,#477,#478,#479,#480,#481
      ,#482,#483,#484,#485,#486,#487,#488,#489,#490,#491,#492,#493,#494
      ,#495,#496,#497,#498,#499,#500,#501,#502,#503,#504,#505,#506,#507
      ,#508,#509,#510,#511,#512,#513,#514,#515,#516,#517,#518,#519,#520
      ,#521,#522,#523,#524,#525,#526,#527,#528,#529)
    ,(#530,#531,#532,#533,#534,#535,#536,#537,#538,#539,#540,#541,#542
      ,#543,#544,#545,#546,#547,#548,#549,#550,#551,#552,#553,#554,#555
      ,#556,#557,#558,#559,#560,#561,#562,#563,#564,#565,#566,#567,#568
      ,#569,#570,#571,#572,#573,#574,#575,#576,#577,#578,#579,#580,#581
      ,#582,#583,#584,#585,#586,#587,#588,#589,#590,#591,#592,#593,#594
      ,#595,#596,#597,#598,#599,#600,#601,#602,#603,#604,#605,#606,#607
      ,#608,#609,#610,#611,#612,#613,#614,#615,#616,#617,#618,#619,#620
      ,#621,#622,#623,#624,#625,#626,#627,#628,#629)
    ,(#630,#631,#632,#633,#634,#635,#636,#637,#638,#639,#640,#641,#642
      ,#643,#644,#645,#646,#647,#648,#649,#650,#651,#652,#653,#654,#655
      ,#656,#657,#658,#659,#660,#661,#662,#663,#664,#665,#666,#667,#668
      ,#669,#670,#671,#672,#673,#674,#675,#676,#677,#678,#679,#680,#681
      ,#682,#683,#684,#685,#686,#687,#688,#689,#690,#691,#692,#693,#694
      ,#695,#696,#697,#698,#699,#700,#701,#702,#703,#704,#705,#706,#707
      ,#708,#709,#710,#711,#712,#713,#714,#715,#716,#717,#718,#719,#720
      ,#721,#722,#723,#724,#725,#726,#727,#728,#729)
    ,(#730,#731,#732,#733,#734,#735,#736,#737,#738,#739,#740,#741,#742
      ,#743,#744,#745,#746,#747,#748,#749,#750,#751,#752,#753,#754,#755
      ,#756,#757,#758,#759,#760,#761,#762,#763,#764,#765,#766,#767,#768
      ,#769,#770,#771,#772,#773,#774,#775,#776,#777,#778,#779,#780,#781
      ,#782,#783,#784,#785,#786,#787,#788,#789,#790,#791,#792,#793,#794
      ,#795,#796,#797,#798,#799,#800,#801,#802,#803,#804,#805,#806,#807
      ,#808,#809,#810,#811,#812,#813,#814,#815,#816,#817,#818,#819,#820
      ,#821,#822,#823,#824,#825,#826,#827,#828,#829
)),.UNSPECIFIED.,.T.,.F.,.F.) B_SPLINE_SURFACE_WITH_KNOTS((1,6,6,1),(12,
    11,11,11,11,11,11,11,11,12),(-6.28318530718,0.,6.28318530718,
    12.566370614359),(5.002085680577E-02,0.14506932368,0.240117790554,
    0.430214724303,0.8104085918,1.190602459298,1.285650926172,
    1.380699393046,1.475747859921,1.570796326795),.UNSPECIFIED.) 
GEOMETRIC_REPRESENTATION_ITEM() RATIONAL_B_SPLINE_SURFACE((
    (1.669078461068,1.669078461068,1.669078461069,1.669078461067
      ,1.66907846107,1.669078461066,1.66907846107,1.669078461067
      ,1.669078461069,1.669078461068,1.669078461068,1.669078461068
      ,1.669078461068,1.669078461069,1.669078461066,1.669078461072
      ,1.669078461064,1.669078461073,1.669078461065,1.66907846107
      ,1.669078461067,1.669078461068,1.669078461068,1.669078461068
      ,1.669078461068,1.669078461068,1.669078461068,1.669078461068
      ,1.669078461068,1.669078461069,1.669078461068,1.669078461068
      ,1.669078461068,1.669078461068,1.669078461068,1.669078461068
      ,1.669078461068,1.669078461068,1.669078461068,1.669078461068
      ,1.669078461068,1.669078461068,1.669078461068,1.669078461068
      ,1.669078461068,1.669078461068,1.669078461068,1.669078461068
      ,1.669078461068,1.669078461069,1.669078461068,1.669078461068
      ,1.669078461068,1.669078461068,1.669078461068,1.669078461068
      ,1.669078461068,1.669078461069,1.669078461066,1.669078461071
      ,1.669078461064,1.669078461072,1.669078461066,1.66907846107
      ,1.669078461068,1.669078461068,1.669078461068,1.669078461068
      ,1.669078461069,1.669078461066,1.669078461072,1.669078461064
      ,1.669078461072,1.669078461065,1.66907846107,1.669078461068
      ,1.669078461068,1.669078461068,1.669078461068,1.669078461068
      ,1.669078461068,1.669078461068,1.669078461068,1.669078461068
      ,1.669078461068,1.669078461068,1.669078461068,1.669078461068
      ,1.669078461068,1.669078461068,1.669078461068,1.669078461068
      ,1.669078461069,1.669078461068,1.669078461069,1.669078461068
      ,1.669078461068,1.669078461068,1.669078461068,1.669078461068)
    ,(1.03672962321,1.03672962321,1.03672962321,1.036729623209
      ,1.03672962321,1.036729623209,1.03672962321,1.036729623209
      ,1.03672962321,1.03672962321,1.03672962321,1.03672962321
      ,1.03672962321,1.03672962321,1.036729623209,1.036729623211
      ,1.036729623207,1.036729623212,1.036729623208,1.03672962321
      ,1.036729623209,1.03672962321,1.03672962321,1.03672962321
      ,1.03672962321,1.03672962321,1.03672962321,1.03672962321
      ,1.03672962321,1.03672962321,1.03672962321,1.03672962321
      ,1.03672962321,1.03672962321,1.03672962321,1.03672962321
      ,1.03672962321,1.036729623209,1.03672962321,1.036729623209
      ,1.03672962321,1.036729623209,1.03672962321,1.03672962321
      ,1.03672962321,1.03672962321,1.036729623209,1.03672962321
      ,1.036729623209,1.03672962321,1.036729623209,1.03672962321
      ,1.036729623209,1.03672962321,1.03672962321,1.03672962321
      ,1.036729623209,1.03672962321,1.036729623208,1.036729623212
      ,1.036729623206,1.036729623213,1.036729623207,1.036729623211
      ,1.036729623209,1.03672962321,1.03672962321,1.036729623209
      ,1.03672962321,1.036729623208,1.036729623212,1.036729623207
      ,1.036729623212,1.036729623208,1.036729623211,1.036729623209
      ,1.03672962321,1.03672962321,1.03672962321,1.03672962321
      ,1.03672962321,1.03672962321,1.036729623209,1.03672962321
      ,1.036729623209,1.03672962321,1.03672962321,1.03672962321
      ,1.03672962321,1.03672962321,1.03672962321,1.036729623209
      ,1.03672962321,1.03672962321,1.03672962321,1.03672962321
      ,1.03672962321,1.03672962321,1.03672962321,1.03672962321)
    ,(1.038346699848,1.038346699847,1.038346699848,1.038346699847
      ,1.038346699848,1.038346699846,1.038346699849,1.038346699847
      ,1.038346699848,1.038346699847,1.038346699848,1.038346699848
      ,1.038346699847,1.038346699848,1.038346699846,1.038346699849
      ,1.038346699845,1.03834669985,1.038346699846,1.038346699848
      ,1.038346699847,1.038346699848,1.038346699848,1.038346699847
      ,1.038346699848,1.038346699847,1.038346699848,1.038346699847
      ,1.038346699848,1.038346699848,1.038346699848,1.038346699847
      ,1.038346699848,1.038346699848,1.038346699848,1.038346699847
      ,1.038346699848,1.038346699847,1.038346699848,1.038346699847
      ,1.038346699848,1.038346699847,1.038346699847,1.038346699848
      ,1.038346699848,1.038346699848,1.038346699847,1.038346699848
      ,1.038346699847,1.038346699847,1.038346699848,1.038346699847
      ,1.038346699848,1.038346699847,1.038346699848,1.038346699848
      ,1.038346699847,1.038346699848,1.038346699846,1.03834669985
      ,1.038346699844,1.038346699851,1.038346699845,1.038346699849
      ,1.038346699847,1.038346699848,1.038346699848,1.038346699847
      ,1.038346699848,1.038346699846,1.03834669985,1.038346699845
      ,1.03834669985,1.038346699846,1.038346699848,1.038346699847
      ,1.038346699848,1.038346699848,1.038346699848,1.038346699847
      ,1.038346699848,1.038346699847,1.038346699847,1.038346699848
      ,1.038346699847,1.038346699848,1.038346699847,1.038346699848
      ,1.038346699848,1.038346699847,1.038346699848,1.038346699847
      ,1.038346699848,1.038346699846,1.038346699849,1.038346699847
      ,1.038346699848,1.038346699847,1.038346699848,1.038346699848)
    ,(0.853534330196,0.853534330196,0.853534330196,0.853534330196
      ,0.853534330197,0.853534330196,0.853534330197,0.853534330196
      ,0.853534330196,0.853534330196,0.853534330196,0.853534330196
      ,0.853534330196,0.853534330196,0.853534330195,0.853534330197
      ,0.853534330195,0.853534330198,0.853534330195,0.853534330197
      ,0.853534330196,0.853534330196,0.853534330196,0.853534330196
      ,0.853534330196,0.853534330196,0.853534330196,0.853534330196
      ,0.853534330196,0.853534330196,0.853534330196,0.853534330196
      ,0.853534330196,0.853534330196,0.853534330196,0.853534330196
      ,0.853534330197,0.853534330195,0.853534330197,0.853534330195
      ,0.853534330197,0.853534330196,0.853534330196,0.853534330196
      ,0.853534330196,0.853534330196,0.853534330196,0.853534330196
      ,0.853534330196,0.853534330196,0.853534330196,0.853534330196
      ,0.853534330196,0.853534330196,0.853534330196,0.853534330196
      ,0.853534330196,0.853534330197,0.853534330195,0.853534330198
      ,0.853534330194,0.853534330198,0.853534330195,0.853534330197
      ,0.853534330196,0.853534330196,0.853534330196,0.853534330196
      ,0.853534330197,0.853534330195,0.853534330198,0.853534330194
      ,0.853534330198,0.853534330195,0.853534330197,0.853534330196
      ,0.853534330196,0.853534330196,0.853534330196,0.853534330196
      ,0.853534330196,0.853534330196,0.853534330196,0.853534330196
      ,0.853534330196,0.853534330196,0.853534330196,0.853534330196
      ,0.853534330196,0.853534330196,0.853534330196,0.853534330196
      ,0.853534330197,0.853534330196,0.853534330196,0.853534330196
      ,0.853534330196,0.853534330196,0.853534330196,0.853534330196)
    ,(1.038346699848,1.038346699847,1.038346699848,1.038346699847
      ,1.038346699849,1.038346699846,1.038346699849,1.038346699846
      ,1.038346699848,1.038346699847,1.038346699848,1.038346699848
      ,1.038346699847,1.038346699848,1.038346699846,1.038346699849
      ,1.038346699845,1.03834669985,1.038346699846,1.038346699848
      ,1.038346699847,1.038346699848,1.038346699848,1.038346699847
      ,1.038346699848,1.038346699847,1.038346699848,1.038346699847
      ,1.038346699847,1.038346699848,1.038346699847,1.038346699848
      ,1.038346699848,1.038346699848,1.038346699848,1.038346699847
      ,1.038346699848,1.038346699847,1.038346699848,1.038346699847
      ,1.038346699848,1.038346699847,1.038346699848,1.038346699848
      ,1.038346699848,1.038346699848,1.038346699848,1.038346699847
      ,1.038346699848,1.038346699847,1.038346699848,1.038346699847
      ,1.038346699848,1.038346699847,1.038346699848,1.038346699848
      ,1.038346699847,1.038346699848,1.038346699846,1.03834669985
      ,1.038346699845,1.03834669985,1.038346699846,1.038346699849
      ,1.038346699847,1.038346699848,1.038346699848,1.038346699847
      ,1.038346699848,1.038346699846,1.03834669985,1.038346699845
      ,1.03834669985,1.038346699846,1.038346699849,1.038346699847
      ,1.038346699848,1.038346699848,1.038346699847,1.038346699848
      ,1.038346699847,1.038346699848,1.038346699847,1.038346699848
      ,1.038346699847,1.038346699848,1.038346699847,1.038346699848
      ,1.038346699848,1.038346699847,1.038346699848,1.038346699847
      ,1.038346699849,1.038346699846,1.038346699849,1.038346699847
      ,1.038346699848,1.038346699847,1.038346699848,1.038346699848)
    ,(1.03672962321,1.03672962321,1.03672962321,1.03672962321
      ,1.03672962321,1.03672962321,1.03672962321,1.03672962321
      ,1.03672962321,1.03672962321,1.03672962321,1.03672962321
      ,1.03672962321,1.03672962321,1.036729623209,1.036729623211
      ,1.036729623208,1.036729623211,1.036729623208,1.03672962321
      ,1.036729623209,1.03672962321,1.03672962321,1.03672962321
      ,1.03672962321,1.036729623209,1.03672962321,1.036729623209
      ,1.03672962321,1.03672962321,1.03672962321,1.03672962321
      ,1.03672962321,1.03672962321,1.03672962321,1.036729623209
      ,1.03672962321,1.036729623209,1.03672962321,1.036729623209
      ,1.03672962321,1.036729623209,1.03672962321,1.03672962321
      ,1.03672962321,1.03672962321,1.036729623209,1.03672962321
      ,1.036729623209,1.03672962321,1.036729623209,1.03672962321
      ,1.036729623209,1.03672962321,1.03672962321,1.03672962321
      ,1.036729623209,1.03672962321,1.036729623208,1.036729623212
      ,1.036729623206,1.036729623213,1.036729623207,1.036729623211
      ,1.036729623209,1.03672962321,1.03672962321,1.036729623209
      ,1.03672962321,1.036729623208,1.036729623212,1.036729623207
      ,1.036729623212,1.036729623208,1.036729623211,1.036729623209
      ,1.03672962321,1.03672962321,1.03672962321,1.03672962321
      ,1.03672962321,1.03672962321,1.03672962321,1.03672962321
      ,1.03672962321,1.03672962321,1.03672962321,1.03672962321
      ,1.03672962321,1.03672962321,1.03672962321,1.036729623209
      ,1.03672962321,1.036729623209,1.03672962321,1.03672962321
      ,1.03672962321,1.03672962321,1.03672962321,1.03672962321)
    ,(1.669078461068,1.669078461068,1.669078461069,1.669078461067
      ,1.66907846107,1.669078461066,1.66907846107,1.669078461067
      ,1.669078461069,1.669078461068,1.669078461068,1.669078461068
      ,1.669078461068,1.669078461069,1.669078461066,1.669078461072
      ,1.669078461064,1.669078461073,1.669078461065,1.66907846107
      ,1.669078461067,1.669078461068,1.669078461068,1.669078461068
      ,1.669078461068,1.669078461068,1.669078461068,1.669078461068
      ,1.669078461068,1.669078461069,1.669078461068,1.669078461068
      ,1.669078461068,1.669078461068,1.669078461068,1.669078461068
      ,1.669078461068,1.669078461068,1.669078461068,1.669078461068
      ,1.669078461068,1.669078461068,1.669078461068,1.669078461068
      ,1.669078461068,1.669078461068,1.669078461068,1.669078461068
      ,1.669078461068,1.669078461069,1.669078461068,1.669078461068
      ,1.669078461068,1.669078461068,1.669078461068,1.669078461068
      ,1.669078461068,1.669078461069,1.669078461066,1.669078461071
      ,1.669078461064,1.669078461072,1.669078461066,1.66907846107
      ,1.669078461068,1.669078461068,1.669078461068,1.669078461068
      ,1.669078461069,1.669078461066,1.669078461072,1.669078461064
      ,1.669078461072,1.669078461065,1.66907846107,1.669078461068
      ,1.669078461068,1.669078461068,1.669078461068,1.669078461068
      ,1.669078461068,1.669078461068,1.669078461068,1.669078461068
      ,1.669078461068,1.669078461068,1.669078461068,1.669078461068
      ,1.669078461068,1.669078461068,1.669078461068,1.669078461068
      ,1.669078461069,1.669078461068,1.669078461069,1.669078461068
      ,1.669078461068,1.669078461068,1.669078461068,1.669078461068
))) REPRESENTATION_ITEM('') SURFACE() );
#130 = CARTESIAN_POINT('',(-62.14454244103,248.2074789129,
    13.300361898306));
#131 = CARTESIAN_POINT('',(-62.14267698485,248.07064721385,
    13.293542067475));
#132 = CARTESIAN_POINT('',(-62.14046849864,247.93386500776,
    13.285408566985));
#133 = CARTESIAN_POINT('',(-62.13792179109,247.79714373333,
    13.275987810398));
#134 = CARTESIAN_POINT('',(-62.13504179496,247.66050642644,
    13.265197179508));
#135 = CARTESIAN_POINT('',(-62.13183332607,247.52396284033,
    13.253084278128));
#136 = CARTESIAN_POINT('',(-62.12830115399,247.38751833415,
    13.239733985357));
#137 = CARTESIAN_POINT('',(-62.12445011506,247.25118625836,
    13.225146682919));
#138 = CARTESIAN_POINT('',(-62.12028512791,247.11498850599,
    13.20923905967));
#139 = CARTESIAN_POINT('',(-62.11581110014,246.978943842,13.191966926741
    ));
#140 = CARTESIAN_POINT('',(-62.11103284429,246.8430585634,
    13.173417505103));
#141 = CARTESIAN_POINT('',(-62.10595524991,246.70734898568,
    13.153566677564));
#142 = CARTESIAN_POINT('',(-62.10087753741,246.57163230866,
    13.133764473831));
#143 = CARTESIAN_POINT('',(-62.0955004546,246.43609057426,13.11265956723
    ));
#144 = CARTESIAN_POINT('',(-62.08982891435,246.30073953227,
    13.090246205428));
#145 = CARTESIAN_POINT('',(-62.0838677539,246.16559158516,
    13.066534689804));
#146 = CARTESIAN_POINT('',(-62.07762179061,246.03065820229,
    13.041539347572));
#147 = CARTESIAN_POINT('',(-62.07109585967,245.89595154214,
    13.01527053882));
#148 = CARTESIAN_POINT('',(-62.06429483398,245.76148528239,
    12.987730698761));
#149 = CARTESIAN_POINT('',(-62.05722362614,245.6272746578,
    12.958914414811));
#150 = CARTESIAN_POINT('',(-62.04988717245,245.49333570609,
    12.928812538902));
#151 = CARTESIAN_POINT('',(-62.04229039905,245.35968372161,
    12.897420334673));
#152 = CARTESIAN_POINT('',(-62.03443817014,245.22633091697,
    12.864749659795));
#153 = CARTESIAN_POINT('',(-62.01873312956,244.95960517829,
    12.799490664189));
#154 = CARTESIAN_POINT('',(-62.00200611254,244.6940740735,
    12.729112554239));
#155 = CARTESIAN_POINT('',(-61.98429762795,244.42987714792,
    12.653567099888));
#156 = CARTESIAN_POINT('',(-61.96563984864,244.16698467185,
    12.573181725631));
#157 = CARTESIAN_POINT('',(-61.946086815,243.90572259588,12.48782447825)
  );
#158 = CARTESIAN_POINT('',(-61.92565690082,243.64600408227,
    12.397042783247));
#159 = CARTESIAN_POINT('',(-61.9044080039,243.38799130464,
    12.302044622968));
#160 = CARTESIAN_POINT('',(-61.88237086518,243.13189739021,
    12.201494280532));
#161 = CARTESIAN_POINT('',(-61.85958310736,242.8776388816,12.09646943418
    ));
#162 = CARTESIAN_POINT('',(-61.83608821931,242.62545373295,
    11.986507044471));
#163 = CARTESIAN_POINT('',(-61.81192447307,242.37541402065,
    11.871752915529));
#164 = CARTESIAN_POINT('',(-61.76359466241,241.87528783648,
    11.64234704501));
#165 = CARTESIAN_POINT('',(-61.71258898712,241.38374235234,
    11.39375441266));
#166 = CARTESIAN_POINT('',(-61.6592218782,240.90156952721,
    11.126419013925));
#167 = CARTESIAN_POINT('',(-61.60380298785,240.42947955833,
    10.840862467063));
#168 = CARTESIAN_POINT('',(-61.54665257414,239.96834411321,
    10.537344776723));
#169 = CARTESIAN_POINT('',(-61.48808839013,239.51894326182,
    10.21630122149));
#170 = CARTESIAN_POINT('',(-61.42842310104,239.08193765731,
    9.878367004386));
#171 = CARTESIAN_POINT('',(-61.367972038,238.65802435486,9.524095178207)
  );
#172 = CARTESIAN_POINT('',(-61.30705579165,238.24796057459,
    9.153921665737));
#173 = CARTESIAN_POINT('',(-61.24599075431,237.85235470487,
    8.768533936308));
#174 = CARTESIAN_POINT('',(-61.18509323478,237.47182790778,
    8.368557076896));
#175 = CARTESIAN_POINT('',(-61.12419618514,237.0913068878,7.968574650824
    ));
#176 = CARTESIAN_POINT('',(-61.06346748641,236.72587613175,
    7.553990376879));
#177 = CARTESIAN_POINT('',(-61.00321809671,236.3760689875,7.125500617176
    ));
#178 = CARTESIAN_POINT('',(-60.94379963977,236.04287383974,
    6.683524841506));
#179 = CARTESIAN_POINT('',(-60.88545556354,235.72602188607,
    6.229203358089));
#180 = CARTESIAN_POINT('',(-60.8285864419,235.4269166164,5.76281625346)
  );
#181 = CARTESIAN_POINT('',(-60.77349631203,235.14590720573,
    5.285151500064));
#182 = CARTESIAN_POINT('',(-60.72042479286,234.88259728276,
    4.797399620795));
#183 = CARTESIAN_POINT('',(-60.66980131932,234.63857362293,
    4.299777469049));
#184 = CARTESIAN_POINT('',(-60.62188713558,234.41357808234,
    3.793401819973));
#185 = CARTESIAN_POINT('',(-60.5770017,234.20797238787,3.279061802055));
#186 = CARTESIAN_POINT('',(-60.56578340185,234.15660042677,3.15046475618
    ));
#187 = CARTESIAN_POINT('',(-60.55475453984,234.1064415036,3.021369895247
    ));
#188 = CARTESIAN_POINT('',(-60.54391937096,234.0574935523,2.891792416012
    ));
#189 = CARTESIAN_POINT('',(-60.53328349222,234.00976740502,
    2.761743020776));
#190 = CARTESIAN_POINT('',(-60.5228528553,233.96327720576,2.631231295643
    ));
#191 = CARTESIAN_POINT('',(-60.51263310675,233.91803399579,
    2.500267961248));
#192 = CARTESIAN_POINT('',(-60.50262925387,233.87404247079,
    2.368865996052));
#193 = CARTESIAN_POINT('',(-60.49284565611,233.83130090972,
    2.237040632086));
#194 = CARTESIAN_POINT('',(-60.48328634212,233.78980427542,
    2.104808223255));
#195 = CARTESIAN_POINT('',(-60.47395565235,233.74955048698,1.97218398612
    ));
#196 = CARTESIAN_POINT('',(-60.46485920727,233.71054986383,
    1.839178613209));
#197 = CARTESIAN_POINT('',(-60.45576678378,233.67158648539,
    1.706162047625));
#198 = CARTESIAN_POINT('',(-60.44690875756,233.63387750132,1.57276452974
    ));
#199 = CARTESIAN_POINT('',(-60.43828920838,233.59741810205,
    1.439001237612));
#200 = CARTESIAN_POINT('',(-60.42991391908,233.56221925605,
    1.304883519115));
#201 = CARTESIAN_POINT('',(-60.42178912077,233.52829597739,
    1.170421789119));
#202 = CARTESIAN_POINT('',(-60.41392065315,233.49565947959,
    1.035627455081));
#203 = CARTESIAN_POINT('',(-60.40631354017,233.46431321572,
    0.900513870781));
#204 = CARTESIAN_POINT('',(-60.39897198088,233.43425280487,
    0.765096318556));
#205 = CARTESIAN_POINT('',(-60.39189975562,233.40546984479,
    0.629391019621));
#206 = CARTESIAN_POINT('',(-60.38510104732,233.37795961094,
    0.493413172887));
#207 = CARTESIAN_POINT('',(-60.37858167817,233.35173264175,
    0.357174021933));
#208 = CARTESIAN_POINT('',(-60.37206729724,233.32555051164,0.22092600438
    ));
#209 = CARTESIAN_POINT('',(-60.36583241423,233.30065290154,
    8.441710158266E-02));
#210 = CARTESIAN_POINT('',(-60.35988475287,233.27706637875,
    -5.234265693732E-02));
#211 = CARTESIAN_POINT('',(-60.3542202924,233.25471255358,
    -0.189328369412));
#212 = CARTESIAN_POINT('',(-60.34884888249,233.23363719741,
    -0.326533208969));
#213 = CARTESIAN_POINT('',(-60.34378450077,233.21392276326,
    -0.463955268134));
#214 = CARTESIAN_POINT('',(-60.33903228176,233.19557215124,
    -0.601580628366));
#215 = CARTESIAN_POINT('',(-60.33458841706,233.17850791817,
    -0.739383698989));
#216 = CARTESIAN_POINT('',(-60.33045299728,233.16268748848,
    -0.877344586884));
#217 = CARTESIAN_POINT('',(-60.32663983684,233.14819128105,
    -1.015461974827));
#218 = CARTESIAN_POINT('',(-60.32315129373,233.13499702371,
    -1.153718703455));
#219 = CARTESIAN_POINT('',(-60.31966865153,233.12185475545,
    -1.291980537328));
#220 = CARTESIAN_POINT('',(-60.31651078228,233.11001568602,
    -1.430381051394));
#221 = CARTESIAN_POINT('',(-60.3136858547,233.0995084717,-1.568907842648
    ));
#222 = CARTESIAN_POINT('',(-60.31118846942,233.09024229019,
    -1.707543381439));
#223 = CARTESIAN_POINT('',(-60.3090292741,233.0822677644,-1.846276759812
    ));
#224 = CARTESIAN_POINT('',(-60.30722367261,233.07567720968,
    -1.985098531464));
#225 = CARTESIAN_POINT('',(-60.3057768183,233.07047222745,
    -2.123994499954));
#226 = CARTESIAN_POINT('',(-60.30468351962,233.06656292988,
    -2.262946210262));
#227 = CARTESIAN_POINT('',(-60.30394312483,233.06389934208,
    -2.401937797433));
#228 = CARTESIAN_POINT('',(-60.30357089073,233.06257178994,
    -2.540960744431));
#229 = CARTESIAN_POINT('',(-60.30356877907,233.06255334358,-2.68));
#230 = CARTESIAN_POINT('',(-62.14454244103,248.16178647832,
    14.213067564168));
#231 = CARTESIAN_POINT('',(-62.14261977919,248.0170675933,
    14.205852880162));
#232 = CARTESIAN_POINT('',(-62.14031429524,247.87240456276,
    14.197249679918));
#233 = CARTESIAN_POINT('',(-62.13767431778,247.7278089075,
    14.187284456455));
#234 = CARTESIAN_POINT('',(-62.13456492157,247.58330561992,
    14.175874791323));
#235 = CARTESIAN_POINT('',(-62.13107013652,247.43890220316,
    14.16306807966));
#236 = CARTESIAN_POINT('',(-62.1273365334,247.29460240552,
    14.148949066395));
#237 = CARTESIAN_POINT('',(-62.12336830205,247.15042261258,
    14.133518459578));
#238 = CARTESIAN_POINT('',(-62.11902845624,247.00639039101,
    14.116693539241));
#239 = CARTESIAN_POINT('',(-62.11424531602,246.86252621024,
    14.098430332028));
#240 = CARTESIAN_POINT('',(-62.10916793652,246.71883089959,
    14.078815574407));
#241 = CARTESIAN_POINT('',(-62.10375866925,246.57532293071,
    14.057825339073));
#242 = CARTESIAN_POINT('',(-62.0984308751,246.43180484522,
    14.036883485204));
#243 = CARTESIAN_POINT('',(-62.09276933114,246.28847658499,
    14.014565325333));
#244 = CARTESIAN_POINT('',(-62.08676572059,246.14535421302,
    13.990865217707));
#245 = CARTESIAN_POINT('',(-62.08043939159,246.00244977778,
    13.965793488859));
#246 = CARTESIAN_POINT('',(-62.0738165326,245.85977452852,13.93936452321
    ));
#247 = CARTESIAN_POINT('',(-62.06691632497,245.71734100673,
    13.911588835868));
#248 = CARTESIAN_POINT('',(-62.05974407291,245.5751640138,
    13.882469128704));
#249 = CARTESIAN_POINT('',(-62.05229131062,245.43326045489,
    13.852000329604));
#250 = CARTESIAN_POINT('',(-62.04454288675,245.29164805895,
    13.820173615004));
#251 = CARTESIAN_POINT('',(-62.0364910261,245.15034297493,
    13.786984415618));
#252 = CARTESIAN_POINT('',(-62.02815636862,245.00935624419,
    13.752444405421));
#253 = CARTESIAN_POINT('',(-62.01162710424,244.72735461018,
    13.68344576844));
#254 = CARTESIAN_POINT('',(-61.99395964295,244.44663750576,
    13.609041833208));
#255 = CARTESIAN_POINT('',(-61.97506119066,244.16738046369,
    13.529195285847));
#256 = CARTESIAN_POINT('',(-61.95551357685,243.88932626928,
    13.444166198099));
#257 = CARTESIAN_POINT('',(-61.93502684826,243.61342957979,
    13.354025615113));
#258 = CARTESIAN_POINT('',(-61.91289883794,243.33858028609,
    13.257966121003));
#259 = CARTESIAN_POINT('',(-61.89109754854,243.06611012038,
    13.157628891422));
#260 = CARTESIAN_POINT('',(-61.86734990183,242.79533007633,
    13.051323003398));
#261 = CARTESIAN_POINT('',(-61.84348997676,242.52662312834,
    12.940324570947));
#262 = CARTESIAN_POINT('',(-61.81866785323,242.26010608909,
    12.824112712525));
#263 = CARTESIAN_POINT('',(-61.79310767696,241.99586238094,
    12.70284010232));
#264 = CARTESIAN_POINT('',(-61.74217131108,241.46731171996,
    12.460393958805));
#265 = CARTESIAN_POINT('',(-61.68825802115,240.94790549061,
    12.197708248366));
#266 = CARTESIAN_POINT('',(-61.63181650132,240.43839056878,
    11.915212255043));
#267 = CARTESIAN_POINT('',(-61.57346885407,239.93959242879,
    11.61349852814));
#268 = CARTESIAN_POINT('',(-61.51321699861,239.45238727378,
    11.292813625708));
#269 = CARTESIAN_POINT('',(-61.45130811058,238.97758256846,
    10.953619176274));
#270 = CARTESIAN_POINT('',(-61.38832534239,238.51590493546,
    10.596610343354));
#271 = CARTESIAN_POINT('',(-61.32464774863,238.06807253389,
    10.222348731749));
#272 = CARTESIAN_POINT('',(-61.2603521617,237.63483646876,9.831256854721
    ));
#273 = CARTESIAN_POINT('',(-61.19590972761,237.21691248301,
    9.424131487648));
#274 = CARTESIAN_POINT('',(-61.13166092301,236.81489016047,
    9.001563566037));
#275 = CARTESIAN_POINT('',(-61.06739933896,236.41287519139,
    8.578990595321));
#276 = CARTESIAN_POINT('',(-61.00331056353,236.0268152177,8.141004262154
    ));
#277 = CARTESIAN_POINT('',(-60.93985873832,235.65719451677,
    7.688264411601));
#278 = CARTESIAN_POINT('',(-60.87674974667,235.30520594734,
    7.221328403066));
#279 = CARTESIAN_POINT('',(-60.81565673642,234.97036183225,
    6.741268055755));
#280 = CARTESIAN_POINT('',(-60.75549289591,234.65429075925,
    6.248429060107));
#281 = CARTESIAN_POINT('',(-60.69683034245,234.35737579198,
    5.743679829843));
#282 = CARTESIAN_POINT('',(-60.6413912191,234.07903820892,5.228190110699
    ));
#283 = CARTESIAN_POINT('',(-60.58762169466,233.82112406943,
    4.702208057678));
#284 = CARTESIAN_POINT('',(-60.5368909954,233.58330280223,4.166963071646
    ));
#285 = CARTESIAN_POINT('',(-60.48952533738,233.3659317836,3.623205576979
    ));
#286 = CARTESIAN_POINT('',(-60.477634274,233.31162481424,3.487256234272)
  );
#287 = CARTESIAN_POINT('',(-60.46595211797,233.25859866907,
    3.350778120212));
#288 = CARTESIAN_POINT('',(-60.45449549946,233.20684964603,
    3.213785400841));
#289 = CARTESIAN_POINT('',(-60.44326037644,233.1563898909,3.07628922442)
  );
#290 = CARTESIAN_POINT('',(-60.43223733132,233.1072357489,2.938300320066
    ));
#291 = CARTESIAN_POINT('',(-60.42142179753,233.0593999487,2.799830662899
    ));
#292 = CARTESIAN_POINT('',(-60.41081921589,233.01288761846,
    2.660894205498));
#293 = CARTESIAN_POINT('',(-60.40044512089,232.9676961344,2.521506675966
    ));
#294 = CARTESIAN_POINT('',(-60.3903201568,232.92381880133,2.381684442237
    ));
#295 = CARTESIAN_POINT('',(-60.38046002368,232.88125236568,
    2.241442442999));
#296 = CARTESIAN_POINT('',(-60.37086035318,232.84000836061,
    2.100791184917));
#297 = CARTESIAN_POINT('',(-60.36120022674,232.79880921643,
    1.960130910619));
#298 = CARTESIAN_POINT('',(-60.35179907136,232.75893492262,
    1.819064925433));
#299 = CARTESIAN_POINT('',(-60.34267561074,232.72037887165,
    1.677607434437));
#300 = CARTESIAN_POINT('',(-60.33382395318,232.68315357915,
    1.535770288529));
#301 = CARTESIAN_POINT('',(-60.32523182349,232.64727656233,
    1.393565109183));
#302 = CARTESIAN_POINT('',(-60.31689274819,232.61276088063,
    1.251004632292));
#303 = CARTESIAN_POINT('',(-60.30881219411,232.57961033845,
    1.108103271209));
#304 = CARTESIAN_POINT('',(-60.30100766019,232.54781935026,
    0.964876898878));
#305 = CARTESIAN_POINT('',(-60.2935027227,232.5173774677,0.821341849145)
  );
#306 = CARTESIAN_POINT('',(-60.28631503372,232.48827856912,
    0.677513137191));
#307 = CARTESIAN_POINT('',(-60.27943827294,232.46053471111,
    0.533401899107));
#308 = CARTESIAN_POINT('',(-60.27249064037,232.43284451342,
    0.389283726356));
#309 = CARTESIAN_POINT('',(-60.26585233934,232.40651147804,
    0.244886822246));
#310 = CARTESIAN_POINT('',(-60.25949136845,232.38156701708,
    0.100223026028));
#311 = CARTESIAN_POINT('',(-60.25353864381,232.35791686331,
    -4.468746491568E-02));
#312 = CARTESIAN_POINT('',(-60.24793248117,232.33561520537,
    -0.189836795415));
#313 = CARTESIAN_POINT('',(-60.24255422728,232.31476038312,
    -0.335218380247));
#314 = CARTESIAN_POINT('',(-60.23740843193,232.29535594889,-0.4808152335
    ));
#315 = CARTESIAN_POINT('',(-60.23262388978,232.2773094332,
    -0.626602421981));
#316 = CARTESIAN_POINT('',(-60.22827481837,232.26056968371,
    -0.77256191443));
#317 = CARTESIAN_POINT('',(-60.22424437617,232.24523217931,
    -0.918691646401));
#318 = CARTESIAN_POINT('',(-60.22057566196,232.23127025162,
    -1.064974169911));
#319 = CARTESIAN_POINT('',(-60.21682607878,232.21737028318,
    -1.211260560741));
#320 = CARTESIAN_POINT('',(-60.21343650187,232.20484768518,
    -1.357695748879));
#321 = CARTESIAN_POINT('',(-60.21037012415,232.19373642001,
    -1.504265908534));
#322 = CARTESIAN_POINT('',(-60.20777396626,232.18392810689,
    -1.65095651959));
#323 = CARTESIAN_POINT('',(-60.20557768086,232.1754828364,
    -1.797756365308));
#324 = CARTESIAN_POINT('',(-60.20364667116,232.16851046626,
    -1.944652783341));
#325 = CARTESIAN_POINT('',(-60.20198543403,232.16301294348,
    -2.091628453043));
#326 = CARTESIAN_POINT('',(-60.20073868611,232.15888328433,
    -2.238663957793));
#327 = CARTESIAN_POINT('',(-60.19998948011,232.15606193063,
    -2.385744317106));
#328 = CARTESIAN_POINT('',(-60.19960516643,232.15465628716,
    -2.532861639122));
#329 = CARTESIAN_POINT('',(-60.19963370419,232.15463433216,-2.68));
#330 = CARTESIAN_POINT('',(-63.27443920698,248.13986003539,
    14.343347312836));
#331 = CARTESIAN_POINT('',(-63.27247334057,247.99144523958,
    14.335885303502));
#332 = CARTESIAN_POINT('',(-63.27011295939,247.84312054766,
    14.327026084362));
#333 = CARTESIAN_POINT('',(-63.2674129683,247.69490245765,
    14.316743675909));
#334 = CARTESIAN_POINT('',(-63.26421843355,247.54679723666,
    14.305128715477));
#335 = CARTESIAN_POINT('',(-63.26062507177,247.39882055334,
    14.292131922977));
#336 = CARTESIAN_POINT('',(-63.25680022195,247.25099346871,
    14.277664506286));
#337 = CARTESIAN_POINT('',(-63.25274825186,247.10333374625,
    14.26172921245));
#338 = CARTESIAN_POINT('',(-63.24831190187,246.95585297431,
    14.24441925514));
#339 = CARTESIAN_POINT('',(-63.24340861973,246.80856152888,
    14.225785873785));
#340 = CARTESIAN_POINT('',(-63.23820849105,246.66147493672,
    14.20573880411));
#341 = CARTESIAN_POINT('',(-63.23266792106,246.51460673358,
    14.184307464639));
#342 = CARTESIAN_POINT('',(-63.22722078197,246.36774256646,
    14.162824571883));
#343 = CARTESIAN_POINT('',(-63.22143114203,246.22110129523,
    14.139959313017));
#344 = CARTESIAN_POINT('',(-63.21528889846,246.07469472548,
    14.11572294569));
#345 = CARTESIAN_POINT('',(-63.20881575181,245.92853755843,
    14.090109040581));
#346 = CARTESIAN_POINT('',(-63.20204126887,245.78264563433,
    14.063106949235));
#347 = CARTESIAN_POINT('',(-63.19498696402,245.63703467413,
    14.034710741057));
#348 = CARTESIAN_POINT('',(-63.18765839902,245.49171951927,
    14.004923609417));
#349 = CARTESIAN_POINT('',(-63.18004530129,245.34671386972,
    13.97375774692));
#350 = CARTESIAN_POINT('',(-63.17212970065,245.20203052019,
    13.941229689794));
#351 = CARTESIAN_POINT('',(-63.16390208447,245.05768209457,
    13.907351131429));
#352 = CARTESIAN_POINT('',(-63.15538557136,244.91368227848,
    13.872115205046));
#353 = CARTESIAN_POINT('',(-63.13851398563,244.62569467578,
    13.80155539574));
#354 = CARTESIAN_POINT('',(-63.12047913555,244.33911880796,
    13.72557526435));
#355 = CARTESIAN_POINT('',(-63.10116751786,244.05406747178,
    13.644301015371));
#356 = CARTESIAN_POINT('',(-63.08125544086,243.77054010209,
    13.557353586042));
#357 = CARTESIAN_POINT('',(-63.06037418925,243.48911511165,
    13.465185471805));
#358 = CARTESIAN_POINT('',(-63.03776204711,243.20895349724,
    13.367931564787));
#359 = CARTESIAN_POINT('',(-63.01562397997,242.93141499777,
    13.264880700331));
#360 = CARTESIAN_POINT('',(-62.99137461989,242.65547036371,
    13.157134411719));
#361 = CARTESIAN_POINT('',(-62.96711034687,242.38195065647,
    13.043845750557));
#362 = CARTESIAN_POINT('',(-62.94184527073,242.11067211848,
    12.925544766997));
#363 = CARTESIAN_POINT('',(-62.91583325194,241.84178222283,
    12.802172230404));
#364 = CARTESIAN_POINT('',(-62.86402471403,241.30403288969,
    12.555315399007));
#365 = CARTESIAN_POINT('',(-62.80920109335,240.77589886923,
    12.288219823394));
#366 = CARTESIAN_POINT('',(-62.75183761394,240.25813979207,
    12.001191143632));
#367 = CARTESIAN_POINT('',(-62.69261831107,239.75177262642,
    11.694559684746));
#368 = CARTESIAN_POINT('',(-62.63149467587,239.25747160184,
    11.368963503725));
#369 = CARTESIAN_POINT('',(-62.56870417695,238.77596990263,
    11.024985982756));
#370 = CARTESIAN_POINT('',(-62.50487968389,238.30812693501,
    10.663083589378));
#371 = CARTESIAN_POINT('',(-62.44041480355,237.8546835952,
    10.283796832387));
#372 = CARTESIAN_POINT('',(-62.37534596545,237.41622680623,9.88785240451
    ));
#373 = CARTESIAN_POINT('',(-62.31016975798,236.99352364962,
    9.475937018336));
#374 = CARTESIAN_POINT('',(-62.24523352183,236.58716469489,
    9.048653511795));
#375 = CARTESIAN_POINT('',(-62.18028163845,236.1808014506,8.621376467435
    ));
#376 = CARTESIAN_POINT('',(-62.11554408469,235.79081879799,
    8.178792641866));
#377 = CARTESIAN_POINT('',(-62.05152138393,235.4178197683,7.721479940406
    ));
#378 = CARTESIAN_POINT('',(-61.98775753987,235.06229046854,
    7.250454982552));
#379 = CARTESIAN_POINT('',(-61.926284071,234.72523660365,6.765989099652)
  );
#380 = CARTESIAN_POINT('',(-61.8656308697,234.40662534816,6.269271568365
    ));
#381 = CARTESIAN_POINT('',(-61.8064371516,234.1071096288,5.761095115755)
  );
#382 = CARTESIAN_POINT('',(-61.75079888198,233.82768384691,
    5.241849806057));
#383 = CARTESIAN_POINT('',(-61.69664843724,233.56797629522,
    4.712874027417));
#384 = CARTESIAN_POINT('',(-61.64563065792,233.32881915436,
    4.174838210955));
#385 = CARTESIAN_POINT('',(-61.59806965337,233.11054713792,
    3.628540906698));
#386 = CARTESIAN_POINT('',(-61.5861158967,233.05595529477,3.491981648776
    ));
#387 = CARTESIAN_POINT('',(-61.57437627223,233.00266926348,3.35490986878
    ));
#388 = CARTESIAN_POINT('',(-61.56287064779,232.95069903828,
    3.217335176356));
#389 = CARTESIAN_POINT('',(-61.55159230528,232.90004502018,
    3.079273389916));
#390 = CARTESIAN_POINT('',(-61.54052759965,232.85070514275,
    2.940742298659));
#391 = CARTESIAN_POINT('',(-61.52966910402,232.80267961701,
    2.801758763395));
#392 = CARTESIAN_POINT('',(-61.51902224101,232.75597329527,
    2.662337155987));
#393 = CARTESIAN_POINT('',(-61.50860540021,232.71059565423,2.5224891377)
  );
#394 = CARTESIAN_POINT('',(-61.49844354186,232.66655839696,
    2.382224776087));
#395 = CARTESIAN_POINT('',(-61.48855528668,232.6238706741,2.241555000795
    ));
#396 = CARTESIAN_POINT('',(-61.47893349183,232.58253192398,
    2.100495397968));
#397 = CARTESIAN_POINT('',(-61.46923372062,232.54116260726,
    1.959450087313));
#398 = CARTESIAN_POINT('',(-61.4597983686,232.50114232883,1.818018603209
    ));
#399 = CARTESIAN_POINT('',(-61.45065008734,232.46248120237,
    1.676211439284));
#400 = CARTESIAN_POINT('',(-61.44177963497,232.42517718163,
    1.534044658017));
#401 = CARTESIAN_POINT('',(-61.4331694843,232.38922505768,1.391536107823
    ));
#402 = CARTESIAN_POINT('',(-61.42480960323,232.3546224594,1.24870283114)
  );
#403 = CARTESIAN_POINT('',(-61.41670540748,232.32137285747,
    1.105559663582));
#404 = CARTESIAN_POINT('',(-61.40887788575,232.28948557178,0.96211902409
    ));
#405 = CARTESIAN_POINT('',(-61.40135589709,232.25897278215,
    0.818391896121));
#406 = CARTESIAN_POINT('',(-61.39416064074,232.22984354257,
    0.674389999882));
#407 = CARTESIAN_POINT('',(-61.38728229823,232.20209479875,
    0.530129155565));
#408 = CARTESIAN_POINT('',(-61.38031194316,232.17430885779,0.38587987083
    ));
#409 = CARTESIAN_POINT('',(-61.37365632707,232.14790307954,
    0.241375056691));
#410 = CARTESIAN_POINT('',(-61.36727208313,232.12286002542,
    9.663428249E-02));
#411 = CARTESIAN_POINT('',(-61.36132797028,232.09924774944,
    -4.834580140837E-02));
#412 = CARTESIAN_POINT('',(-61.35574200383,232.07703326842,
    -0.193543231071));
#413 = CARTESIAN_POINT('',(-61.35035797655,232.05615374541,
    -0.338926722616));
#414 = CARTESIAN_POINT('',(-61.34518001244,232.03661091865,
    -0.484479228054));
#415 = CARTESIAN_POINT('',(-61.34037397751,232.01847142712,
    -0.630199996108));
#416 = CARTESIAN_POINT('',(-61.33603475381,232.00177280273,
    -0.776083685568));
#417 = CARTESIAN_POINT('',(-61.33200856468,231.98645201782,
    -0.922102685511));
#418 = CARTESIAN_POINT('',(-61.32834972127,231.97253059576,
    -1.068246401763));
#419 = CARTESIAN_POINT('',(-61.32458542652,231.95856575047,
    -1.214383318623));
#420 = CARTESIAN_POINT('',(-61.32118616649,231.94599957439,
    -1.360641835906));
#421 = CARTESIAN_POINT('',(-61.31810210058,231.93481026623,
    -1.507004977562));
#422 = CARTESIAN_POINT('',(-61.3155234349,231.92507436764,
    -1.653466173153));
#423 = CARTESIAN_POINT('',(-61.31335652375,231.91675229871,
    -1.80000817292));
#424 = CARTESIAN_POINT('',(-61.31142379209,231.90977003649,
    -1.946608874266));
#425 = CARTESIAN_POINT('',(-61.30972926199,231.90412764166,
    -2.093251200865));
#426 = CARTESIAN_POINT('',(-61.30846004792,231.89989979642,
    -2.23992495208));
#427 = CARTESIAN_POINT('',(-61.30772276744,231.89712797356,
    -2.386619320547));
#428 = CARTESIAN_POINT('',(-61.30734239551,231.89573831506,
    -2.533315551828));
#429 = CARTESIAN_POINT('',(-61.30737967253,231.89575375523,-2.68));
#430 = CARTESIAN_POINT('',(-64.20636562128,248.17943959398,
    13.29895817661));
#431 = CARTESIAN_POINT('',(-64.20443631427,248.03793014851,
    13.291790484185));
#432 = CARTESIAN_POINT('',(-64.20215306643,247.89653102716,
    13.28331286863));
#433 = CARTESIAN_POINT('',(-64.19952128419,247.75526272949,
    13.273455971386));
#434 = CARTESIAN_POINT('',(-64.19654603299,247.61411360911,
    13.262452912228));
#435 = CARTESIAN_POINT('',(-64.19323269967,247.47310890905,
    13.250174937697));
#436 = CARTESIAN_POINT('',(-64.1895867983,247.3322860027,13.23639029363)
  );
#437 = CARTESIAN_POINT('',(-64.18561365927,247.19165995953,
    13.221102996888));
#438 = CARTESIAN_POINT('',(-64.18131838683,247.05122202906,
    13.204550623292));
#439 = CARTESIAN_POINT('',(-64.17670611555,246.91097211122,
    13.186862670683));
#440 = CARTESIAN_POINT('',(-64.17178224133,246.77094475535,
    13.167803498004));
#441 = CARTESIAN_POINT('',(-64.16655194835,246.63114670503,
    13.147446283183));
#442 = CARTESIAN_POINT('',(-64.16132198008,246.49136817154,
    13.126955395832));
#443 = CARTESIAN_POINT('',(-64.15578568042,246.35182102819,
    13.105170031849));
#444 = CARTESIAN_POINT('',(-64.14994816943,246.21251317388,
    13.082115247775));
#445 = CARTESIAN_POINT('',(-64.14381477506,246.07346194448,
    13.057770762502));
#446 = CARTESIAN_POINT('',(-64.13739088,245.93468724468,13.03210520853)
  );
#447 = CARTESIAN_POINT('',(-64.13068181786,245.79620693446,
    13.005098895404));
#448 = CARTESIAN_POINT('',(-64.12369281856,245.65803447008,
    12.97675508534));
#449 = CARTESIAN_POINT('',(-64.11642900294,245.52017879992,
    12.947099781031));
#450 = CARTESIAN_POINT('',(-64.10889542667,245.38264651461,
    12.916170025646));
#451 = CARTESIAN_POINT('',(-64.10109717331,245.24544625211,
    12.883990715004));
#452 = CARTESIAN_POINT('',(-64.09303949671,245.10859535713,
    12.850539921941));
#453 = CARTESIAN_POINT('',(-64.07692574565,244.83494890527,
    12.783411934622));
#454 = CARTESIAN_POINT('',(-64.05977472616,244.56270565667,
    12.711212400293));
#455 = CARTESIAN_POINT('',(-64.04162408369,244.29188124767,
    12.634188615291));
#456 = CARTESIAN_POINT('',(-64.02253438028,244.02297388284,12.5515193655
    ));
#457 = CARTESIAN_POINT('',(-64.00250606155,243.75545821938,
    12.463715576689));
#458 = CARTESIAN_POINT('',(-63.9816376248,243.49001023658,
    12.372137159134));
#459 = CARTESIAN_POINT('',(-63.95991891119,243.22653677995,
    12.273586070116));
#460 = CARTESIAN_POINT('',(-63.9374144193,242.9648664714,12.17191530323)
  );
#461 = CARTESIAN_POINT('',(-63.91416972888,242.70561130871,
    12.064276403925));
#462 = CARTESIAN_POINT('',(-63.89021429295,242.44849250876,
    11.95213921648));
#463 = CARTESIAN_POINT('',(-63.86559190619,242.19369605434,
    11.835261063409));
#464 = CARTESIAN_POINT('',(-63.81635350561,241.68423169306,
    11.601223282429));
#465 = CARTESIAN_POINT('',(-63.76444848897,241.18405958783,
    11.348276084922));
#466 = CARTESIAN_POINT('',(-63.71020452058,240.69400678448,
    11.076641696678));
#467 = CARTESIAN_POINT('',(-63.65396240228,240.21510271256,
    10.786344647457));
#468 = CARTESIAN_POINT('',(-63.59603377904,239.74784929205,
    10.47836286794));
#469 = CARTESIAN_POINT('',(-63.53673718253,239.29288386924,
    10.153346907598));
#470 = CARTESIAN_POINT('',(-63.47640513137,238.85109211468,
    9.811480689428));
#471 = CARTESIAN_POINT('',(-63.41536281537,238.42320704459,
    9.453276529831));
#472 = CARTESIAN_POINT('',(-63.35392096524,238.00968788386,
    9.079728928293));
#473 = CARTESIAN_POINT('',(-63.29240185347,237.61120857505,
    8.691295873682));
#474 = CARTESIAN_POINT('',(-63.23112798205,237.22840035272,
    8.288633120351));
#475 = CARTESIAN_POINT('',(-63.16985281887,236.84557624844,
    7.885985670419));
#476 = CARTESIAN_POINT('',(-63.10882060574,236.4783924644,7.469143484729
    ));
#477 = CARTESIAN_POINT('',(-63.04836855439,236.12761190611,
    7.038662970425));
#478 = CARTESIAN_POINT('',(-62.98872208198,235.79287971154,6.59576552179
    ));
#479 = CARTESIAN_POINT('',(-62.93040399353,235.47670953257,
    6.140148670328));
#480 = CARTESIAN_POINT('',(-62.87350513652,235.17741415295,
    5.673614680628));
#481 = CARTESIAN_POINT('',(-62.81838174912,234.89582631179,
    5.196792336653));
#482 = CARTESIAN_POINT('',(-62.7655671628,234.63446803238,4.709454850866
    ));
#483 = CARTESIAN_POINT('',(-62.71507288261,234.39081119945,
    4.213800320814));
#484 = CARTESIAN_POINT('',(-62.66737278974,234.16673842255,3.70989601089
    ));
#485 = CARTESIAN_POINT('',(-62.62278072768,233.9625712138,3.198629009552
    ));
#486 = CARTESIAN_POINT('',(-62.61162429781,233.91144841568,
    3.070845362423));
#487 = CARTESIAN_POINT('',(-62.60066173671,233.86156649214,
    2.942601662556));
#488 = CARTESIAN_POINT('',(-62.58989996752,233.81294879857,
    2.813905062306));
#489 = CARTESIAN_POINT('',(-62.57934222952,233.76558439124,
    2.684774669168));
#490 = CARTESIAN_POINT('',(-62.56899078701,233.71945324003,
    2.555232652921));
#491 = CARTESIAN_POINT('',(-62.55884874304,233.67454310203,
    2.425298320876));
#492 = CARTESIAN_POINT('',(-62.54892095811,233.63085805624,
    2.294985161364));
#493 = CARTESIAN_POINT('',(-62.53921407368,233.58841869896,
    2.164300855327));
#494 = CARTESIAN_POINT('',(-62.52973564067,233.54725400039,
    2.033250256121));
#495 = CARTESIAN_POINT('',(-62.52049235281,233.50738482193,
    1.901841337462));
#496 = CARTESIAN_POINT('',(-62.51148738487,233.46879909453,
    1.770094109555));
#497 = CARTESIAN_POINT('',(-62.5024713611,233.43011097704,1.638377651613
    ));
#498 = CARTESIAN_POINT('',(-62.49369323778,233.39270293171,
    1.506322380032));
#499 = CARTESIAN_POINT('',(-62.48516042531,233.35660113271,
    1.373936955206));
#500 = CARTESIAN_POINT('',(-62.47687565205,233.3217895708,1.241240278422
    ));
#501 = CARTESIAN_POINT('',(-62.46884041413,233.28824113374,
    1.108253811315));
#502 = CARTESIAN_POINT('',(-62.46105728363,233.25593839395,
    0.974996471748));
#503 = CARTESIAN_POINT('',(-62.45353107526,233.22488410344,
    0.841482106501));
#504 = CARTESIAN_POINT('',(-62.44626887142,233.19510139621,
    0.707719540263));
#505 = CARTESIAN_POINT('',(-62.43927890571,233.16662369771,
    0.573715201466));
#506 = CARTESIAN_POINT('',(-62.43256830485,233.13947434183,
    0.439478324495));
#507 = CARTESIAN_POINT('',(-62.42613968907,233.11363589506,
    0.305028728599));
#508 = CARTESIAN_POINT('',(-62.41969736007,233.08767418041,
    0.170603508025));
#509 = CARTESIAN_POINT('',(-62.41353657973,233.06301992375,
    3.596441671574E-02));
#510 = CARTESIAN_POINT('',(-62.40765474065,233.03960928077,
    -9.886488419839E-02));
#511 = CARTESIAN_POINT('',(-62.40208152257,233.0176642239,-0.23390122866
    ));
#512 = CARTESIAN_POINT('',(-62.39680847368,232.99706924885,
    -0.369112313774));
#513 = CARTESIAN_POINT('',(-62.39181579397,232.97760853259,
    -0.504452387747));
#514 = CARTESIAN_POINT('',(-62.38710799416,232.95928149391,
    -0.639908222522));
#515 = CARTESIAN_POINT('',(-62.38271417012,232.9423049661,
    -0.775498181985));
#516 = CARTESIAN_POINT('',(-62.37865269889,232.92680045077,
    -0.911225041901));
#517 = CARTESIAN_POINT('',(-62.37490422911,232.91255517996,
    -1.04704106387));
#518 = CARTESIAN_POINT('',(-62.37148090453,232.89963597313,
    -1.182941670919));
#519 = CARTESIAN_POINT('',(-62.36804135765,232.88657384228,
    -1.318828243056));
#520 = CARTESIAN_POINT('',(-62.36492652815,232.87483434245,
    -1.454801216044));
#521 = CARTESIAN_POINT('',(-62.36213258539,232.86434298269,
    -1.590842811087));
#522 = CARTESIAN_POINT('',(-62.35969299898,232.85535098558,
    -1.726949216525));
#523 = CARTESIAN_POINT('',(-62.3575971234,232.84772461582,
    -1.863098596258));
#524 = CARTESIAN_POINT('',(-62.35582123773,232.84121604907,
    -1.999265120244));
#525 = CARTESIAN_POINT('',(-62.35436980093,232.83582335409,
    -2.135435856329));
#526 = CARTESIAN_POINT('',(-62.35327571128,232.83179262424,
    -2.271609418781));
#527 = CARTESIAN_POINT('',(-62.35255938666,232.82926075582,
    -2.40777732588));
#528 = CARTESIAN_POINT('',(-62.3521975104,232.82798283348,
    -2.543911074932));
#529 = CARTESIAN_POINT('',(-62.35220331562,232.82803354469,-2.68));
#530 = CARTESIAN_POINT('',(-63.27443920698,248.24436621646,
    12.255837980746));
#531 = CARTESIAN_POINT('',(-63.27260417942,248.11399072394,
    12.249279066151));
#532 = CARTESIAN_POINT('',(-63.27046564816,247.98369078546,
    12.241494128305));
#533 = CARTESIAN_POINT('',(-63.26797898083,247.85348271124,
    12.232457005948));
#534 = CARTESIAN_POINT('',(-63.26530912214,247.72336829355,
    12.222257879585));
#535 = CARTESIAN_POINT('',(-63.26237061293,247.59336834734,
    12.210847946314));
#536 = CARTESIAN_POINT('',(-63.25900646932,247.46350761798,
    12.198138721011));
#537 = CARTESIAN_POINT('',(-63.25522253775,247.33379692706,
    12.184132204211));
#538 = CARTESIAN_POINT('',(-63.25118611853,247.20423488641,
    12.168920257604));
#539 = CARTESIAN_POINT('',(-63.24698982788,247.0748279736,
    12.152553627602));
#540 = CARTESIAN_POINT('',(-63.24247384464,246.94560422089,
    12.134943158128));
#541 = CARTESIAN_POINT('',(-63.23769186559,246.81657223258,
    12.116117833382));
#542 = CARTESIAN_POINT('',(-63.23281670474,246.68755118137,
    12.097241509628));
#543 = CARTESIAN_POINT('',(-63.22767767466,246.55871898696,
    12.077151162344));
#544 = CARTESIAN_POINT('',(-63.22229493096,246.43008673864,
    12.055857796263));
#545 = CARTESIAN_POINT('',(-63.21665698539,246.3016699472,
    12.033354924552));
#546 = CARTESIAN_POINT('',(-63.21074452548,246.17348495639,
    12.009631767872));
#547 = CARTESIAN_POINT('',(-63.20454625351,246.04554661115,
    11.98468204113));
#548 = CARTESIAN_POINT('',(-63.19806674484,245.91786718275,
    11.958508327739));
#549 = CARTESIAN_POINT('',(-63.19132632546,245.79045655071,
    11.931122041656));
#550 = CARTESIAN_POINT('',(-63.18435296899,245.66332364163,
    11.902538976869));
#551 = CARTESIAN_POINT('',(-63.17716621287,245.53647912479,
    11.872770444663));
#552 = CARTESIAN_POINT('',(-63.16975309398,245.40993936465,
    11.841809998392));
#553 = CARTESIAN_POINT('',(-63.15476664486,245.15689026976,
    11.779803369547));
#554 = CARTESIAN_POINT('',(-63.13888274693,244.9050473034,11.71303096871
    ));
#555 = CARTESIAN_POINT('',(-63.12229278283,244.65444095303,
    11.641594033264));
#556 = CARTESIAN_POINT('',(-63.104415905,244.40559094944,11.565267547366
    ));
#557 = CARTESIAN_POINT('',(-63.08567016872,244.1576377489,
    11.484039715511));
#558 = CARTESIAN_POINT('',(-63.06694185425,243.9120827397,
    11.398857010959));
#559 = CARTESIAN_POINT('',(-63.04606720041,243.66761068616,
    11.308017484083));
#560 = CARTESIAN_POINT('',(-63.02573005597,243.42525566786,
    11.213435083429));
#561 = CARTESIAN_POINT('',(-63.00391800739,243.18478193939,
    11.113809005063));
#562 = CARTESIAN_POINT('',(-62.98168853906,242.94628281374,
    11.009801593624));
#563 = CARTESIAN_POINT('',(-62.95887038751,242.70987981392,
    10.901337905496));
#564 = CARTESIAN_POINT('',(-62.91302347399,242.23714197662,
    10.684306342628));
#565 = CARTESIAN_POINT('',(-62.86485005055,241.77273010427,
    10.44944397552));
#566 = CARTESIAN_POINT('',(-62.81451825912,241.31750694003,
    10.197090091654));
#567 = CARTESIAN_POINT('',(-62.76199750934,240.87222579424,
    9.927412785007));
#568 = CARTESIAN_POINT('',(-62.70796738615,240.43755052273,
    9.641080867127));
#569 = CARTESIAN_POINT('',(-62.6528267804,240.01415165354,9.338617453565
    ));
#570 = CARTESIAN_POINT('',(-62.59658991263,239.60273770969,
    9.020341872202));
#571 = CARTESIAN_POINT('',(-62.53950464351,239.20400131921,
    8.686775072032));
#572 = CARTESIAN_POINT('',(-62.48216491817,238.81854339145,
    8.338674415541));
#573 = CARTESIAN_POINT('',(-62.4247133776,238.44688547016,7.97647661428)
  );
#574 = CARTESIAN_POINT('',(-62.36744208658,238.08969034955,
    7.600862616242));
#575 = CARTESIAN_POINT('',(-62.31018545175,237.73248733402,
    7.225253896647));
#576 = CARTESIAN_POINT('',(-62.25313295107,237.38968712583,
    6.836194464367));
#577 = CARTESIAN_POINT('',(-62.19643475179,237.06200498854,
    6.434345745269));
#578 = CARTESIAN_POINT('',(-62.14111177311,236.74945936314,
    6.020408982424));
#579 = CARTESIAN_POINT('',(-62.08592557257,236.45355655744,
    5.594812152916));
#580 = CARTESIAN_POINT('',(-62.03280794012,236.17374890984,
    5.158594486394));
#581 = CARTESIAN_POINT('',(-61.98178494766,235.91061183813,
    4.712364727367));
#582 = CARTESIAN_POINT('',(-61.93156178174,235.66555680886,
    4.256560460887));
#583 = CARTESIAN_POINT('',(-61.88460687753,235.43761908946,
    3.792448483122));
#584 = CARTESIAN_POINT('',(-61.84003093662,235.22779651396,
    3.320441631486));
#585 = CARTESIAN_POINT('',(-61.79814261241,235.03643374644,2.84142697873
    ));
#586 = CARTESIAN_POINT('',(-61.78772758148,234.9885547543,2.721683643863
    ));
#587 = CARTESIAN_POINT('',(-61.77748214886,234.94182653557,
    2.601498589107));
#588 = CARTESIAN_POINT('',(-61.76739788286,234.8962628263,2.480883781516
    ));
#589 = CARTESIAN_POINT('',(-61.75749011148,234.85186102304,
    2.359854019537));
#590 = CARTESIAN_POINT('',(-61.7477803417,234.80861402474,2.238424478069
    ));
#591 = CARTESIAN_POINT('',(-61.73828450579,234.76651818316,
    2.116609148765));
#592 = CARTESIAN_POINT('',(-61.72900703481,234.72557736135,
    1.994420175452));
#593 = CARTESIAN_POINT('',(-61.71994075922,234.68580310079,
    1.871868084858));
#594 = CARTESIAN_POINT('',(-61.71107263653,234.6472108967,1.7489629124)
  );
#595 = CARTESIAN_POINT('',(-61.70239530616,234.60981258181,
    1.625716223298));
#596 = CARTESIAN_POINT('',(-61.69392447135,234.57360481847,
    1.502144028783));
#597 = CARTESIAN_POINT('',(-61.68552313099,234.53734906904,
    1.378581148521));
#598 = CARTESIAN_POINT('',(-61.67733000552,234.50228121334,
    1.254688721801));
#599 = CARTESIAN_POINT('',(-61.66933425334,234.46841547728,1.13047946764
    ));
#600 = CARTESIAN_POINT('',(-61.66155333425,234.43574627602,
    1.005968297982));
#601 = CARTESIAN_POINT('',(-61.65401204801,234.40426267548,
    0.881170301579));
#602 = CARTESIAN_POINT('',(-61.64672852479,234.37395808265,0.75609948247
    ));
#603 = CARTESIAN_POINT('',(-61.63970716741,234.34483516465,
    0.630768252901));
#604 = CARTESIAN_POINT('',(-61.63293854551,234.31690599656,
    0.505187680948));
#605 = CARTESIAN_POINT('',(-61.62640624152,234.29018743794,
    0.379368492498));
#606 = CARTESIAN_POINT('',(-61.62010064853,234.26469173826,
    0.253322827959));
#607 = CARTESIAN_POINT('',(-61.61403971999,234.24041237093,
    0.127066753374));
#608 = CARTESIAN_POINT('',(-61.60806028336,234.21607563079,
    8.178197216004E-04));
#609 = CARTESIAN_POINT('',(-61.60232735121,234.19295290839,
    -0.125645826307));
#610 = CARTESIAN_POINT('',(-61.59688841478,234.17101568421,
    -0.252308754531));
#611 = CARTESIAN_POINT('',(-61.59160360992,234.15036832692,
    -0.379163554846));
#612 = CARTESIAN_POINT('',(-61.58655456191,234.13095860153,
    -0.50619061526));
#613 = CARTESIAN_POINT('',(-61.58188841237,234.1126873354,
    -0.633369350611));
#614 = CARTESIAN_POINT('',(-61.57761062267,234.09555477491,
    -0.760689728558));
#615 = CARTESIAN_POINT('',(-61.57358377362,234.07966192675,
    -0.888149494005));
#616 = CARTESIAN_POINT('',(-61.56973320664,234.06506593931,
    -1.01573904739));
#617 = CARTESIAN_POINT('',(-61.56620397696,234.0516693402,
    -1.143432486796));
#618 = CARTESIAN_POINT('',(-61.56295721477,234.03950370766,
    -1.271219878181));
#619 = CARTESIAN_POINT('',(-61.55980345834,234.02727184839,
    -1.399003301509));
#620 = CARTESIAN_POINT('',(-61.55693415218,234.01626901561,
    -1.52688518574));
#621 = CARTESIAN_POINT('',(-61.55440232282,234.006461272,-1.654851808972
    ));
#622 = CARTESIAN_POINT('',(-61.55204956649,233.99796531836,
    -1.782889717459));
#623 = CARTESIAN_POINT('',(-61.54996748652,233.99071992069,
    -1.910982367681));
#624 = CARTESIAN_POINT('',(-61.54832158424,233.98461093369,
    -2.039115012675));
#625 = CARTESIAN_POINT('',(-61.54711738323,233.97963762767,
    -2.167277721673));
#626 = CARTESIAN_POINT('',(-61.54619913303,233.97591378591,
    -2.295462493405));
#627 = CARTESIAN_POINT('',(-61.54548200525,233.97350279986,
    -2.423656497551));
#628 = CARTESIAN_POINT('',(-61.54512926135,233.9722917492,
    -2.551839549813));
#629 = CARTESIAN_POINT('',(-61.54509643804,233.97231521419,-2.68));
#630 = CARTESIAN_POINT('',(-62.14454244103,248.25317134748,
    12.387656232445));
#631 = CARTESIAN_POINT('',(-62.14273419052,248.12422683439,
    12.381231254787));
#632 = CARTESIAN_POINT('',(-62.14062270204,247.99532545276,
    12.373567454055));
#633 = CARTESIAN_POINT('',(-62.1381692644,247.86647855915,
    12.364691164333));
#634 = CARTESIAN_POINT('',(-62.13551866836,247.73770723297,
    12.354519567707));
#635 = CARTESIAN_POINT('',(-62.13259651562,247.60902347748,
    12.343100476577));
#636 = CARTESIAN_POINT('',(-62.12926577457,247.48043426279,
    12.330518904337));
#637 = CARTESIAN_POINT('',(-62.12553192806,247.35194990413,
    12.316774906246));
#638 = CARTESIAN_POINT('',(-62.12154179957,247.22358662098,
    12.301784580109));
#639 = CARTESIAN_POINT('',(-62.11737688426,247.09536147376,
    12.285503521451));
#640 = CARTESIAN_POINT('',(-62.11289775207,246.9672862272,
    12.268019435799));
#641 = CARTESIAN_POINT('',(-62.10815183057,246.83937504065,
    12.249308016054));
#642 = CARTESIAN_POINT('',(-62.10332419973,246.7114597721,
    12.230645462459));
#643 = CARTESIAN_POINT('',(-62.09823157807,246.58370456352,
    12.210753809129));
#644 = CARTESIAN_POINT('',(-62.09289210811,246.45612485153,
    12.189627193144));
#645 = CARTESIAN_POINT('',(-62.08729611622,246.32873339253,
    12.167275890758));
#646 = CARTESIAN_POINT('',(-62.08142704863,246.20154187605,
    12.143714171924));
#647 = CARTESIAN_POINT('',(-62.07527539437,246.07456207756,
    12.118952241782));
#648 = CARTESIAN_POINT('',(-62.06884559506,245.94780655099,
    12.092992268809));
#649 = CARTESIAN_POINT('',(-62.06215594167,245.82128886071,
    12.065828500022));
#650 = CARTESIAN_POINT('',(-62.05523145815,245.69502335323,
    12.037451462799));
#651 = CARTESIAN_POINT('',(-62.04808977199,245.56902446829,
    12.007856253729));
#652 = CARTESIAN_POINT('',(-62.04071997166,245.44330558976,
    11.977054914168));
#653 = CARTESIAN_POINT('',(-62.02583915487,245.1918557464,
    11.915535559938));
#654 = CARTESIAN_POINT('',(-62.01005258214,244.94151064124,
    11.84918327527));
#655 = CARTESIAN_POINT('',(-61.99353406524,244.69237383215,
    11.777938913929));
#656 = CARTESIAN_POINT('',(-61.97576612042,244.44464307442,
    11.702197253164));
#657 = CARTESIAN_POINT('',(-61.95714678174,244.19801561196,
    11.621623341385));
#658 = CARTESIAN_POINT('',(-61.93841496369,243.95342787844,
    11.536119445492));
#659 = CARTESIAN_POINT('',(-61.91771845926,243.7098724889,
    11.446460354514));
#660 = CARTESIAN_POINT('',(-61.89739182852,243.46846470408,
    11.351665557667));
#661 = CARTESIAN_POINT('',(-61.87567623795,243.22865463487,
    11.252614297412));
#662 = CARTESIAN_POINT('',(-61.85350858539,242.99080137681,
    11.148901376418));
#663 = CARTESIAN_POINT('',(-61.83074126918,242.75496566037,
    11.040665728737));
#664 = CARTESIAN_POINT('',(-61.78501801375,242.283263953,10.824300131214
    ));
#665 = CARTESIAN_POINT('',(-61.7369199531,241.81957921407,
    10.589800576956));
#666 = CARTESIAN_POINT('',(-61.68662725508,241.36474848565,
    10.337625772801));
#667 = CARTESIAN_POINT('',(-61.63413712163,240.91936668788,
    10.068226405995));
#668 = CARTESIAN_POINT('',(-61.58008814968,240.48430095264,
    9.781875927727));
#669 = CARTESIAN_POINT('',(-61.52486866968,240.06030395519,
    9.478983266716));
#670 = CARTESIAN_POINT('',(-61.4685208597,239.64797037916,9.16012366541)
  );
#671 = CARTESIAN_POINT('',(-61.41129632737,239.24797617582,
    8.825841624669));
#672 = CARTESIAN_POINT('',(-61.35375942161,238.86108468042,8.47658647675
    ));
#673 = CARTESIAN_POINT('',(-61.29607178102,238.48779692674,
    8.112936384969));
#674 = CARTESIAN_POINT('',(-61.23852554656,238.12876565509,
    7.735550587756));
#675 = CARTESIAN_POINT('',(-61.18099303131,237.7697385842,7.358158706326
    ));
#676 = CARTESIAN_POINT('',(-61.12362440929,237.4249370458,6.966976491603
    ));
#677 = CARTESIAN_POINT('',(-61.06657745509,237.09494345822,
    6.562736822751));
#678 = CARTESIAN_POINT('',(-61.01084953287,236.78054173214,
    6.145721279945));
#679 = CARTESIAN_POINT('',(-60.95525439066,236.48168193989,
    5.717138660424));
#680 = CARTESIAN_POINT('',(-60.90167998789,236.19954247356,
    5.277203446811));
#681 = CARTESIAN_POINT('',(-60.85016228162,235.93443861948,
    4.826623170286));
#682 = CARTESIAN_POINT('',(-60.79945836662,235.68615635659,4.36660913089
    ));
#683 = CARTESIAN_POINT('',(-60.75198094399,235.45602317643,
    3.897346880421));
#684 = CARTESIAN_POINT('',(-60.70688327575,235.24385336246,
    3.419840568301));
#685 = CARTESIAN_POINT('',(-60.66447806262,235.05001299214,
    2.934918027132));
#686 = CARTESIAN_POINT('',(-60.6539325297,235.00157603931,2.813673278087
    ));
#687 = CARTESIAN_POINT('',(-60.64355696171,234.95428433813,
    2.691961670283));
#688 = CARTESIAN_POINT('',(-60.63334324246,234.90813745857,
    2.569799431178));
#689 = CARTESIAN_POINT('',(-60.62330660801,234.86314491914,
    2.447196817139));
#690 = CARTESIAN_POINT('',(-60.61346837927,234.81931866261,
    2.324162271207));
#691 = CARTESIAN_POINT('',(-60.60384441596,234.77666804289,
    2.200705259608));
#692 = CARTESIAN_POINT('',(-60.59443929184,234.73519732312,
    2.076837786596));
#693 = CARTESIAN_POINT('',(-60.58524619134,234.69490568504,
    1.952574588212));
#694 = CARTESIAN_POINT('',(-60.57625252745,234.6557897495,1.82793200427)
  );
#695 = CARTESIAN_POINT('',(-60.56745128102,234.61784860828,
    1.702925529242));
#696 = CARTESIAN_POINT('',(-60.55885806136,234.58109136705,
    1.577566041502));
#697 = CARTESIAN_POINT('',(-60.55033334081,234.54436375435,
    1.452193184633));
#698 = CARTESIAN_POINT('',(-60.54201844376,234.50882008001,
    1.326464134044));
#699 = CARTESIAN_POINT('',(-60.53390280601,234.47445733244,
    1.200395040792));
#700 = CARTESIAN_POINT('',(-60.52600388498,234.44128493296,
    1.073996749695));
#701 = CARTESIAN_POINT('',(-60.51834641805,234.40931539245,
    0.947278469063));
#702 = CARTESIAN_POINT('',(-60.51094855811,234.37855807856,
    0.820250277861));
#703 = CARTESIAN_POINT('',(-60.50381488622,234.34901609299,0.69292447036
    ));
#704 = CARTESIAN_POINT('',(-60.49693630158,234.32068625948,0.56531573823
    ));
#705 = CARTESIAN_POINT('',(-60.49029678854,234.29356222187,
    0.437440190099));
#706 = CARTESIAN_POINT('',(-60.48388706091,234.26764065276,
    0.309313208582));
#707 = CARTESIAN_POINT('',(-60.47772508339,234.24293057239,
    0.180946144759));
#708 = CARTESIAN_POINT('',(-60.47164395412,234.21825650985,
    5.256828240364E-02));
#709 = CARTESIAN_POINT('',(-60.46581248911,234.19479432503,
    -7.605261908099E-02));
#710 = CARTESIAN_POINT('',(-60.4602781373,234.17256574041,
    -0.204908339903));
#711 = CARTESIAN_POINT('',(-60.454901941,234.15150824386,-0.333969273908
    ));
#712 = CARTESIAN_POINT('',(-60.44976528381,234.13165918944,
    -0.463229622521));
#713 = CARTESIAN_POINT('',(-60.44501477425,234.11308514341,
    -0.592692156024));
#714 = CARTESIAN_POINT('',(-60.44065613158,234.09578835359,
    -0.722346023229));
#715 = CARTESIAN_POINT('',(-60.43655294434,234.07970640313,
    -0.852164975999));
#716 = CARTESIAN_POINT('',(-60.43263117618,234.06480529324,
    -0.982127259337));
#717 = CARTESIAN_POINT('',(-60.4290352975,234.05115038279,
    -1.112232303252));
#718 = CARTESIAN_POINT('',(-60.4257269255,234.03872379581,-1.242463237)
  );
#719 = CARTESIAN_POINT('',(-60.42251122428,234.02633922771,
    -1.372700513915));
#720 = CARTESIAN_POINT('',(-60.41958506269,234.01518368686,
    -1.503066353908));
#721 = CARTESIAN_POINT('',(-60.41700158525,234.0052805234,
    -1.633549776763));
#722 = CARTESIAN_POINT('',(-60.41460297259,233.99655647349,
    -1.764130243288));
#723 = CARTESIAN_POINT('',(-60.41248086735,233.98905269239,
    -1.894797154316));
#724 = CARTESIAN_POINT('',(-60.41080067407,233.9828439531,
    -2.025544279589));
#725 = CARTESIAN_POINT('',(-60.40956820258,233.97793151142,
    -2.156360546862));
#726 = CARTESIAN_POINT('',(-60.40862835313,233.97424257542,
    -2.287228462732));
#727 = CARTESIAN_POINT('',(-60.40789676954,233.97173675352,
    -2.418131277758));
#728 = CARTESIAN_POINT('',(-60.40753661504,233.97048729272,
    -2.549059849741));
#729 = CARTESIAN_POINT('',(-60.40750385395,233.97047235499,-2.68));
#730 = CARTESIAN_POINT('',(-62.14454244103,248.2074789129,
    13.300361898306));
#731 = CARTESIAN_POINT('',(-62.14267698485,248.07064721385,
    13.293542067475));
#732 = CARTESIAN_POINT('',(-62.14046849864,247.93386500776,
    13.285408566985));
#733 = CARTESIAN_POINT('',(-62.13792179109,247.79714373333,
    13.275987810398));
#734 = CARTESIAN_POINT('',(-62.13504179496,247.66050642644,
    13.265197179508));
#735 = CARTESIAN_POINT('',(-62.13183332607,247.52396284033,
    13.253084278128));
#736 = CARTESIAN_POINT('',(-62.12830115399,247.38751833415,
    13.239733985357));
#737 = CARTESIAN_POINT('',(-62.12445011506,247.25118625836,
    13.225146682919));
#738 = CARTESIAN_POINT('',(-62.12028512791,247.11498850599,
    13.20923905967));
#739 = CARTESIAN_POINT('',(-62.11581110014,246.978943842,13.191966926741
    ));
#740 = CARTESIAN_POINT('',(-62.11103284429,246.8430585634,
    13.173417505103));
#741 = CARTESIAN_POINT('',(-62.10595524991,246.70734898568,
    13.153566677564));
#742 = CARTESIAN_POINT('',(-62.10087753741,246.57163230866,
    13.133764473831));
#743 = CARTESIAN_POINT('',(-62.0955004546,246.43609057426,13.11265956723
    ));
#744 = CARTESIAN_POINT('',(-62.08982891435,246.30073953227,
    13.090246205428));
#745 = CARTESIAN_POINT('',(-62.0838677539,246.16559158516,
    13.066534689804));
#746 = CARTESIAN_POINT('',(-62.07762179061,246.03065820229,
    13.041539347572));
#747 = CARTESIAN_POINT('',(-62.07109585967,245.89595154214,
    13.01527053882));
#748 = CARTESIAN_POINT('',(-62.06429483398,245.76148528239,
    12.987730698761));
#749 = CARTESIAN_POINT('',(-62.05722362614,245.6272746578,
    12.958914414811));
#750 = CARTESIAN_POINT('',(-62.04988717245,245.49333570609,
    12.928812538902));
#751 = CARTESIAN_POINT('',(-62.04229039905,245.35968372161,
    12.897420334673));
#752 = CARTESIAN_POINT('',(-62.03443817014,245.22633091697,
    12.864749659795));
#753 = CARTESIAN_POINT('',(-62.01873312956,244.95960517829,
    12.799490664189));
#754 = CARTESIAN_POINT('',(-62.00200611254,244.6940740735,
    12.729112554239));
#755 = CARTESIAN_POINT('',(-61.98429762795,244.42987714792,
    12.653567099888));
#756 = CARTESIAN_POINT('',(-61.96563984864,244.16698467185,
    12.573181725631));
#757 = CARTESIAN_POINT('',(-61.946086815,243.90572259588,12.48782447825)
  );
#758 = CARTESIAN_POINT('',(-61.92565690082,243.64600408227,
    12.397042783247));
#759 = CARTESIAN_POINT('',(-61.9044080039,243.38799130464,
    12.302044622968));
#760 = CARTESIAN_POINT('',(-61.88237086518,243.13189739021,
    12.201494280532));
#761 = CARTESIAN_POINT('',(-61.85958310736,242.8776388816,12.09646943418
    ));
#762 = CARTESIAN_POINT('',(-61.83608821931,242.62545373295,
    11.986507044471));
#763 = CARTESIAN_POINT('',(-61.81192447307,242.37541402065,
    11.871752915529));
#764 = CARTESIAN_POINT('',(-61.76359466241,241.87528783648,
    11.64234704501));
#765 = CARTESIAN_POINT('',(-61.71258898712,241.38374235234,
    11.39375441266));
#766 = CARTESIAN_POINT('',(-61.6592218782,240.90156952721,
    11.126419013925));
#767 = CARTESIAN_POINT('',(-61.60380298785,240.42947955833,
    10.840862467063));
#768 = CARTESIAN_POINT('',(-61.54665257414,239.96834411321,
    10.537344776723));
#769 = CARTESIAN_POINT('',(-61.48808839013,239.51894326182,
    10.21630122149));
#770 = CARTESIAN_POINT('',(-61.42842310104,239.08193765731,
    9.878367004386));
#771 = CARTESIAN_POINT('',(-61.367972038,238.65802435486,9.524095178207)
  );
#772 = CARTESIAN_POINT('',(-61.30705579165,238.24796057459,
    9.153921665737));
#773 = CARTESIAN_POINT('',(-61.24599075431,237.85235470487,
    8.768533936308));
#774 = CARTESIAN_POINT('',(-61.18509323478,237.47182790778,
    8.368557076896));
#775 = CARTESIAN_POINT('',(-61.12419618514,237.0913068878,7.968574650824
    ));
#776 = CARTESIAN_POINT('',(-61.06346748641,236.72587613175,
    7.553990376879));
#777 = CARTESIAN_POINT('',(-61.00321809671,236.3760689875,7.125500617176
    ));
#778 = CARTESIAN_POINT('',(-60.94379963977,236.04287383974,
    6.683524841506));
#779 = CARTESIAN_POINT('',(-60.88545556354,235.72602188607,
    6.229203358089));
#780 = CARTESIAN_POINT('',(-60.8285864419,235.4269166164,5.76281625346)
  );
#781 = CARTESIAN_POINT('',(-60.77349631203,235.14590720573,
    5.285151500064));
#782 = CARTESIAN_POINT('',(-60.72042479286,234.88259728276,
    4.797399620795));
#783 = CARTESIAN_POINT('',(-60.66980131932,234.63857362293,
    4.299777469049));
#784 = CARTESIAN_POINT('',(-60.62188713558,234.41357808234,
    3.793401819973));
#785 = CARTESIAN_POINT('',(-60.5770017,234.20797238787,3.279061802055));
#786 = CARTESIAN_POINT('',(-60.56578340185,234.15660042677,3.15046475618
    ));
#787 = CARTESIAN_POINT('',(-60.55475453984,234.1064415036,3.021369895247
    ));
#788 = CARTESIAN_POINT('',(-60.54391937096,234.0574935523,2.891792416012
    ));
#789 = CARTESIAN_POINT('',(-60.53328349222,234.00976740502,
    2.761743020776));
#790 = CARTESIAN_POINT('',(-60.5228528553,233.96327720576,2.631231295643
    ));
#791 = CARTESIAN_POINT('',(-60.51263310675,233.91803399579,
    2.500267961248));
#792 = CARTESIAN_POINT('',(-60.50262925387,233.87404247079,
    2.368865996052));
#793 = CARTESIAN_POINT('',(-60.49284565611,233.83130090972,
    2.237040632086));
#794 = CARTESIAN_POINT('',(-60.48328634212,233.78980427542,
    2.104808223255));
#795 = CARTESIAN_POINT('',(-60.47395565235,233.74955048698,1.97218398612
    ));
#796 = CARTESIAN_POINT('',(-60.46485920727,233.71054986383,
    1.839178613209));
#797 = CARTESIAN_POINT('',(-60.45576678378,233.67158648539,
    1.706162047625));
#798 = CARTESIAN_POINT('',(-60.44690875756,233.63387750132,1.57276452974
    ));
#799 = CARTESIAN_POINT('',(-60.43828920838,233.59741810205,
    1.439001237612));
#800 = CARTESIAN_POINT('',(-60.42991391908,233.56221925605,
    1.304883519115));
#801 = CARTESIAN_POINT('',(-60.42178912077,233.52829597739,
    1.170421789119));
#802 = CARTESIAN_POINT('',(-60.41392065315,233.49565947959,
    1.035627455081));
#803 = CARTESIAN_POINT('',(-60.40631354017,233.46431321572,
    0.900513870781));
#804 = CARTESIAN_POINT('',(-60.39897198088,233.43425280487,
    0.765096318556));
#805 = CARTESIAN_POINT('',(-60.39189975562,233.40546984479,
    0.629391019621));
#806 = CARTESIAN_POINT('',(-60.38510104732,233.37795961094,
    0.493413172887));
#807 = CARTESIAN_POINT('',(-60.37858167817,233.35173264175,
    0.357174021933));
#808 = CARTESIAN_POINT('',(-60.37206729724,233.32555051164,0.22092600438
    ));
#809 = CARTESIAN_POINT('',(-60.36583241423,233.30065290154,
    8.441710158266E-02));
#810 = CARTESIAN_POINT('',(-60.35988475287,233.27706637875,
    -5.234265693732E-02));
#811 = CARTESIAN_POINT('',(-60.3542202924,233.25471255358,
    -0.189328369412));
#812 = CARTESIAN_POINT('',(-60.34884888249,233.23363719741,
    -0.326533208969));
#813 = CARTESIAN_POINT('',(-60.34378450077,233.21392276326,
    -0.463955268134));
#814 = CARTESIAN_POINT('',(-60.33903228176,233.19557215124,
    -0.601580628366));
#815 = CARTESIAN_POINT('',(-60.33458841706,233.17850791817,
    -0.739383698989));
#816 = CARTESIAN_POINT('',(-60.33045299728,233.16268748848,
    -0.877344586884));
#817 = CARTESIAN_POINT('',(-60.32663983684,233.14819128105,
    -1.015461974827));
#818 = CARTESIAN_POINT('',(-60.32315129373,233.13499702371,
    -1.153718703455));
#819 = CARTESIAN_POINT('',(-60.31966865153,233.12185475545,
    -1.291980537328));
#820 = CARTESIAN_POINT('',(-60.31651078228,233.11001568602,
    -1.430381051394));
#821 = CARTESIAN_POINT('',(-60.3136858547,233.0995084717,-1.568907842648
    ));
#822 = CARTESIAN_POINT('',(-60.31118846942,233.09024229019,
    -1.707543381439));
#823 = CARTESIAN_POINT('',(-60.3090292741,233.0822677644,-1.846276759812
    ));
#824 = CARTESIAN_POINT('',(-60.30722367261,233.07567720968,
    -1.985098531464));
#825 = CARTESIAN_POINT('',(-60.3057768183,233.07047222745,
    -2.123994499954));
#826 = CARTESIAN_POINT('',(-60.30468351962,233.06656292988,
    -2.262946210262));
#827 = CARTESIAN_POINT('',(-60.30394312483,233.06389934208,
    -2.401937797433));
#828 = CARTESIAN_POINT('',(-60.30357089073,233.06257178994,
    -2.540960744431));
#829 = CARTESIAN_POINT('',(-60.30356877907,233.06255334358,-2.68));
#830 = DEFINITIONAL_REPRESENTATION('',(#831),#834);
#831 = B_SPLINE_CURVE_WITH_KNOTS('',1,(#832,#833),.UNSPECIFIED.,.F.,.F.,
  (2,2),(5.002085680577E-02,1.570796326795),.PIECEWISE_BEZIER_KNOTS.);
#832 = CARTESIAN_POINT('',(6.28318530718,5.002085680577E-02));
#833 = CARTESIAN_POINT('',(6.28318530718,1.570796326795));
#834 = ( GEOMETRIC_REPRESENTATION_CONTEXT(2) 
PARAMETRIC_REPRESENTATION_CONTEXT() REPRESENTATION_CONTEXT('2D SPACE',''
  ) );
#835 = PCURVE('',#129,#836);
#836 = DEFINITIONAL_REPRESENTATION('',(#837),#841);
#837 = LINE('',#838,#839);
#838 = CARTESIAN_POINT('',(0.,0.));
#839 = VECTOR('',#840,1.);
#840 = DIRECTION('',(0.,1.));
#841 = ( GEOMETRIC_REPRESENTATION_CONTEXT(2) 
PARAMETRIC_REPRESENTATION_CONTEXT() REPRESENTATION_CONTEXT('2D SPACE',''
  ) );
#842 = ORIENTED_EDGE('',*,*,#843,.F.);
#843 = EDGE_CURVE('',#24,#24,#844,.T.);
#844 = SURFACE_CURVE('',#845,(#853,#860),.PCURVE_S1.);
#845 = ( BOUNDED_CURVE() B_SPLINE_CURVE(6,(#846,#847,#848,#849,#850,#851
,#852),.UNSPECIFIED.,.T.,.F.) B_SPLINE_CURVE_WITH_KNOTS((1,6,6,1),(
    -6.28318530718,0.,6.28318530718,12.566370614359),.UNSPECIFIED.) 
CURVE() GEOMETRIC_REPRESENTATION_ITEM() RATIONAL_B_SPLINE_CURVE((
    1.669078461068,1.03672962321,1.038346699848,0.853534330196,
1.038346699848,1.03672962321,1.669078461068)) REPRESENTATION_ITEM('') );
#846 = CARTESIAN_POINT('',(-60.30356877907,233.06255334358,-2.68));
#847 = CARTESIAN_POINT('',(-60.19963370419,232.15463433216,-2.68));
#848 = CARTESIAN_POINT('',(-61.30737967253,231.89575375523,-2.68));
#849 = CARTESIAN_POINT('',(-62.35220331562,232.82803354469,-2.68));
#850 = CARTESIAN_POINT('',(-61.54509643804,233.97231521419,-2.68));
#851 = CARTESIAN_POINT('',(-60.40750385395,233.97047235499,-2.68));
#852 = CARTESIAN_POINT('',(-60.30356877907,233.06255334358,-2.68));
#853 = PCURVE('',#129,#854);
#854 = DEFINITIONAL_REPRESENTATION('',(#855),#859);
#855 = LINE('',#856,#857);
#856 = CARTESIAN_POINT('',(0.,1.570796326795));
#857 = VECTOR('',#858,1.);
#858 = DIRECTION('',(1.,0.));
#859 = ( GEOMETRIC_REPRESENTATION_CONTEXT(2) 
PARAMETRIC_REPRESENTATION_CONTEXT() REPRESENTATION_CONTEXT('2D SPACE',''
  ) );
#860 = PCURVE('',#861,#866);
#861 = CYLINDRICAL_SURFACE('',#862,0.55);
#862 = AXIS2_PLACEMENT_3D('',#863,#864,#865);
#863 = CARTESIAN_POINT('',(-60.85,233.,-2.68));
#864 = DIRECTION('',(0.,0.,-1.));
#865 = DIRECTION('',(0.993511310782,0.113733351965,0.));
#866 = DEFINITIONAL_REPRESENTATION('',(#867),#878);
#867 = B_SPLINE_CURVE_WITH_KNOTS('',9,(#868,#869,#870,#871,#872,#873,
    #874,#875,#876,#877),.UNSPECIFIED.,.F.,.F.,(10,10),(0.,6.28318530718
    ),.PIECEWISE_BEZIER_KNOTS.);
#868 = CARTESIAN_POINT('',(0.,0.));
#869 = CARTESIAN_POINT('',(0.688032734575,0.));
#870 = CARTESIAN_POINT('',(1.39933951866,0.));
#871 = CARTESIAN_POINT('',(2.102476789671,0.));
#872 = CARTESIAN_POINT('',(2.777749646488,0.));
#873 = CARTESIAN_POINT('',(3.505435660692,0.));
#874 = CARTESIAN_POINT('',(4.180708517507,0.));
#875 = CARTESIAN_POINT('',(4.88384578852,0.));
#876 = CARTESIAN_POINT('',(5.595152572605,0.));
#877 = CARTESIAN_POINT('',(6.28318530718,0.));
#878 = ( GEOMETRIC_REPRESENTATION_CONTEXT(2) 
PARAMETRIC_REPRESENTATION_CONTEXT() REPRESENTATION_CONTEXT('2D SPACE',''
  ) );
#879 = ORIENTED_EDGE('',*,*,#21,.F.);
#880 = ORIENTED_EDGE('',*,*,#881,.T.);
#881 = EDGE_CURVE('',#22,#22,#882,.T.);
#882 = SURFACE_CURVE('',#883,(#891,#898),.PCURVE_S1.);
#883 = ( BOUNDED_CURVE() B_SPLINE_CURVE(6,(#884,#885,#886,#887,#888,#889
,#890),.UNSPECIFIED.,.T.,.F.) B_SPLINE_CURVE_WITH_KNOTS((1,6,6,1),(
    -6.28318530718,0.,6.28318530718,12.566370614359),.UNSPECIFIED.) 
CURVE() GEOMETRIC_REPRESENTATION_ITEM() RATIONAL_B_SPLINE_CURVE((
    1.669078461068,1.03672962321,1.038346699848,0.853534330196,
1.038346699848,1.03672962321,1.669078461068)) REPRESENTATION_ITEM('') );
#884 = CARTESIAN_POINT('',(-62.14454244103,248.2074789129,
    13.300361898306));
#885 = CARTESIAN_POINT('',(-62.14454244103,248.16178647832,
    14.213067564168));
#886 = CARTESIAN_POINT('',(-63.27443920698,248.13986003539,
    14.343347312836));
#887 = CARTESIAN_POINT('',(-64.20636562128,248.17943959398,
    13.29895817661));
#888 = CARTESIAN_POINT('',(-63.27443920698,248.24436621646,
    12.255837980746));
#889 = CARTESIAN_POINT('',(-62.14454244103,248.25317134748,
    12.387656232445));
#890 = CARTESIAN_POINT('',(-62.14454244103,248.2074789129,
    13.300361898306));
#891 = PCURVE('',#129,#892);
#892 = DEFINITIONAL_REPRESENTATION('',(#893),#897);
#893 = LINE('',#894,#895);
#894 = CARTESIAN_POINT('',(0.,5.002085680577E-02));
#895 = VECTOR('',#896,1.);
#896 = DIRECTION('',(1.,0.));
#897 = ( GEOMETRIC_REPRESENTATION_CONTEXT(2) 
PARAMETRIC_REPRESENTATION_CONTEXT() REPRESENTATION_CONTEXT('2D SPACE',''
  ) );
#898 = PCURVE('',#899,#904);
#899 = PLANE('',#900);
#900 = AXIS2_PLACEMENT_3D('',#901,#902,#903);
#901 = CARTESIAN_POINT('',(-62.69440433731,248.20000118483,
    13.299987543666));
#902 = DIRECTION('',(1.361505292991E-02,-0.998656644577,
    -4.999536554369E-02));
#903 = DIRECTION('',(0.,5.000000000013E-02,-0.998749217772));
#904 = DEFINITIONAL_REPRESENTATION('',(#905),#913);
#905 = ( BOUNDED_CURVE() B_SPLINE_CURVE(6,(#906,#907,#908,#909,#910,#911
,#912),.UNSPECIFIED.,.T.,.F.) B_SPLINE_CURVE_WITH_KNOTS((1,6,6,1),(
    -6.28318530718,0.,6.28318530718,12.566370614359),.UNSPECIFIED.) 
CURVE() GEOMETRIC_REPRESENTATION_ITEM() RATIONAL_B_SPLINE_CURVE((
    1.669078461068,1.03672962321,1.038346699848,0.853534330196,
1.038346699848,1.03672962321,1.669078461068)) REPRESENTATION_ITEM('') );
#906 = CARTESIAN_POINT('',(-8.881784197001E-15,0.549912867221));
#907 = CARTESIAN_POINT('',(-0.913848691564,0.549912867221));
#908 = CARTESIAN_POINT('',(-1.045061810785,-0.580088637581));
#909 = CARTESIAN_POINT('',(-1.59872115546E-14,-1.512101439334));
#910 = CARTESIAN_POINT('',(1.045061810785,-0.580088637581));
#911 = CARTESIAN_POINT('',(0.913848691564,0.549912867221));
#912 = CARTESIAN_POINT('',(-8.881784197001E-15,0.549912867221));
#913 = ( GEOMETRIC_REPRESENTATION_CONTEXT(2) 
PARAMETRIC_REPRESENTATION_CONTEXT() REPRESENTATION_CONTEXT('2D SPACE',''
  ) );
#914 = ADVANCED_FACE('',(#915),#861,.T.);
#915 = FACE_BOUND('',#916,.T.);
#916 = EDGE_LOOP('',(#917,#939,#966,#967));
#917 = ORIENTED_EDGE('',*,*,#918,.T.);
#918 = EDGE_CURVE('',#24,#919,#921,.T.);
#919 = VERTEX_POINT('',#920);
#920 = CARTESIAN_POINT('',(-60.30356877907,233.06255334358,-52.));
#921 = SEAM_CURVE('',#922,(#926,#932),.PCURVE_S1.);
#922 = LINE('',#923,#924);
#923 = CARTESIAN_POINT('',(-60.30356877907,233.06255334358,-2.68));
#924 = VECTOR('',#925,1.);
#925 = DIRECTION('',(0.,0.,-1.));
#926 = PCURVE('',#861,#927);
#927 = DEFINITIONAL_REPRESENTATION('',(#928),#931);
#928 = B_SPLINE_CURVE_WITH_KNOTS('',1,(#929,#930),.UNSPECIFIED.,.F.,.F.,
  (2,2),(0.,49.32),.PIECEWISE_BEZIER_KNOTS.);
#929 = CARTESIAN_POINT('',(6.28318530718,0.));
#930 = CARTESIAN_POINT('',(6.28318530718,49.32));
#931 = ( GEOMETRIC_REPRESENTATION_CONTEXT(2) 
PARAMETRIC_REPRESENTATION_CONTEXT() REPRESENTATION_CONTEXT('2D SPACE',''
  ) );
#932 = PCURVE('',#861,#933);
#933 = DEFINITIONAL_REPRESENTATION('',(#934),#938);
#934 = LINE('',#935,#936);
#935 = CARTESIAN_POINT('',(0.,0.));
#936 = VECTOR('',#937,1.);
#937 = DIRECTION('',(0.,1.));
#938 = ( GEOMETRIC_REPRESENTATION_CONTEXT(2) 
PARAMETRIC_REPRESENTATION_CONTEXT() REPRESENTATION_CONTEXT('2D SPACE',''
  ) );
#939 = ORIENTED_EDGE('',*,*,#940,.F.);
#940 = EDGE_CURVE('',#919,#919,#941,.T.);
#941 = SURFACE_CURVE('',#942,(#947,#954),.PCURVE_S1.);
#942 = CIRCLE('',#943,0.55);
#943 = AXIS2_PLACEMENT_3D('',#944,#945,#946);
#944 = CARTESIAN_POINT('',(-60.85,233.,-52.));
#945 = DIRECTION('',(0.,0.,-1.));
#946 = DIRECTION('',(0.993511310782,0.113733351965,0.));
#947 = PCURVE('',#861,#948);
#948 = DEFINITIONAL_REPRESENTATION('',(#949),#953);
#949 = LINE('',#950,#951);
#950 = CARTESIAN_POINT('',(0.,49.32));
#951 = VECTOR('',#952,1.);
#952 = DIRECTION('',(1.,0.));
#953 = ( GEOMETRIC_REPRESENTATION_CONTEXT(2) 
PARAMETRIC_REPRESENTATION_CONTEXT() REPRESENTATION_CONTEXT('2D SPACE',''
  ) );
#954 = PCURVE('',#955,#960);
#955 = PLANE('',#956);
#956 = AXIS2_PLACEMENT_3D('',#957,#958,#959);
#957 = CARTESIAN_POINT('',(-60.85,233.,-52.));
#958 = DIRECTION('',(-0.,-0.,-1.));
#959 = DIRECTION('',(-1.,0.,0.));
#960 = DEFINITIONAL_REPRESENTATION('',(#961),#965);
#961 = CIRCLE('',#962,0.55);
#962 = AXIS2_PLACEMENT_2D('',#963,#964);
#963 = CARTESIAN_POINT('',(7.105427357601E-15,2.84217094304E-14));
#964 = DIRECTION('',(-0.993511310782,0.113733351965));
#965 = ( GEOMETRIC_REPRESENTATION_CONTEXT(2) 
PARAMETRIC_REPRESENTATION_CONTEXT() REPRESENTATION_CONTEXT('2D SPACE',''
  ) );
#966 = ORIENTED_EDGE('',*,*,#918,.F.);
#967 = ORIENTED_EDGE('',*,*,#843,.T.);
#968 = ADVANCED_FACE('',(#969),#899,.F.);
#969 = FACE_BOUND('',#970,.F.);
#970 = EDGE_LOOP('',(#971));
#971 = ORIENTED_EDGE('',*,*,#881,.T.);
#972 = ADVANCED_FACE('',(#973),#955,.T.);
#973 = FACE_BOUND('',#974,.T.);
#974 = EDGE_LOOP('',(#975));
#975 = ORIENTED_EDGE('',*,*,#940,.T.);
#976 = ( GEOMETRIC_REPRESENTATION_CONTEXT(3) 
GLOBAL_UNCERTAINTY_ASSIGNED_CONTEXT((#980)) GLOBAL_UNIT_ASSIGNED_CONTEXT
((#977,#978,#979)) REPRESENTATION_CONTEXT('Context #1',
  '3D Context with UNIT and UNCERTAINTY') );
#977 = ( LENGTH_UNIT() NAMED_UNIT(*) SI_UNIT(.MILLI.,.METRE.) );
#978 = ( NAMED_UNIT(*) PLANE_ANGLE_UNIT() SI_UNIT($,.RADIAN.) );
#979 = ( NAMED_UNIT(*) SI_UNIT($,.STERADIAN.) SOLID_ANGLE_UNIT() );
#980 = UNCERTAINTY_MEASURE_WITH_UNIT(LENGTH_MEASURE(2.E-05),#977,
  'distance_accuracy_value','confusion accuracy');
#981 = PRODUCT_RELATED_PRODUCT_CATEGORY('part',$,(#7));
ENDSEC;
END-ISO-10303-21;
